<?xml version="1.0" standalone="no"?>
<!DOCTYPE svg PUBLIC "-//W3C//DTD SVG 1.1//EN" "http://www.w3.org/Graphics/SVG/1.1/DTD/svg11.dtd" >
<svg xmlns="http://www.w3.org/2000/svg" xmlns:xlink="http://www.w3.org/1999/xlink" version="1.1">
<metadata>
Created by FontForge 20170731 at Tue Apr  3 03:26:41 2018
 By Aleksey,,,
Exodar (c) (Rometheme). 2018. All Rights Reserved
</metadata>
<defs>
<font id="ExodarOutline" horiz-adv-x="1184" >
  <font-face 
    font-family="Exodar-Outline"
    font-weight="400"
    font-stretch="normal"
    units-per-em="2048"
    panose-1="2 0 5 0 0 0 0 0 0 0"
    ascent="1638"
    descent="-410"
    x-height="1433"
    cap-height="1445"
    bbox="-342 -418 2062 1936.5"
    underline-thickness="150"
    underline-position="-442"
    unicode-range="U+001D-F002"
  />
<missing-glyph horiz-adv-x="1024" 
d="M100 0v1434h824v-1434h-824zM150 50h724v1334h-724v-1334zM325 1148q31 28 58 43q53 30 112 30q92 0 148 -47.5t56 -127.5q0 -49 -23 -98.5t-87 -129.5q-63 -80 -99 -132t-36 -99q0 -38 24 -133h-32q-35 97 -35 148q0 76 81.5 218t81.5 217q0 57 -33 90t-91 33
q-38 0 -69 -17q-26 -15 -56 -40v45zM389 334l57 58q11 10 20 10q10 0 22 -11l56 -60q9 -11 9 -20q0 -11 -10 -22l-56 -62q-14 -14 -21 -14q-11 0 -20 10l-61 71q-7 9 -7 18q0 10 11 22z" />
    <glyph glyph-name=".notdef" horiz-adv-x="1024" 
d="M100 0v1434h824v-1434h-824zM150 50h724v1334h-724v-1334zM325 1148q31 28 58 43q53 30 112 30q92 0 148 -47.5t56 -127.5q0 -49 -23 -98.5t-87 -129.5q-63 -80 -99 -132t-36 -99q0 -38 24 -133h-32q-35 97 -35 148q0 76 81.5 218t81.5 217q0 57 -33 90t-91 33
q-38 0 -69 -17q-26 -15 -56 -40v45zM389 334l57 58q11 10 20 10q10 0 22 -11l56 -60q9 -11 9 -20q0 -11 -10 -22l-56 -62q-14 -14 -21 -14q-11 0 -20 10l-61 71q-7 9 -7 18q0 10 11 22z" />
    <glyph glyph-name=".null" horiz-adv-x="0" 
 />
    <glyph glyph-name=".null" horiz-adv-x="0" 
 />
    <glyph glyph-name="nonmarkingreturn" horiz-adv-x="508" 
 />
    <glyph glyph-name="space" unicode=" " horiz-adv-x="508" 
 />
    <glyph glyph-name="space" unicode="&#xa0;" horiz-adv-x="508" 
 />
    <glyph glyph-name="exclam" unicode="!" horiz-adv-x="466" 
d="M133 -1v0q55 0 94 39t39 93q0 55 -39 94t-94 39t-94 -39t-39 -94q0 -54 39 -93t94 -39zM133 216v0q35 0 59.5 -25t24.5 -60q0 -34 -24.5 -59t-59.5 -25t-59.5 25t-24.5 59q0 35 24.5 60t59.5 25zM132 273v0q55 0 94 38.5t39 93.5v897q0 55 -39 94t-94 39q-54 0 -93 -39
t-39 -94v-897q0 -55 39 -93.5t93 -38.5zM132 1386v0q35 0 59.5 -24.5t24.5 -59.5v-897q0 -35 -24.5 -59.5t-59.5 -24.5q-34 0 -58.5 24.5t-24.5 59.5v897q0 35 24.5 59.5t58.5 24.5z" />
    <glyph glyph-name="quotedbl" unicode="&#x22;" horiz-adv-x="741" 
d="M134 1189v0q53 0 94 39q39 40 39 95v258q0 53 -36 91t-91 42q-6 1 -13 0q-55 -4 -91 -42t-36 -91v-258q0 -56 39 -95t95 -39zM134 1666v0h4q35 -3 58 -27t23 -58v-258q-1 -35 -25 -60q-26 -25 -60 -25q-36 0 -61 25t-25 60v258q0 34 23 58t58 27h5zM407 1189v0
q54 0 95 39q38 40 39 95v258q0 53 -36.5 91t-90.5 42q-7 1 -14 0q-54 -4 -90.5 -42t-36.5 -91v-258q0 -56 39.5 -95t94.5 -39zM407 1666v0h4q35 -3 58 -27t23 -58v-258q0 -35 -25 -60q-26 -25 -60 -25q-35 0 -60 25t-25 60v258q0 34 23 58t58 27h4z" />
    <glyph glyph-name="numbersign" unicode="#" horiz-adv-x="1586" 
d="M246 -2v0q39 0 72 21t50 57l69 151q2 1 2 3l103 223l2 4l228 495q4 3 6 8l102 222q2 5 3 9l27 60q23 50 4 102q-20 51 -70 74q-27 12 -56 12q-39 0 -71.5 -20.5t-49.5 -56.5l-67 -145h-126q-56 0 -96 -40t-40 -96t40 -95.5t96 -39.5h1l-212 -459h-127q-56 0 -96 -39.5
t-40 -95.5t40 -96t96 -40h2l-14 -30q-22 -50 -4 -101q20 -52 70 -75q27 -12 56 -12zM136 439v0h142q15 0 23 14l234 507q5 12 -2 23q-8 11 -21 11h-38q-36 0 -61.5 25.5t-25.5 61.5t25.5 61.5t61.5 25.5h141q14 0 22 14l74 159q27 50 77 50q19 0 36 -8q32 -15 45 -47
q11 -33 -3 -64l-32 -69q-2 -5 -2 -9l-95 -206q-3 -3 -5 -8l-234 -507l-2 -4l-99 -215q-1 -1 -2 -3l-72 -155q-27 -49 -77 -49q-19 0 -36 7q-32 15 -45 48q-11 32 3 64l30 64q5 12 -2 24q-8 11 -20 11h-40q-36 0 -61.5 25.5t-25.5 61.5t25.5 61.5t61.5 25.5zM598 2v0
q39 0 72 21t50 57l66 145h126q56 0 96 39.5t40 95.5t-40 96t-96 40h-1l212 458h127q56 0 96 40t40 96t-40 95.5t-96 39.5h-2l14 31q23 49 4 101q-20 51 -70 75q-27 11 -56 11q-39 0 -72 -20.5t-50 -56.5l-69 -151l-2 -4l-103 -222q-1 -2 -1 -4l-229 -496q-4 -3 -6 -7
l-102 -223q-2 -4 -3 -9l-27 -60q-23 -50 -4 -101q20 -52 70 -75q27 -12 56 -12zM554 248v0l95 206q3 3 5 7l234 507l2 4l99 215l2 4l72 155q27 49 77 49q19 0 36 -8q32 -15 45 -47q11 -33 -3 -64l-30 -65q-5 -12 2 -23q8 -11 20 -11h40q36 0 61.5 -25.5t25.5 -61.5
t-25.5 -61.5t-61.5 -25.5h-142q-15 0 -22 -14l-234 -507q-6 -12 1 -24q8 -11 21 -11h38q36 0 61.5 -25.5t25.5 -61.5t-25.5 -61.5t-61.5 -25.5h-141q-14 0 -22 -14l-74 -159q-27 -49 -77 -49q-19 0 -36 7q-32 15 -45 48q-11 32 3 64l32 69q2 4 2 9z" />
    <glyph glyph-name="dollar" unicode="$" horiz-adv-x="997" 
d="M399 0v0q55 0 94.5 35t39.5 85v26q84 13 145 74q38 32 65 76l6 7q1 1 2 3q46 84 44 179q1 143 -93 245q-100 101 -264 101h-67q-6 2 -13 2q-54 0 -86 35.5t-35 80.5q1 2 1 5q0 45 32 83.5t89 38.5h78.5h105.5h41l99 -1q45 0 78.5 34t33.5 80t-32.5 79t-78.5 33h-87
l-64 -1v17q0 49 -39.5 84.5t-94.5 35.5q-56 0 -95.5 -35.5t-39.5 -84.5v-22q-84 -13 -145 -74q-38 -33 -65 -76l-6 -7q-1 -2 -2 -3q-46 -84 -44 -180q-1 -143 93 -244q98 -100 264 -101l72 -2h8q55 0 86.5 -35.5t34.5 -80.5v-5q0 -45 -32.5 -83.5t-89.5 -38.5h-85h-110
l-128 1q-46 0 -79.5 -34t-33.5 -81q0 -46 33 -78.5t79 -32.5h86h64v-20q0 -50 39.5 -85t95.5 -35zM289 189v0h-1l-88 -1h-86q-26 0 -44.5 18.5t-18.5 44.5q0 27 19 46.5t45 19.5l98 -1h30h14h103.5h77.5q70 0 118 46.5t52 118.5q1 3 1 6q-3 73 -50 120t-119 49q-1 0 -2 1h-5
l-73 2h-1q-145 0 -229 86q-81 86 -79 210v1q-2 82 36 153l6 7q1 1 1 2q24 38 57 66q1 1 2 1q55 58 138 65q10 1 16 7.5t6 16.5v43q0 29 25 50t61 21q35 0 60 -21t25 -50v-41q0 -10 8 -17q7 -7 17 -7h88h87q26 0 44.5 -18.5t18.5 -44.5t-19.5 -45.5t-44.5 -19.5h-99l-41 1
h-105.5h-78.5q-70 0 -118 -47t-52 -118q-1 -3 -1 -7q3 -72 49.5 -119t118.5 -49q4 -2 9 -2l73 -1q146 0 230 -86q80 -87 79 -210v-2q2 -81 -37 -152l-5 -7l-2 -2q-23 -38 -57 -66l-2 -2q-55 -57 -138 -64q-9 -1 -15.5 -8t-6.5 -16v-47q0 -30 -25 -51t-60 -21q-36 0 -61 21
t-25 51v45q0 9 -7 17q-8 7 -17 7z" />
    <glyph glyph-name="percent" unicode="%" horiz-adv-x="1402" 
d="M138 -2v0q62 0 105 51l925 1173q34 45 28 97.5t-50 88.5q-38 29 -82 29q-62 0 -105 -51l-925 -1172q-34 -45 -28 -98t50 -89q37 -29 82 -29v0zM1064 1388v0q29 0 52 -18q28 -23 32 -56.5t-18 -61.5l-926 -1173q-27 -32 -66 -32v0q-29 0 -52 18q-28 23 -32 56.5t18 62.5
l925 1172q28 32 67 32zM140 1054v0q56 0 95.5 40t39.5 95q0 56 -39.5 96t-95.5 40t-95.5 -40t-39.5 -96q0 -55 39.5 -95t95.5 -40zM140 1276v0q36 0 61.5 -25.5t25.5 -61.5q0 -35 -25.5 -60.5t-61.5 -25.5t-61 25.5t-25 60.5q0 36 25 61.5t61 25.5zM1062 107v0
q56 0 95.5 39.5t39.5 95.5t-39.5 95.5t-95.5 39.5t-95.5 -39.5t-39.5 -95.5t39.5 -95.5t95.5 -39.5zM1062 329v0q36 0 61 -25.5t25 -61.5t-25 -61t-61 -25t-61.5 25t-25.5 61t25.5 61.5t61.5 25.5z" />
    <glyph glyph-name="ampersand" unicode="&#x26;" horiz-adv-x="1433" 
d="M441 592v0q3 0 6 1h92h6q16 0 32 1q166 -3 262 97q48 40 81 93l7 9l2 4q57 102 54 219q3 118 -54 220l-2 4l-7 8q-33 54 -81 94q-96 100 -262 97q-16 1 -32 1h-6h-92q-3 1 -6 1q-16 0 -32 -1q-166 3 -262 -97q-48 -40 -81 -94l-7 -8l-2 -4q-57 -103 -54 -220v-0.5v-0.5
q-3 -118 54 -220l2 -4l7 -8q33 -54 81 -94q96 -100 262 -97q16 -1 32 -1zM98 821v0q-49 91 -47 194v0.5v0.5v0v2q-2 103 47 194l7 8q1 1 2 3q29 48 72 83q0 1 1 1q37 40 89 62t141 23h1q12 0 24 1q3 -1 6 -1v0h98h4h2q14 0 30 -1h1q89 -1 140.5 -23t89.5 -62l1 -1
q43 -35 72 -83q1 -2 2 -3l7 -8q49 -91 47 -194v-1q2 -103 -47 -194l-7 -8q-1 -1 -2 -3q-29 -48 -72 -83q-1 -1 -1 -2q-38 -39 -89.5 -61t-140.5 -23h-1q-15 -1 -29 -1h-3h-4h-98v0q-3 0 -6 -1q-12 1 -24 1h-1q-89 1 -141 23t-89 62q-1 0 -1 1q-43 35 -72 83q-1 2 -2 3z
M545 812v0q85 0 143.5 58t61.5 146v1q-3 88 -61.5 146t-143.5 58h-49.5h-73.5h-3q-79 -10 -130 -66.5t-54 -138.5q3 -81 54 -137.5t130 -66.5h3h73.5h49.5zM423 861v0q-61 7 -99.5 50t-39.5 105q1 63 39.5 106t99.5 50h122q65 0 109.5 -44t47.5 -112q-3 -67 -47.5 -111
t-109.5 -44h-122zM441 0v0q3 0 6 1l92 -1q3 0 6 1h32q166 -2 262 98q48 40 81 93l7 9l2 4q25 43 38 93h132v0q53 0 94 39q40 41 40 95q0 55 -39.5 94.5t-94.5 39.5h-258q-34 0 -64 -16q-71 -41 -75 -123v-2q-2 -68 -47 -112.5t-110 -44.5h-122q-61 8 -99.5 51t-39.5 106v1
q-2 60 -42.5 100t-98.5 40t-99 -41.5t-41 -99.5v-5q-2 -116 54 -216l2 -4l7 -9q33 -53 81 -93q96 -100 262 -97q16 -1 32 -1zM98 229v0q-48 89 -47 190v2v4q0 38 27 65t65 27t64.5 -26.5t27.5 -65.5v0v-1v-2q3 -81 54 -136.5t130 -65.5h3h73.5h49.5q85 0 143 57.5t62 144.5
q1 1 1 2v1q1 55 49 82q20 10 41 10h258q35 0 60 -25t25 -60q0 -34 -25 -60q-26 -25 -60 -25v0h-150q-9 0 -15.5 -5.5t-8.5 -13.5q-12 -53 -37 -98l-7 -8q-1 -2 -2 -3q-29 -48 -72 -83q-1 -1 -1 -2q-38 -39 -89.5 -61t-140.5 -23h-1q-16 -1 -30 -1h-1h-1h-4h-98v0q-3 0 -6 -1
q-12 0 -24 1h-1q-89 1 -141 23t-89 61q-1 1 -1 2q-43 35 -72 83q-1 2 -2 3z" />
    <glyph glyph-name="quotesingle" unicode="'" horiz-adv-x="468" 
d="M134 1190v0q54 0 95 39q38 40 39 95v258q0 53 -36 91t-91 42q-7 1 -14 0q-54 -4 -90.5 -42t-36.5 -91v-258q0 -56 39.5 -95t94.5 -39zM134 1667v0h4q35 -3 58 -27t23 -58v-258q0 -34 -25 -61q-26 -24 -60 -24q-35 0 -60 25t-25 60v258q0 34 23 58t58 27h4z" />
    <glyph glyph-name="parenleft" unicode="(" horiz-adv-x="896" 
d="M561 -127v0q56 0 95.5 39.5t39.5 95.5q0 67 -60 111q-2 2 -5 4q-1 0 -2 1v0l-3 1l-2 2q-166 90 -260.5 247.5t-94.5 343.5q0 184 94 341t258 248q4 2 7 4l3 1q3 2 5 4q60 44 60 111q0 56 -39.5 95.5t-95.5 39.5q-34 0 -65 -16q-1 -1 -3 -2q-230 -127 -361.5 -347
t-131.5 -479q0 -257 130 -476.5t357 -347.5l4 -2q33 -19 70 -19zM509 -63v0q-215 122 -337.5 329.5t-122.5 451.5q0 245 124 453.5t343 329.5q1 1 3 2q20 11 42 11q36 0 61 -25.5t25 -61.5q0 -44 -40 -72l-1 -1l-1 -1h-1v0q-2 -1 -5 -3v0q-177 -97 -277.5 -265.5
t-100.5 -366.5q0 -199 101 -368t279 -266l2 -1v0v0l2 -1v0v0l2 -2q40 -28 40 -72q0 -36 -25 -61t-61 -25q-25 0 -46 13q-3 2 -6 2z" />
    <glyph glyph-name="parenright" unicode=")" horiz-adv-x="895" 
d="M135 -127v0q37 0 69 20q2 0 4 2q228 127 357.5 346.5t129.5 476.5q0 259 -131 479t-362 347q-1 1 -3 2q-31 16 -64 16q-56 0 -95.5 -39.5t-39.5 -94.5q0 -68 60 -112q2 -2 4 -3l3 -2q4 -2 7 -4q165 -90 258.5 -247t93.5 -342q0 -186 -94.5 -343t-259.5 -248q-1 -1 -3 -1
l-2 -2h-1q-1 -1 -2 -1q-2 -1 -5 -3q-59 -44 -59 -112q0 -56 39.5 -95.5t95.5 -39.5zM90 82v0v0v0l2 1v0h1l2 1q177 97 278.5 266t101.5 368q0 198 -101 366.5t-277 265.5q-1 0 -1 1q-2 1 -5 2v1h-1l-1 1q-41 28 -41 73q0 35 25.5 60.5t61.5 25.5q22 0 42 -11q1 -1 3 -2
q218 -120 342.5 -329t124.5 -454q0 -243 -123 -451t-338 -329q-3 -1 -5 -3q-22 -13 -46 -13q-36 0 -61.5 25t-25.5 61q0 44 41 73z" />
    <glyph glyph-name="asterisk" unicode="*" horiz-adv-x="650" 
d="M134 982v0q51 0 91 36q40 -36 91 -36q53 0 94 39q39 39 40 95q-1 52 -36 91q36 40 36 91q0 54 -40 95q-41 39 -94 39q-51 0 -91 -36q-40 36 -91 36q-54 0 -95 -39q-39 -41 -39 -95q0 -51 36 -91q-36 -40 -36 -91q0 -54 39 -95q41 -39 95 -39zM134 1383v0q34 0 60 -25
l14 -14q7 -7 16.5 -7t17.5 7l14 14q26 25 60 25t60 -25q25 -26 25 -60t-25 -60l-14 -14q-7 -8 -7 -17.5t7 -16.5l14 -14q25 -25 25 -60t-25 -61q-26 -25 -60 -25t-60 25l-14 14q-8 7 -17 7q-10 0 -17 -7l-14 -14q-26 -25 -60 -25q-35 0 -61 25q-25 26 -25 61q0 34 25 60
l14 14q7 7 7 17q0 9 -7 17l-14 14q-25 26 -25 60t25 60q26 25 61 25z" />
    <glyph glyph-name="plus" unicode="+" 
d="M492 226v0q54 0 93 38.5t39 93.5v228h227q55 0 94 38.5t39 93.5q0 54 -39 93t-94 39h-227v228q0 54 -39 93t-93 39q-55 0 -94 -39t-39 -93v-228h-227q-55 0 -93.5 -39t-38.5 -93q0 -55 38.5 -93.5t93.5 -38.5h227v-228q0 -55 39 -93.5t94 -38.5zM132 801v0h252q10 0 17 7
t7 18v252q0 34 24.5 58.5t59.5 24.5q34 0 58.5 -24.5t24.5 -58.5v-252q0 -11 7 -18t17 -7h252q35 0 59.5 -24.5t24.5 -58.5q0 -35 -24.5 -59.5t-59.5 -24.5h-252q-10 0 -17 -7t-7 -17v-252q0 -35 -24.5 -59.5t-58.5 -24.5q-35 0 -59.5 24.5t-24.5 59.5v252q0 10 -7 17t-17 7
h-252q-35 0 -59.5 24.5t-24.5 59.5q0 34 24.5 58.5t59.5 24.5z" />
    <glyph glyph-name="comma" unicode="," horiz-adv-x="468" 
d="M134 -261v0q54 0 95 40q38 39 39 94v258q0 53 -36 91.5t-91 42.5h-14q-54 -4 -90.5 -42.5t-36.5 -91.5v-258q0 -55 39.5 -94.5t94.5 -39.5zM134 216v0h4q35 -2 58 -26.5t23 -58.5v-258q0 -34 -25 -60q-26 -25 -60 -25q-35 0 -60 25t-25 60v258q0 34 23 58.5t58 26.5h4z
" />
    <glyph glyph-name="hyphen" unicode="-" 
d="M852 585v0q55 0 93.5 39t38.5 94q0 54 -38.5 93t-93.5 39h-720q-54 0 -93 -39t-39 -93q0 -55 39 -94t93 -39h720zM132 801v0h720q35 0 59.5 -24.5t24.5 -58.5q0 -35 -24.5 -59.5t-59.5 -24.5h-720q-34 0 -58.5 24.5t-24.5 59.5q0 34 24.5 58.5t58.5 24.5z" />
    <glyph glyph-name="hyphen" unicode="&#xad;" 
d="M852 585v0q55 0 93.5 39t38.5 94q0 54 -38.5 93t-93.5 39h-720q-54 0 -93 -39t-39 -93q0 -55 39 -94t93 -39h720zM132 801v0h720q35 0 59.5 -24.5t24.5 -58.5q0 -35 -24.5 -59.5t-59.5 -24.5h-720q-34 0 -58.5 24.5t-24.5 59.5q0 34 24.5 58.5t58.5 24.5z" />
    <glyph glyph-name="period" unicode="." horiz-adv-x="465" 
d="M132 0v0q55 0 94 38.5t39 93.5t-39 94t-94 39t-93.5 -39t-38.5 -94t38.5 -93.5t93.5 -38.5zM132 216v0q35 0 59.5 -24.5t24.5 -59.5t-24.5 -59.5t-59.5 -24.5t-59.5 24.5t-24.5 59.5t24.5 59.5t59.5 24.5z" />
    <glyph glyph-name="slash" unicode="/" horiz-adv-x="1402" 
d="M138 -2v0q61 0 104 51l926 1173q34 45 28 97.5t-50 88.5q-38 29 -82 29q-62 0 -105 -51l-925 -1172q-34 -45 -28 -98t50 -89q37 -29 82 -29v0zM1064 1389v0q28 0 52 -19q28 -23 32 -56.5t-18 -61.5l-926 -1173q-27 -32 -66 -32q-29 0 -52 18q-28 23 -32 56.5t18 62.5
l925 1172q28 33 67 33z" />
    <glyph glyph-name="zero" unicode="0" horiz-adv-x="1180" 
d="M845 760v0q55 0 94 39t39 94v107v2v9q2 117 -54 220q-1 1 -1.5 2t-1.5 1l-7 9q-33 54 -80 93q-96 100 -263 98q-16 1 -32 1q-3 0 -5 -1h-44h-43q-3 1 -6 1q-15 0 -32 -1q-166 2 -262 -98q-48 -39 -81 -93l-7 -9q-1 -1 -2 -3q-57 -103 -54 -220v-9v-2v-99v-2v-6
q0 -55 39 -94t94 -39q50 0 87 32.5t45 83.5q1 3 1 7v4v6v6v110q0 63 51.5 110.5t120.5 47.5h101q71 -3 120.5 -49t49.5 -109v-109v-7q0 -55 39 -94t94 -39zM441 1215v0q-90 0 -155.5 -61t-65.5 -145v-110v-1v-5v-4v-1v-1v-2q-4 -33 -28 -54.5t-56 -21.5q-35 0 -60 24.5
t-25 59.5v6q1 3 0 6v92v4v9v2q-2 103 47 193l7 9l2 2q29 48 72 84q1 0 1 1q38 39 89.5 61.5t140.5 22.5h1q12 1 24 1q4 -1 7 -1h48h48h1v0q3 0 6 1q12 0 24 -1h2q88 0 140 -22.5t89 -61.5q1 -1 2 -1q42 -36 72 -84l2 -2l6 -9q50 -90 47 -193v-2v-9v-4v-104
q0 -35 -24.5 -59.5t-59.5 -24.5t-60 24.5t-25 59.5q0 2 1 5v1v110q0 82 -63.5 142.5t-155.5 63.5h-101zM539 1v0q16 0 32 1q167 -3 263 97q47 40 80 94l8 9q1 1 2 3q56 103 54 220v8v3v164v2q-3 55 -41 92t-92 37q-55 0 -94 -39t-39 -94v-6v-165q0 -63 -49.5 -109
t-120.5 -49h-101q-69 0 -120.5 47.5t-51.5 110.5v165v6q0 55 -39 94t-94 39q-54 0 -92 -37t-41 -92v-2v-1v-1v0v-162v-3v-8q-3 -117 54 -220q0 -1 1 -2t1 -2l7 -8q33 -54 81 -94q96 -100 262 -97q17 -1 32 -1q3 0 6 1h43h44q2 -1 5 -1zM539 50v0h-1h-48h-48h-0.5h-0.5h-6
h-24h-1v0q-89 1 -140.5 23t-89.5 62l-1 1q-43 35 -72 83q-1 2 -2 3l-7 8q-49 91 -47 194v2v9v4v159v0v0v1v1q2 35 26 59t59 24t59.5 -25t24.5 -60v-4v-1v-166q0 -84 65.5 -145.5t155.5 -61.5h102q91 4 154.5 64t63.5 143v166v1q-1 2 -1 4q0 35 25 60t60 25q34 0 58.5 -24
t25.5 -59v-1v-160v-4v-9v-2q3 -103 -47 -194l-6 -8q-1 -1 -2 -3q-30 -48 -72 -83q-1 -1 -2 -1q-37 -40 -89 -62t-140 -23v0h-2h-24h-6z" />
    <glyph glyph-name="one" unicode="1" horiz-adv-x="726" 
d="M393 0v0q55 0 94 39t39 94v1169q0 55 -39 94t-94 39h-0.5h-0.5h-258q-55 0 -94.5 -39.5t-39.5 -94.5q0 -56 39.5 -95t94.5 -39h126v-1034q0 -55 39 -94t94 -39zM134 1386v0h258v0h1q36 -1 60 -25.5t24 -58.5v-1169q0 -35 -24.5 -60t-59.5 -25t-60 25t-25 60v1058
q0 10 -7 17.5t-17 7.5h-150q-35 0 -60 25t-25 60t25 60t60 25z" />
    <glyph glyph-name="two" unicode="2" horiz-adv-x="1178" 
d="M134 3v0q55 0 94 39t39 94v451l270 1q201 0 324 124q116 124 114 300q3 118 -54 220l-2 4l-7 8q-33 54 -81 94q-96 100 -262 97q-16 1 -32 1q-3 0 -6 -1l-92 1q-6 0 -13 -1l-185 1h-108q-55 0 -94 -39t-39 -94t40 -95.5t95 -40.5l122 1h29h34h125.5h91.5
q66 0 111.5 -45.5t45.5 -112.5q0 -3 1 -6q-5 -65 -49 -107.5t-108 -42.5h-96.5h-129.5h-24h-30l-123 2q-55 0 -98 -45q-36 -40 -36 -91v-584q0 -55 39 -94t94 -39zM135 807v0l123 -1h30h33h125.5h91.5q85 0 143.5 58t61.5 146q1 4 -1 7q-4 87 -62 143.5t-143 56.5h-101.5
h-134.5h-15h-29l-123 -1q-34 0 -59.5 26t-25.5 61t24.5 60t59.5 25h107l187 -2h3q5 1 9 1h98v0q3 0 6 1q12 0 24 -1h1q89 -1 140.5 -23t89.5 -61q0 -1 1 -2q43 -35 72 -83q1 -2 2 -3l7 -8q49 -91 47 -194v-1q1 -156 -100 -266q-107 -109 -290 -109l-295 -2q-10 0 -17 -7
t-7 -17v-475q0 -35 -24.5 -59.5t-59.5 -24.5t-59.5 24.5t-24.5 59.5v584q0 33 22 58h1q28 29 62 29zM842 0v0q55 0 94 39.5t39 94.5t-39 94.5t-94 39.5h-258q-56 0 -95 -39.5t-39 -94.5t39 -94.5t95 -39.5h258zM584 219v0h258q35 0 60 -25t25 -60t-25 -60t-60 -25h-258
q-36 0 -61 25t-25 60t25 60t61 25z" />
    <glyph glyph-name="three" unicode="3" 
d="M850 905v0q53 0 94 39q39 40 40 95v258v1v0v0q0 55 -39 94t-93 39h-720q-55 0 -93.5 -39t-38.5 -94q0 -54 38.5 -93t93.5 -39h584v-127q0 -55 39.5 -94.5t94.5 -39.5zM132 1382v0h720q34 0 58 -24t25 -59v-1v-1v0v-258q0 -34 -25 -60q-26 -25 -60 -25q-35 0 -60 25
t-25 60v152q0 10 -7.5 17t-17.5 7h-608q-35 0 -59.5 24.5t-24.5 58.5q0 35 24.5 59.5t59.5 24.5zM852 -1v0q54 0 93 39t39 94v1v2v581v2v2q0 55 -39.5 94.5t-94.5 39.5h-258q-55 0 -94.5 -39.5t-39.5 -94.5t39.5 -94.5t94.5 -39.5h124v-322h-584q-55 0 -93.5 -39t-38.5 -93
q0 -55 38.5 -94t93.5 -39h720zM132 215v0h608q10 0 17 7t7 17v371q0 11 -7 18t-17 7h-148q-35 0 -60 25t-25 60t25 60t60 25h258q35 0 59.5 -24.5t25.5 -60.5v-1v-1v-2v-581v-1v-1v-1q0 -35 -24.5 -59.5t-58.5 -24.5h-720q-35 0 -59.5 24.5t-24.5 59.5q0 34 24.5 58.5
t59.5 24.5z" />
    <glyph glyph-name="four" unicode="4" horiz-adv-x="1175" 
d="M842 0v0q55 0 94 39t39 94v1169q0 55 -39 94t-94 39t-94 -39t-39 -94v-1169q0 -55 39 -94t94 -39zM842 1386v0q35 0 59.5 -24.5t24.5 -59.5v-1169q0 -35 -24.5 -60t-59.5 -25t-60 25t-25 60v1169q0 35 25 59.5t60 24.5zM538 579v0q56 0 95 39.5t39 94.5q0 56 -39 95.5
t-95 39.5h-272v454q0 55 -39 94t-94 39t-94 -39t-39 -94v-582v-3v0v-1v-3q0 -55 39 -94.5t95 -39.5h404zM133 1387v0q35 0 59.5 -25t24.5 -60v-479q0 -10 7.5 -17t17.5 -7h296q35 0 60.5 -25t25.5 -61q0 -35 -25.5 -60t-60.5 -25h-404q-35 0 -60 25t-25 60v2v1v1v1v2v582
q0 35 24.5 60t59.5 25z" />
    <glyph glyph-name="five" unicode="5" horiz-adv-x="1178" 
d="M537 -3v0q16 0 32 1q166 -2 262 98q48 40 81 93l7 9q1 2 2 3q57 103 54 220q2 176 -114 301q-123 123 -324 123l-270 2v451q0 55 -39 93.5t-94 38.5t-94 -38.5t-39 -93.5v-585q0 -51 36 -90q43 -45 99 -45l122 1h30h25q60 0 129 0.5t96 0.5q64 0 108 -43t49 -108
q-1 -3 -1 -6q0 -66 -45.5 -112t-111.5 -46h-111h-140h-29l-123 2q-54 0 -94 -40.5t-40 -96.5q0 -55 39 -94t94 -39l108 1l185 1q7 -1 13 -1h92q3 -1 6 -1zM134 218v0l123 -1h29h140h111q85 0 143 56.5t62 143.5q1 3 1 7q-3 88 -61.5 146t-143.5 58h-99h-131h-20h-30l-123 -1
q-35 0 -62 28q0 1 -1 1q-23 25 -23 57v585q0 35 25 59.5t60 24.5t59.5 -24.5t24.5 -59.5v-475q0 -10 7 -17t17 -7l295 -2q183 0 290 -109q101 -110 100 -266v-1q2 -104 -47 -194l-7 -9l-2 -2q-29 -48 -72 -83q-1 -1 -1 -2q-38 -39 -89.5 -61.5t-140.5 -22.5h-1
q-13 -1 -24 -1q-3 1 -6 1v0h-98h-9h-3l-186 -1h-108q-35 0 -59.5 24.5t-24.5 59.5q0 36 25 62t60 26zM584 1166v0h258q55 0 94 39t39 95q0 55 -39 94t-94 39h-258q-56 0 -95 -39t-39 -94q0 -56 39 -95t95 -39v0zM584 1385v0h258q35 0 60 -25t25 -60q0 -36 -25 -61t-60 -25
h-258q-36 0 -61 25t-25 61q0 35 25 60t61 25z" />
    <glyph glyph-name="six" unicode="6" horiz-adv-x="1177" 
d="M133 -3v0q7 0 16 1h91l186 1h13h91q3 -1 7 -1q15 0 31 1q167 -3 263 97q47 40 81 94l7 8l2 4q56 102 54 220q1 176 -114 300q-120 122 -324 124l-100 1q-5 1 -9 1q-55 0 -94.5 -39.5t-39.5 -94.5q0 -56 39.5 -95.5t94.5 -39.5q5 0 11 1h45h3h51q63 0 107.5 -42.5
t49.5 -107.5q-1 -3 -1 -6q0 -67 -45.5 -112.5t-111.5 -45.5h-111.5h-139.5h-20l1 448q0 125 60.5 227t163 163t226.5 61h36.5t45.5 -1h29.5h17.5h6q53 6 88 44t35 90q0 55 -38.5 93.5t-95.5 40.5h-30h-49h-45q-142 0 -272 -53.5t-232 -153.5q-205 -208 -213 -500v-2v-593
q0 -55 39 -94t94 -39zM48 720v0v2q5 185 95 334t241 238t333 89q18 0 42 1h3h49q23 0 29 -1h1v0q35 0 60.5 -25t25.5 -60q0 -33 -22.5 -57.5t-57.5 -27.5q-1 0 -2 -1q-12 0 -45 1h-3q-22 0 -45 0.5t-35 0.5q-137 0 -250.5 -67.5t-181 -181t-67.5 -251.5l-1 -472
q1 -10 7.5 -17t16.5 -7l45 -1h139.5h111.5q84 0 142.5 57t62.5 143q1 3 1 7q-3 88 -61.5 146t-143.5 58h-52h-2h-46h-2h-8q-35 0 -60.5 25t-25.5 61q0 35 25.5 60t60.5 25h6h1l102 -2q183 0 289 -109q102 -110 100 -266v-1q3 -103 -46 -194l-7 -8q-1 -1 -2 -3
q-29 -48 -72 -83q-1 -1 -2 -1q-37 -40 -88.5 -62t-140.5 -23h-1q-13 0 -24 -1q-3 1 -7 1h-97q-4 0 -9 1h-3v0l-187 -2h-93h-3q-6 -1 -11 -1q-35 0 -60 25t-25 60v590z" />
    <glyph glyph-name="seven" unicode="7" 
d="M851 -3v0q50 0 87.5 33t44.5 83q1 4 1 7v1179q0 55 -39 94t-94 39q-7 0 -14 -1h-704q-55 0 -94 -39t-39 -94t39 -93.5t94 -38.5h585v-1046q0 -3 1 -6q8 -51 45 -84t87 -33zM767 125v0v1065q0 10 -7 17t-17 7h-610q-35 0 -59.5 24.5t-24.5 59.5t24.5 59.5t59.5 24.5h706h2
q6 1 10 1q35 0 60 -24.5t25 -59.5v-1174q-1 -1 -1 -3q-3 -33 -27 -55t-57 -22q-32 0 -56 22t-28 55v3z" />
    <glyph glyph-name="eight" unicode="8" horiz-adv-x="1185" 
d="M441 592v0h6h91h7q15 0 31 1q167 -2 263 98q47 40 81 93l7 9q1 2 2 3q56 103 54 220q2 117 -54 220q-1 2 -2 3l-7 9q-34 54 -81 93q-96 101 -263 98q-16 1 -31 1h-7h-91q-3 1 -6 1q-16 0 -32 -1q-166 2 -262 -98q-48 -39 -81 -93l-7 -9q-1 -1 -2 -3q-57 -103 -54 -220
v-0.5v-0.5q-3 -118 54 -220l2 -4l7 -9q33 -53 81 -93q96 -100 262 -98h32zM98 821v0q-49 91 -47 194v0v0.5v0.5v0v2q-2 103 47 193l7 9l2 2q29 48 71 84q1 0 2 1q37 39 89 61.5t141 22.5l1 1h24h6v0h97q3 0 5 -1h2h30h1q89 -1 140.5 -23.5t88.5 -61.5q1 -1 2 -1
q43 -35 72 -83q1 -2 2 -3l7 -8q49 -91 46 -194v-2q3 -103 -46 -193l-7 -9l-2 -2q-29 -48 -72 -83l-2 -2q-37 -39 -88.5 -61.5t-140.5 -22.5h-1q-15 -1 -30 -1h-2h-5h-97q-3 0 -6 -1q-12 0 -24 1h-1q-89 1 -141 23t-89 61l-2 2q-42 35 -71 83q-1 1 -2 3zM545 812v0
q85 0 143.5 58t61.5 146v1q-3 87 -61.5 145.5t-143.5 58.5h-50.5h-73.5q-1 0 -2 -1q-80 -9 -131 -65.5t-53 -138.5q2 -81 53 -137.5t131 -66.5h2h73.5h50.5zM423 860v0q-61 8 -99.5 50.5t-39.5 105.5q1 63 39.5 105.5t99.5 50.5h122q65 0 109.5 -44.5t47.5 -111.5
q-3 -67 -47.5 -111.5t-109.5 -44.5h-122zM441 -1v0q3 0 6 1h91h7q15 0 31 1q167 -2 263 98q47 40 81 93l7 9q1 2 2 3q55 101 54 216v5q0 58 -41 99t-100 41q-57 0 -97.5 -40t-42.5 -99v-2q-3 -67 -47.5 -111.5t-109.5 -44.5h-122q-61 8 -99.5 50.5t-39.5 105.5v2
q-2 59 -42.5 99t-98.5 40t-99.5 -41t-41.5 -99v-6q-1 -115 55 -216q1 -1 2 -3l7 -9q33 -53 81 -93q96 -100 262 -98q16 -1 32 -1zM98 229v0q-48 89 -47 190v2v4q0 38 27 65t65 27t64.5 -26.5t27.5 -65.5v-0.5v-0.5v-2q3 -81 54 -137t130 -65h2h20h104q84 0 142.5 57
t62.5 144v3v1q1 39 27.5 65.5t64.5 26.5q39 0 66 -27t27 -65q0 -2 -1 -4v-1q2 -102 -46 -190l-7 -9l-2 -2q-29 -48 -72 -83l-2 -2q-37 -39 -88.5 -61.5t-140.5 -22.5h-1q-15 -1 -30 -1h-2h-5h-97q-3 0 -6 -1q-12 0 -24 1h-1q-89 0 -141 22.5t-89 61.5l-2 2q-42 35 -71 83
q-1 1 -2 3z" />
    <glyph glyph-name="nine" unicode="9" horiz-adv-x="1178" 
d="M167 0v0h44h4h2h43q143 0 272.5 53.5t232.5 153.5q205 208 213 500v2v593q0 55 -39 94t-94 39q-8 0 -16 -1h-92l-185 -1h-14h-91q-3 1 -6 1q-16 0 -32 -1q-166 3 -262 -97q-48 -40 -81 -94l-7 -9q-1 -1 -2 -3q-57 -103 -54 -220q-2 -176 113 -300q124 -124 324 -124
l100 -2h9q56 0 95.5 39.5t39.5 94.5q0 56 -39.5 95.5t-95.5 39.5q-5 0 -10 -1h-46h-23h-30q-64 0 -108.5 42.5t-48.5 107.5q1 3 1 6q0 67 45.5 112.5t111.5 45.5h110.5h140.5h20l-1 -448q0 -125 -61 -227t-163.5 -163t-226.5 -61h-31.5t-41.5 1h-9h-29h-17h-7
q-53 -6 -88 -44t-35 -90q0 -55 38.5 -94t95.5 -40h31zM133 220v0q12 0 44 -1h4q22 0 44.5 -0.5t34.5 -0.5q138 0 251 67.5t180.5 181t67.5 251.5l1 472q0 10 -7 17t-17 7l-44 1h-28h-128h-95q-85 0 -143 -57t-63 -143q-1 -4 -1 -7q3 -88 61.5 -146.5t144.5 -58.5h30t24 1h3
h43h2h7q36 0 61 -25t25 -61q0 -35 -25 -60t-61 -25h-6h-1l-101 2q-184 0 -290 109q-102 109 -100 265v2q-2 103 47 194l7 8q1 1 1 3q30 48 72 83q1 1 2 1q37 40 89 62t141 23h1h24h6v0h97q5 0 10 -1h3l186 1h93q2 0 4 1h11q35 0 59.5 -24.5t24.5 -59.5v-590v-2
q-4 -185 -94 -334t-241.5 -238.5t-333.5 -89.5h-40h-5h-8h-40h-30h-1q-35 0 -60 25.5t-25 60.5q0 33 22.5 57.5t56.5 27.5q1 0 3 1z" />
    <glyph glyph-name="colon" unicode=":" horiz-adv-x="465" 
d="M132 363v0q55 0 94 39t39 94t-39 94t-94 39t-93.5 -39t-38.5 -94t38.5 -94t93.5 -39zM132 580v0q35 0 59.5 -24.5t24.5 -59.5t-24.5 -59.5t-59.5 -24.5q-34 0 -59 24.5t-25 59.5t25 59.5t59 24.5zM132 807v0q55 0 94 39t39 94t-39 94t-94 39t-93.5 -39t-38.5 -94
t38.5 -94t93.5 -39zM132 1024v0q35 0 59.5 -24.5t24.5 -59.5t-24.5 -59.5t-59.5 -24.5q-34 0 -59 24.5t-25 59.5t25 59.5t59 24.5z" />
    <glyph glyph-name="semicolon" unicode=";" horiz-adv-x="468" 
d="M134 808v0q55 0 93.5 39t38.5 93q0 55 -38.5 94t-93.5 39t-94 -39t-39 -94q0 -54 39 -93t94 -39zM134 1026v0q35 0 59.5 -24.5t24.5 -59.5t-24.5 -59.5t-59.5 -24.5t-59.5 24.5t-24.5 59.5t24.5 59.5t59.5 24.5zM134 104v0q53 0 94 39q39 39 40 95v257q0 54 -36.5 92
t-90.5 42h-14q-55 -4 -91 -42t-36 -92v-257q0 -56 39 -95t95 -39zM134 582v0h4q35 -2 58 -26.5t23 -58.5v-258q0 -35 -25 -60q-26 -25 -60 -25q-35 0 -60 25t-25 60v258q0 34 23 58.5t57 26.5h5z" />
    <glyph glyph-name="semicolon" unicode="&#x37e;" horiz-adv-x="468" 
d="M134 808v0q55 0 93.5 39t38.5 93q0 55 -38.5 94t-93.5 39t-94 -39t-39 -94q0 -54 39 -93t94 -39zM134 1026v0q35 0 59.5 -24.5t24.5 -59.5t-24.5 -59.5t-59.5 -24.5t-59.5 24.5t-24.5 59.5t24.5 59.5t59.5 24.5zM134 104v0q53 0 94 39q39 39 40 95v257q0 54 -36.5 92
t-90.5 42h-14q-55 -4 -91 -42t-36 -92v-257q0 -56 39 -95t95 -39zM134 582v0h4q35 -2 58 -26.5t23 -58.5v-258q0 -35 -25 -60q-26 -25 -60 -25q-35 0 -60 25t-25 60v258q0 34 23 58.5t57 26.5h5z" />
    <glyph glyph-name="less" unicode="&#x3c;" horiz-adv-x="1056" 
d="M718 124v0q62 0 104 50q34 44 28 98q-7 55 -50 89l-454 359l454 358q43 35 50 89q6 54 -28 98q-42 51 -104 51q-45 0 -82 -29l-579 -457q-57 -44 -57 -110q0 -53 37 -94q2 -3 5 -5l3 -2q6 -6 12 -10l579 -457q36 -28 82 -28v0zM75 657v0l-1 1q-26 27 -26 62q0 42 38 71
l1 1l579 457q23 18 52 18q39 0 66 -32q22 -28 18 -62q-4 -35 -32 -57l-478 -377q-9 -8 -9 -19q0 -12 9 -19l478 -378q28 -22 32 -56q4 -35 -18 -63q-25 -31 -66 -32q-29 0 -52 18l-579 457l-1 1q-5 4 -9 7l-1 1z" />
    <glyph glyph-name="equal" unicode="=" 
d="M852 809v0q55 0 93.5 39t38.5 93q0 55 -38.5 94t-93.5 39h-720q-54 0 -93 -39t-39 -94q0 -54 39 -93t93 -39h720zM132 1025v0h720q35 0 59.5 -24.5t24.5 -59.5q0 -34 -24.5 -58.5t-59.5 -24.5h-720q-34 0 -58.5 24.5t-24.5 58.5q0 35 24.5 59.5t58.5 24.5zM852 366v0
q55 0 93.5 39t38.5 94q0 54 -38.5 93t-93.5 39h-720q-54 0 -93 -39t-39 -93q0 -55 39 -94t93 -39h720zM132 582v0h720q35 0 59.5 -24.5t24.5 -58.5q0 -35 -24.5 -59.5t-59.5 -24.5h-720q-34 0 -58.5 24.5t-24.5 59.5q0 34 24.5 58.5t58.5 24.5z" />
    <glyph glyph-name="greater" unicode="&#x3e;" horiz-adv-x="1056" 
d="M138 126v0q45 0 82 29l579 456q57 45 57 111q0 53 -37 93q-2 3 -5 6l-3 2q-6 5 -13 10l-578 456q-37 29 -82 29q-62 0 -105 -51q-33 -43 -27 -98q7 -54 49 -89l454 -358l-454 -358q-42 -35 -49 -89q-6 -55 27 -98q43 -51 105 -51v0zM138 1269v0q29 0 52 -18l579 -457
q1 0 1 -1q5 -3 9 -7q1 0 1 -1v0q1 -1 2 -1q26 -27 26 -62q0 -43 -38 -71q0 -1 -1 -1l-579 -457q-23 -18 -52 -18v0q-39 0 -67 32q-21 27 -17 62t31 57l479 377q9 8 9 19t-9 19l-479 378q-27 21 -31 56t17 62q28 32 67 32z" />
    <glyph glyph-name="question" unicode="?" horiz-adv-x="1178" 
d="M134 302v0q55 0 94 39t39 94v157l270 2q201 0 325 124q115 124 114 300q2 117 -54 220q-1 2 -3 3l-7 9q-33 54 -80 93q-96 100 -263 98q-16 1 -32 1q-3 0 -6 -1h-91q-7 0 -13 -1l-186 2h-107q-55 0 -94.5 -39t-39.5 -94q0 -56 40 -96t95 -40l123 1h30h5h137.5h106.5
q66 0 112 -46t46 -112v-6q-4 -65 -48.5 -107.5t-108.5 -42.5h-109.5h-139.5h-30l-123 1q-55 0 -99 -44q-35 -39 -36 -91v-3v-24.5t-0.5 -30t-0.5 -17.5v-216q0 -55 39.5 -94t94.5 -39zM136 813v0l122 -2h31h139.5h109.5q86 0 144.5 58.5t61.5 146.5q0 3 -1 7q-5 86 -63 143
t-143 57q-30 0 -109.5 -0.5t-139.5 -0.5h-31l-122 -1q-35 0 -60.5 26t-25.5 62q0 35 25 59.5t60 24.5h107l187 -1h2q5 1 10 1l97 -1v0q3 0 6 1q12 0 24 -1h1q89 0 141 -22.5t89 -61.5q1 -1 2 -1q42 -36 72 -84q1 -1 1 -2l7 -9q49 -90 47 -193v-2q2 -156 -100 -266
q-106 -108 -290 -108l-294 -2q-9 -1 -16 -7h-1q-8 -8 -8 -18v-181q0 -35 -24.5 -60t-59.5 -25t-60 25t-25 60v216v14.5t0.5 29t0.5 31.5q0 32 23 58v0v0q28 29 63 29zM134 0v0q55 0 94 39t39 94t-39 94.5t-94 39.5t-94.5 -39.5t-39.5 -94.5t39.5 -94t94.5 -39zM134 218v0
q35 0 60 -25t25 -60t-25 -60t-60 -25t-60 25t-25 60t25 60t60 25z" />
    <glyph glyph-name="at" unicode="@" horiz-adv-x="1635" 
d="M717 -1v0q198 0 361 97t260 260t97 361t-97 361t-260 260t-361 97q-197 0 -360 -97t-260 -260t-97 -361t97 -361t260 -260t360 -97zM717 1386v0q185 0 337 -90.5t242 -242.5t90 -336t-90 -336t-242 -242.5t-337 -90.5q-184 0 -336 90.5t-242.5 242.5t-90.5 336t90.5 336
t242.5 242.5t336 90.5zM717 217v0q138 0 251.5 67.5t181 181t67.5 251.5t-67.5 251.5t-181 181t-251.5 67.5q-137 0 -250.5 -67.5t-181 -181t-67.5 -251.5t67.5 -251.5t181 -181t250.5 -67.5zM717 1168v0q125 0 227.5 -61t163.5 -163.5t61 -226.5t-61 -226.5t-163.5 -163.5
t-227.5 -61q-124 0 -226.5 61t-163.5 163.5t-61 226.5t61 226.5t163.5 163.5t226.5 61zM934 447v0q35 0 60.5 23t30.5 57q1 3 1 6v363q0 38 -27 64.5t-64 26.5q-5 0 -11 -1h-55h-113h-9h-55h-5h-20q-105 1 -166 -62q-30 -25 -51 -59l-4 -5q-1 -2 -2 -3q-36 -65 -35 -140
q0 -111 73 -190q76 -78 205 -79l61 -1h6q34 0 59 22t31 55q6 -33 31 -55t59 -22zM892 538v0v2v288q0 10 -7 17t-17 7h-38h-32h-65h-46q-55 0 -93.5 -37t-41.5 -93q-1 -3 -1 -6q2 -58 40.5 -96.5t95.5 -38.5h18.5h13.5h29q1 0 2 1h4q17 0 30 -13t13 -30q0 -18 -13 -30.5
t-30 -12.5h-3h-2l-62 1q-108 0 -170 64q-60 64 -59 156v1q-1 60 27 113l4 5q1 1 1 2q18 28 42 49q1 1 2 1q22 23 52 36t82 13h1q7 1 14 1q2 -1 4 -1v0h60h5h3l114 1h57h3h6q17 0 29.5 -12t12.5 -30v-360v-1q-2 -17 -14 -28t-29 -11t-29.5 12t-12.5 30zM754 630v0h-7h-28
h-13.5h-18.5q-39 0 -62 25t-25 57v4q0 32 23 60t64 28h51t72 -1h20h14l-1 -245q-7 32 -31.5 52t-57.5 20z" />
    <glyph glyph-name="A" unicode="A" horiz-adv-x="1551" 
d="M1211 0v0q28 0 53 11q49 23 69 73q18 50 -3 99l-532 1170q-13 28 -38 49q-9 9 -20 15l-2 1q-4 2 -8 5v0q-1 0 -2 1q-1 0 -2 1q-5 2 -10 3q-1 1 -2 1q-38 12 -77 0l-6 -2l-2 -1q-1 0 -3 -1q-1 0 -2 -1q-2 -1 -5 -2l-1 -1l-4 -2q-3 -2 -5 -3q-4 -3 -7 -5l-1 -1l-8 -6
q-27 -21 -40 -51l-532 -1170q-21 -49 -3 -99q20 -50 69 -73q25 -11 53 -11q38 0 70 20.5t48 55.5l418 919l417 -919q36 -73 118 -76v0zM676 1078v0q-15 0 -23 -14l-439 -968q-26 -48 -74 -48q-17 0 -33 8q-31 14 -43 45t2 62l531 1170q9 19 27 33q0 1 1 1q2 2 5 4v0v0.5v0.5
q2 1 5 3q2 1 3 2h1v0l1 1q2 1 3 1v0v1h2l4 2v0q2 0 3 1q23 7 47 0q1 0 1 -1q4 -1 6 -2h1q1 -1 2 -1q3 -1 5 -3h0.5h0.5v0q7 -4 13 -10l1 -1q17 -13 25 -32l531 -1170q14 -31 2 -62t-42 -45q-17 -8 -34 -8v0q-51 2 -74 48l-439 968q-8 14 -22 14zM804 0v0q56 0 95 39t39 95
q0 55 -39 94t-95 39h-257q-56 0 -95 -39t-39 -94q0 -56 39 -95t95 -39h257zM547 219v0h257q36 0 61 -25t25 -60q0 -36 -25 -61t-61 -25h-257q-36 0 -61 25t-25 61q0 35 25 60t61 25z" />
    <glyph glyph-name="B" unicode="B" horiz-adv-x="1374" 
d="M733 2v0q201 0 324 124q115 124 114 300q3 121 -57 226q-64 109 -182 160q44 93 42 195q1 176 -114 301q-124 123 -324 123l-296 2h-107q-55 0 -94 -39t-39 -94t39.5 -95.5t94.5 -40.5l123 1h13h89t105 0.5t72 0.5q66 0 112 -46t46 -113q0 -61 -39.5 -105t-99.5 -52h-117
q-55 0 -93.5 -39t-38.5 -94t38.5 -94t93.5 -39h91q3 -1 6 -1q16 0 32 1h99h68q66 0 111.5 -45.5t45.5 -112.5q0 -66 -45.5 -112t-111.5 -46h-67.5h-97h-88h-43.5v0q-55 0 -93.5 -39t-38.5 -94t38.5 -94t93.5 -39h295zM438 220v0h37.5h89.5h100h69q86 0 145.5 59.5
t59.5 146.5t-59.5 147t-145.5 60h-68.5h-98.5h-2q-12 -1 -24 -1q-3 1 -6 1v0h-97q-35 0 -59.5 24.5t-24.5 59.5t24.5 60t59.5 25h118h2q80 9 132 67t52 138q0 87 -59.5 147t-146.5 60h-106h-137h-23l-136 -1q-35 0 -60.5 26t-25.5 61t25 60t60 25h107l295 -2q184 0 290 -109
q102 -110 100 -266v-1q3 -105 -48 -196q-5 -10 -1 -20q4 -11 14 -15q132 -51 184.5 -152t47.5 -197v-2q2 -155 -100 -265q-106 -109 -289 -109h-295q-35 0 -59.5 24.5t-24.5 59.5t24.5 60t59.5 25zM133 0v0q55 0 94 39t39 94v585q0 54 -39 93t-94 39t-94 -39t-39 -93v-585
q0 -55 39 -94t94 -39zM133 802v0q35 0 60 -25t25 -59v-585q0 -35 -25 -59.5t-60 -24.5q-34 0 -59 24.5t-25 59.5v585q0 34 25 59t59 25z" />
    <glyph glyph-name="C" unicode="C" horiz-adv-x="1404" 
d="M718 1v0q230 0 423 137q10 7 19 15v0v0h1q43 43 43 99q0 55 -39.5 94.5t-94.5 39.5q-45 0 -82 -28q-122 -91 -270 -91q-124 0 -226.5 61t-163.5 163.5t-61 226.5t61 226.5t163.5 163.5t226.5 61q145 0 267 -87q38 -31 85 -31q55 0 94.5 39t39.5 94q0 68 -60 112
q-194 140 -426 140q-198 0 -361 -97t-260 -260t-97 -361t97 -361t260 -259.5t361 -96.5zM718 1387v0q217 0 398 -131h1q38 -29 38 -72q0 -35 -25 -60t-60 -25q-30 0 -55 20q0 1 -1 1q-135 97 -296 97q-138 0 -251 -67t-180.5 -180.5t-67.5 -251.5q0 -137 67.5 -250.5
t180.5 -181t251 -67.5q164 0 300 100q24 18 52 18q35 0 60 -25t25 -60q0 -36 -27 -63v0v0q-6 -6 -13 -10q-1 0 -2 -1q-180 -129 -395 -129q-184 0 -336 90.5t-242.5 242.5t-90.5 336q0 185 90.5 336.5t242.5 242t336 90.5z" />
    <glyph glyph-name="D" unicode="D" horiz-adv-x="1382" 
d="M465 0v0q17 0 34 1h10q13 0 26 2q272 30 459 231q188 214 188 484q0 197 -97 360t-260 260t-360 97q-113 0 -208.5 0.5t-105.5 0.5v0q-3 0 -5 -1h-13q-55 0 -94 -38.5t-39 -93.5t39 -93.5t94 -38.5h332q124 0 226.5 -61.5t163 -164t60.5 -227.5t-60.5 -227t-163 -163
t-226.5 -61q-41 0 -95 -0.5t-104 -0.5v454q0 55 -39 94t-94 39t-94 -39t-39 -94v-584v-2v-1q0 -55 39 -93.5t94 -38.5h18h1q17 0 111 -0.5t202 -0.5zM133 804v0q35 0 60 -24.5t25 -59.5v-478q0 -10 7 -18q7 -7 17 -7q53 1 115 1h108q137 0 250.5 67.5t181 181t67.5 251.5
t-67.5 252t-181 181.5t-250.5 67.5h-332q-35 0 -59.5 24.5t-24.5 59.5t24.5 59.5t58.5 24.5h19q2 -1 5 0h116h193q184 0 336 -90.5t242.5 -242.5t90.5 -336q0 -174 -79.5 -319t-215.5 -237t-310 -110q-1 -1 -3 -1q-8 -2 -17 -2h-10h-1h-33h-205.5h-108.5v0h-18q-35 0 -59 24
t-25 60v1v1v585q0 35 24.5 59.5t59.5 24.5z" />
    <glyph glyph-name="E" unicode="E" 
d="M852 1168v0q55 0 93.5 38.5t38.5 93.5q0 54 -38.5 93t-93.5 39h-720q-54 0 -93 -39t-39 -93q0 -55 39 -93.5t93 -38.5h720zM132 1383v0h720q35 0 59.5 -24.5t24.5 -58.5q0 -35 -24.5 -59.5t-59.5 -24.5h-720q-34 0 -58.5 24.5t-24.5 59.5q0 34 24.5 58.5t58.5 24.5z
M852 1v0q55 0 93.5 38.5t38.5 93.5t-38.5 93.5t-93.5 38.5h-584v323h124q55 0 94.5 39t39.5 94q0 56 -39.5 95t-94.5 39h-258q-55 0 -94.5 -39t-39.5 -95v-1v-2v-582v-1v-2q0 -55 39 -93.5t93 -38.5h720zM134 807v0h258q35 0 60 -25t25 -61q0 -35 -25 -60t-60 -25h-148
q-10 0 -17 -7t-7 -17v-371q0 -10 7 -17t17 -7h608q35 0 59.5 -25t24.5 -59q0 -35 -24.5 -59.5t-59.5 -24.5h-720q-34 0 -58 24t-25 60v1v1v1v582v1v1v1q0 36 25 61t60 25z" />
    <glyph glyph-name="F" unicode="F" 
d="M852 1168v0q54 0 93 38.5t39 93.5q0 54 -39 93t-93 39h-720q-55 0 -93.5 -39t-38.5 -93q0 -55 38.5 -93.5t93.5 -38.5h720zM132 1383v0h720q34 0 58.5 -24.5t24.5 -58.5q0 -35 -24.5 -59.5t-58.5 -24.5h-720q-35 0 -59.5 24.5t-24.5 59.5q0 34 24.5 58.5t59.5 24.5z
M133 -1v0q55 0 94 39t39 94v456h125q56 0 95 39t39 94q0 56 -39 95t-95 39h-257q-56 0 -95 -39t-39 -95v-3v-4v-582q0 -55 39 -94t94 -39zM134 807v0h257q36 0 61 -25t25 -61q0 -35 -25 -60t-61 -25h-149q-10 0 -17.5 -7t-7.5 -17v-480q0 -35 -24.5 -59.5t-59.5 -24.5
t-60 24.5t-25 59.5v582v2l1 1v2h-1v2q0 36 25 61t61 25z" />
    <glyph glyph-name="G" unicode="G" horiz-adv-x="1634" 
d="M1301 -1v0q55 0 94 39t39 94v582v3v4v1v0.5v0.5q0 56 -40 95.5t-96 39.5h-252q-64 0 -109 -54q-28 -37 -28 -83q0 -55 39 -94.5t94 -39.5h126v-455q0 -55 39 -94t94 -39zM1046 810v0h252q36 0 61.5 -25.5t25.5 -61.5v-0.5v-0.5v-1v-2v-1v-1v-1v0v-2v-582q0 -35 -24.5 -60
t-59.5 -25t-60 25t-25 60v480q0 10 -7 17t-17 7h-150q-35 0 -60 25t-25 60q0 29 18 53h1v1q28 35 70 35zM718 0v0q3 0 6 1q53 4 88.5 41.5t35.5 90.5q0 51 -34 88.5t-86 42.5q-5 3 -10 3q-125 0 -227 61t-163 163t-61 227q0 124 61 226.5t163 163t227 60.5q144 0 266 -87
q39 -31 86 -31q55 0 94 39.5t39 94.5q0 67 -59 111q-194 140 -426 140q-198 0 -361 -97t-260 -259.5t-97 -360.5t97 -361t260 -260t361 -97zM718 1387v0q216 0 397 -131l1 -1q39 -28 39 -71q0 -35 -25 -60t-60 -25q-31 0 -55 20q-1 0 -2 1q-134 97 -295 97
q-138 0 -251.5 -67.5t-181 -181t-67.5 -250.5q0 -136 66 -248.5t176.5 -179.5t247.5 -71q4 -2 9 -3q35 -1 59 -25t24 -58t-24 -58t-59 -26h-5q-185 3 -334.5 92.5t-239.5 241t-90 335.5t90.5 336t242.5 242.5t337 90.5z" />
    <glyph glyph-name="H" unicode="H" horiz-adv-x="1175" 
d="M842 1442v0q55 0 94 -39t39 -94v-1178q0 -55 -39 -94t-94 -39t-94 39t-39 94v1178q0 55 39 94t94 39zM927 131v0v1178q0 34 -25 59t-60 25t-59.5 -25t-24.5 -59v-1178q0 -35 24.5 -59.5t59.5 -24.5t60 24.5t25 59.5zM392 856v0q55 0 94 -39.5t39 -94.5t-39 -94.5
t-94 -39.5h-126v-457q0 -55 -39 -94t-94 -39t-94 39t-39 94v1178q0 55 39 94t94 39t94 -39t39 -94v-453h126zM392 637v0q35 0 60 25t25 60t-25 60t-60 25h-150q-11 0 -18 7.5t-7 17.5v477q0 34 -24.5 59t-59.5 25t-60 -25t-25 -59v-1178q0 -35 25 -59.5t60 -24.5t59.5 24.5
t24.5 59.5v482q0 10 7 17t18 7h150z" />
    <glyph glyph-name="I" unicode="I" horiz-adv-x="466" 
d="M133 1v0q55 0 94 39t39 94v1178q0 55 -39 94t-94 39t-94 -39t-39 -94v-1178q0 -55 39 -94t94 -39zM133 1396v0q35 0 59.5 -24.5t24.5 -59.5v-1178q0 -35 -24.5 -59.5t-59.5 -24.5t-60 24.5t-25 59.5v1178q0 35 25 59.5t60 24.5z" />
    <glyph glyph-name="J" unicode="J" 
d="M852 -1v0q55 0 93.5 39t38.5 94v0v0v1178q0 55 -38.5 94t-93.5 39t-94 -39t-39 -94v-1046h-586q-55 0 -94 -38.5t-39 -93.5t39 -94t94 -39h719zM133 216v0h610q10 0 17 7t7 17v1070q0 34 25 59t60 25q34 0 59 -25t25 -59v-1178v0v-1q-1 -35 -25 -59t-59 -24h-719
q-35 0 -59.5 24.5t-24.5 59.5q0 34 24.5 59t59.5 25z" />
    <glyph glyph-name="K" unicode="K" horiz-adv-x="1196" 
d="M133 0v0q55 0 94 39t39 94v1178q0 55 -39 94t-94 39t-94 -39t-39 -94v-1178q0 -55 39 -94t94 -39zM133 1395v0q35 0 59.5 -24.5t24.5 -59.5v-1178q0 -35 -24.5 -59.5t-59.5 -24.5t-60 24.5t-25 59.5v1178q0 35 25 59.5t60 24.5zM699 973v0q62 0 106 51l158 204
q33 44 27 98q-7 55 -51 89q-37 29 -82 29q-62 0 -105 -52l-159 -203q-33 -46 -26.5 -99t50.5 -89q37 -28 82 -28v0zM857 1395v0q29 0 53 -18q27 -22 32 -57q4 -35 -17 -62l-159 -204q-26 -32 -67 -33q-29 0 -52 18q-28 23 -32.5 57t17.5 63l158 203q28 33 67 33zM855 0v0
q45 0 84 30q44 35 51 91q6 56 -28 101l-460 580q-44 51 -107 51q-47 0 -85 -29q-44 -37 -50.5 -91.5t28.5 -100.5l459 -580q45 -52 108 -52v0zM395 805v0q41 0 69 -34l460 -580q22 -28 18 -64q-5 -36 -33 -59q-24 -19 -54 -19q-41 0 -70 33l-459 580q-22 30 -18 65t32 59
q25 19 55 19z" />
    <glyph glyph-name="L" unicode="L" 
d="M851 -1v0q55 0 94 39t39 93q0 55 -39 94t-94 39h-585v1045q0 55 -39 94t-94 39t-94 -39t-39 -94v-1177v0v-1q0 -54 39 -93t93 -39h719zM48 131v0v1v0v1177q0 35 25 60t60 25t59.5 -25t24.5 -60v-1069q0 -10 7 -17.5t17 -7.5h610q35 0 59.5 -24.5t24.5 -59.5
q0 -34 -24.5 -59t-59.5 -25h-719q-34 0 -58.5 24.5t-25.5 59.5z" />
    <glyph glyph-name="M" unicode="M" horiz-adv-x="2251" 
d="M1212 -1v0q27 0 53 12q48 22 68 72q18 50 -3 100l-162 355l207 457l418 -919q36 -73 118 -77v0q28 0 53 12q49 22 69 72q18 50 -3 100l-532 1169q-13 29 -38 50q-9 9 -20 15l-2 1l-8 4v0q-1 1 -2 1q-1 1 -2 1l-10 4h-2q-38 13 -77 1q-3 -1 -6 -3h-2q-1 -1 -3 -1
q-1 -1 -2 -1q-3 -1 -5 -3l-1 -1q-2 0 -4 -1q-3 -2 -5 -4q-4 -2 -7 -5h-1l-8 -6q-27 -22 -40 -52l-227 -500l-227 500q-14 29 -39 50q-9 9 -20 15l-1 1q-4 2 -9 4v0q-1 1 -2 1q-1 1 -2 1q-4 2 -10 4h-1q-39 13 -77 1q-3 -1 -6 -3h-2q-2 -1 -3 -1q-2 -1 -3 -1q-2 -1 -4 -3
l-2 -1q-2 0 -4 -1q-2 -2 -5 -4q-4 -2 -7 -5h-1l-8 -6q-26 -22 -40 -52l-531 -1169q-22 -50 -3 -100t68 -72q25 -12 53 -12q38 0 70 21t49 56l417 919l417 -919q16 -35 48 -56t71 -21zM1375 1078v0q-14 0 -22 -15l-233 -515q-5 -10 0 -20l166 -365q13 -31 1 -63
q-12 -31 -42 -45q-16 -7 -33 -7q-48 0 -75 48l-439 967q-8 15 -22 15t-22 -15l-440 -967q-26 -48 -74 -48q-17 0 -33 7q-31 14 -43 45q-11 32 2 63l531 1169q9 20 27 34l1 1q2 2 5 4v0q2 2 5 3q2 1 3 2l1 1h1l1 1q1 0 2 1v0h1v0l1 1l4 1h1q1 1 2 1q24 8 47 0h2l6 -2v-1h2
q3 -2 6 -3v-0.5v-0.5v0q7 -4 13 -9l1 -1q17 -14 25 -33l250 -548q7 -15 22 -15q14 0 22 15l249 548q9 20 27 34l1 1l4 4h1q2 2 5 3q1 1 3 2q0 1 1 1v0l1 1q2 0 3 1v0q1 0 2 1l4 1v0q1 1 3 1q23 8 47 0h1q4 -1 6 -2v0q1 0 1 -1h2q3 -2 5 -3l0.5 -0.5l0.5 -0.5v0q7 -4 13 -9
q0 -1 1 -1q16 -14 25 -33l531 -1169q14 -31 2 -63q-12 -31 -43 -45q-16 -7 -33 -7v0q-51 2 -74 48l-439 967q-8 15 -23 15z" />
    <glyph glyph-name="N" unicode="N" horiz-adv-x="1299" 
d="M966 -2v0q55 0 94 39t39 94v1177q0 55 -39 94t-94 39t-94 -39t-39 -94v-1177q0 -55 39 -94t94 -39zM966 1393v0q35 0 59.5 -25t24.5 -60v-1177q0 -35 -24.5 -60t-59.5 -25t-60 25t-25 60v1177q0 35 25 60t60 25zM133 -2v0q55 0 94 39t39 94v856l186 -186q41 -39 94 -39v0
q53 0 94 39q38 39 39 94q0 55 -39 94l-413 413v0v0v0v1h-1l-8 8q-1 1 -2 1l-1 1q-4 3 -8 5l-2 2l-1 1q-4 2 -7 4q-3 1 -5 2q-3 2 -7 4q-2 1 -4 1q-4 2 -9 3q-1 1 -3 1q-5 2 -9 2q-2 1 -3 1v0q-6 1 -11 1l-1 1h-12q-56 -1 -94.5 -39.5t-38.5 -93.5v-1177q0 -55 39 -94t94 -39
zM133 1393v0q3 0 8 -1h1q3 0 6 -1h2l6 -2h1h1q3 -1 5 -2h1q1 -1 2 -1q2 -1 5 -2v-1q1 0 2 -1q3 -1 5 -2l1 -1v0q1 0 1 -1q3 -2 5 -3l2 -2q3 -2 6 -5v0v0l413 -413q24 -25 25 -60q-1 -35 -25 -59q-26 -25 -60 -25v0q-35 0 -59 24l-228 228q-12 10 -26 5q-15 -8 -15 -22v-915
q0 -35 -25 -60t-60 -25t-59.5 25t-24.5 60v1177q0 35 24.5 60t59.5 25z" />
    <glyph glyph-name="O" unicode="O" horiz-adv-x="1635" 
d="M718 -1v0q198 0 360.5 97t259.5 260t97 361t-97 360.5t-259.5 259.5t-360.5 97t-361 -97t-260 -259.5t-97 -360.5t97 -361t260 -260t361 -97zM718 1386v0q184 0 336 -90.5t242.5 -242.5t90.5 -336q0 -185 -90.5 -336.5t-242.5 -242t-336 -90.5q-185 0 -337 90.5t-242 242
t-90 336.5q0 184 90 336t242 242.5t337 90.5zM718 217v0q137 0 250.5 67.5t181.5 181t68 251.5t-68 251.5t-181.5 181t-250.5 67.5q-138 0 -251.5 -67.5t-181 -181t-67.5 -251.5t67.5 -251.5t181 -181t251.5 -67.5zM718 1168v0q124 0 226.5 -61t163.5 -163.5t61 -226.5
q0 -125 -61 -227.5t-163.5 -163.5t-226.5 -61q-125 0 -227.5 61t-163.5 163.5t-61 227.5q0 124 61 226.5t163.5 163.5t227.5 61z" />
    <glyph glyph-name="P" unicode="P" horiz-adv-x="1177" 
d="M134 -1v0q55 0 94 39t39 94v450l270 2q201 0 324 124q115 124 114 300q2 117 -54 220q-1 2 -2 3l-7 9q-34 54 -81 94q-96 100 -262 97q-17 1 -32 1q-4 0 -7 -1h-91h-13l-186 1h-107q-55 0 -94 -39t-39 -94t40 -95.5t94 -40.5l123 1h30h27h128h95q66 0 111.5 -45.5
t45.5 -112.5q0 -3 1 -6q-5 -65 -49.5 -107.5t-107.5 -42.5h-111.5h-139.5h-29l-123 1q-55 0 -98 -44q-36 -40 -36 -91v-584q0 -55 39 -94t94 -39zM135 803v0l123 -1h29h10q61 0 136.5 -0.5t104.5 -0.5q85 0 143.5 58.5t61.5 146.5q0 3 -1 7q-4 86 -62.5 143t-142.5 57h-110
h-140h-30l-123 -2q-35 0 -60.5 26t-25.5 62q0 35 25 60t60 25l107 -1l187 -1h3q5 1 9 1h98v0h6h24h1q89 -1 140.5 -23t89.5 -62l1 -1q43 -35 72 -83q1 -2 2 -3l7 -8q49 -91 46 -194v-2q2 -156 -100 -265q-106 -109 -290 -109l-294 -2q-10 -1 -17 -7.5t-7 -16.5v-475
q0 -35 -24.5 -59.5t-59.5 -24.5t-60 24.5t-25 59.5v584q0 32 23 58h1q27 29 62 29z" />
    <glyph glyph-name="Q" unicode="Q" horiz-adv-x="1635" 
d="M1306 -2v0q51 0 90 38q39 43 39 94t-39 94l-87 87q126 187 126 407q0 198 -97 361t-259.5 260t-360.5 97t-361 -97t-260 -260t-97 -361t97 -361t260 -259.5t361 -96.5q3 0 7 1q53 3 89 41t36 91t-36.5 91t-90.5 41q-3 1 -5 1q-125 0 -227.5 61t-163.5 163.5t-61 226.5
q0 125 61 227t163.5 163t227.5 61q124 0 226.5 -61t163.5 -163t61 -227q0 -120 -57 -221.5t-160 -164.5q-10 -6 -12 -18q-1 -4 0 -7.5t4.5 -9t13 -15.5t26 -26t42.5 -42q29 -27 51.5 -49t27.5 -27h1l91 -91q51 -49 109 -49v0zM1002 307v0q209 150 216 411q0 138 -68 251.5
t-181 181t-251 67.5t-251.5 -67.5t-181 -181t-67.5 -251.5q0 -137 67 -250t178.5 -180t249.5 -70h5q34 0 59 -24.5t25 -59.5t-25 -59.5t-59 -24.5q-3 0 -6 -1q-186 4 -335 93.5t-238.5 241t-89.5 334.5q0 185 90 336.5t242 242t337 90.5q184 0 336 -90.5t242.5 -242
t90.5 -336.5q0 -215 -129 -395q-6 -7 -5 -16t7 -15l102 -102q25 -28 25 -60.5t-25 -59.5q-24 -24 -56 -24q-39 0 -75 35l-91 91v0l-1 1q-40 38 -77.5 74.5t-59.5 59.5z" />
    <glyph glyph-name="R" unicode="R" horiz-adv-x="1177" 
d="M134 0v0q55 0 94 39t39 94v451l270 1q201 0 324 124q115 124 114 300q2 118 -54 220l-2 4l-7 8q-34 54 -81 94q-96 100 -262 97q-17 1 -32 1q-4 0 -7 -1l-91 1q-6 0 -13 -1l-186 1h-107q-55 0 -94 -39t-39 -94t40 -95.5t94 -40.5l123 1h30h24h129.5h96.5
q66 0 111.5 -45.5t45.5 -112.5q0 -3 1 -6q-5 -65 -49.5 -107.5t-107.5 -42.5h-111.5h-139.5h-29l-123 2q-55 0 -98 -45q-36 -40 -36 -91v-584q0 -55 39 -94t94 -39zM135 804v0l123 -1h29h139.5h111.5q85 0 143.5 58t61.5 146q0 4 -1 7q-4 87 -62.5 143.5t-142.5 56.5h-93.5
h-126.5h-30h-30l-123 -1q-35 0 -60.5 26t-25.5 61t25 60t60 25h107l187 -2h3q5 1 9 1h98q3 0 6 1q12 0 24 -1h1q89 -1 140.5 -23t89.5 -61q0 -1 1 -2q43 -35 72 -83q1 -2 2 -3l7 -8q49 -91 46 -194v-1q2 -156 -100 -266q-106 -109 -290 -109l-294 -2q-10 0 -17 -7t-7 -17
v-475q0 -35 -24.5 -59.5t-59.5 -24.5t-60 24.5t-25 59.5v584q0 33 23 58v0h1q27 29 62 29zM841 4v0q53 0 94 39q39 44 39 95t-39 95l-182 182q-41 39 -95 39q-53 0 -94 -39q-39 -43 -39 -94.5t39 -94.5l182 -183q41 -39 95 -39zM658 406v0q34 0 61 -25l182 -183
q25 -26 25 -60t-25 -60q-26 -25 -60 -25t-61 25l-182 182q-25 26 -25 60t25 61q26 25 60 25z" />
    <glyph glyph-name="S" unicode="S" horiz-adv-x="1177" 
d="M843 -1v0q55 0 94 39t39 94v584q0 51 -36 91q-43 44 -98 44l-123 -1h-31h-10h-135h-103q-64 0 -108.5 42.5t-48.5 107.5v6q0 67 45.5 112.5t111.5 45.5h107.5h137.5h4h31l123 -1q54 0 94 40.5t40 95.5t-39 94t-94 39h-107l-186 -1h-13h-91q-3 1 -7 1q-15 0 -31 -1
q-167 3 -263 -97q-47 -40 -81 -94l-7 -8l-2 -4q-56 -102 -54 -220q-1 -176 114 -300q124 -124 324 -124l270 -1v-451q0 -55 39 -94t94 -39zM97 1203v0l7 8q1 1 2 3q29 48 72 83q1 1 2 1q37 40 88.5 62t140.5 23h1q13 0 24 1q3 -1 6 -1h1h97q4 0 9 -1h3l187 1l107 1
q35 0 60 -25t25 -60t-25.5 -61.5t-60.5 -26.5l-123 2h-31h-15h-133.5h-100.5q-84 0 -142.5 -57t-62.5 -143q-1 -3 -1 -7q3 -88 61.5 -146t144.5 -58h109h139h32l122 1q35 0 63 -29v0v0q23 -25 23 -58v-584q0 -35 -25 -59.5t-60 -24.5t-59.5 24.5t-24.5 59.5v475q0 10 -7 17
t-17 7l-295 2q-183 0 -289 109q-102 110 -100 265v2q-3 103 46 194zM394 -4v0q55 0 94 39.5t39 94.5t-39 94.5t-94 39.5h-258v0q-54 0 -95 -39q-39 -41 -39 -95q0 -55 39 -94.5t95 -39.5h258zM136 215v0v0h258q35 0 60 -25t25 -60t-25 -60t-60 -25h-258q-36 0 -61 25t-25 60
q0 34 25 60q27 25 61 25z" />
    <glyph glyph-name="T" unicode="T" 
d="M852 1170v0q54 0 93 39t39 94q0 54 -39 93t-93 39h-720q-55 0 -93.5 -39t-38.5 -93q0 -55 38.5 -94t93.5 -39h720zM132 1386v0h720q34 0 58.5 -24.5t24.5 -58.5q0 -35 -24.5 -59.5t-58.5 -24.5h-720q-35 0 -59.5 24.5t-24.5 59.5q0 34 24.5 58.5t59.5 24.5zM492 -1v0
q55 0 94 38.5t39 93.5v585q0 55 -39 93.5t-94 38.5t-94 -38.5t-39 -93.5v-585q0 -55 39 -93.5t94 -38.5zM492 800v0q35 0 59.5 -24.5t24.5 -59.5v-585q0 -35 -24.5 -59.5t-59.5 -24.5t-60 24.5t-25 59.5v585q0 35 25 59.5t60 24.5z" />
    <glyph glyph-name="U" unicode="U" horiz-adv-x="1185" 
d="M852 0v0q55 0 94 39t39 94v1178q0 55 -39 94t-94 39t-94 -39t-39 -94v-1045h-56q-55 0 -94 -39t-39 -94t39 -94t94 -39h189zM663 218v0h81q10 0 17 7t7 17v1069q0 35 24.5 59.5t59.5 24.5t60 -24.5t25 -59.5v-1178q0 -35 -25 -59.5t-60 -24.5h-189q-35 0 -59.5 24.5
t-24.5 59.5t24.5 60t59.5 25zM322 0v0q55 0 94 39t39 94t-39 94t-94 39h-56v1045q0 55 -39 94t-94 39t-94 -39t-39 -94v-1178q0 -55 39 -94t94 -39h189zM133 1395v0q35 0 59.5 -24.5t24.5 -59.5v-1069q0 -10 7 -17t18 -7h80q35 0 60 -25t25 -60t-25 -59.5t-60 -24.5h-189
q-35 0 -60 24.5t-25 59.5v1178q0 35 25 59.5t60 24.5z" />
    <glyph glyph-name="V" unicode="V" horiz-adv-x="1551" 
d="M675 1v0q20 0 39 6h2q5 2 9 4q1 0 2 1v0q1 0 3 1q4 2 8 5h1q11 7 21 15q25 21 38 50l531 1170q22 49 3 99t-68 72q-26 12 -53 12q-38 0 -70 -20.5t-49 -56.5l-417 -918l-417 918q-16 36 -48 56.5t-71 20.5q-27 0 -53 -12q-48 -22 -68 -72q-18 -50 3 -99l531 -1170
q14 -30 41 -51q3 -4 7 -7h1v0v0q4 -3 7 -5t6 -3q2 -1 3 -2l2 -1l4 -2t3 -1q1 -1 3 -1l2 -1l6 -2q19 -6 38 -6zM643 56v0v0q-1 0 -1 1q-1 0 -2 1h-1l-1 1v0l-4 2q-2 2 -4 3h-1v0v0v1q-2 1 -5 4h-1q-17 14 -26 34l-532 1170q-13 30 -2 62q13 31 43 45q16 7 33 7q48 0 75 -48
l439 -967q8 -14 22 -14t22 14l440 967q26 48 74 48q17 0 33 -7q31 -14 43 -45q11 -32 -2 -62l-531 -1170q-9 -19 -26 -33h-1q-5 -6 -13 -10v0v0v0v0q-3 -2 -6 -3q0 -1 -1 -1h-1v0q-3 -1 -6 -3h-1q-24 -7 -48 0q-1 0 -2 1h-1l-4 2h-1z" />
    <glyph glyph-name="W" unicode="W" horiz-adv-x="2250" 
d="M1375 -2v0q20 0 39 6q1 0 1 1q5 1 10 3q1 1 2 1v0q1 1 2 1q5 2 9 5l1 1q11 6 20 15q26 20 39 49l531 1170q21 49 3 99q-20 50 -68 73q-26 11 -53 11q-39 0 -71 -20.5t-48 -55.5l-417 -919l-207 456l161 356q22 49 3 99t-68 73q-25 11 -53 11q-38 0 -70 -20.5t-49 -55.5
l-417 -919l-417 919q-16 35 -48 55.5t-71 20.5q-27 0 -53 -11q-48 -23 -68 -73q-18 -50 3 -99l531 -1170q14 -30 41 -51q4 -3 7 -6q1 0 1 -1v0v0q4 -2 7 -5q3 -1 6 -3q2 -1 3 -2l2 -1l4 -2t3 -1q1 -1 3 -1l2 -1l6 -2q39 -12 77 0q1 0 2 1q5 1 9 3q1 1 2 1v0q1 1 3 1q4 2 8 5
l2 1q10 6 20 15q25 20 38 49l227 500l227 -500q14 -30 40 -51l8 -6l1 -1v0v0q3 -2 7 -5q3 -1 6 -3q1 -1 3 -2l2 -1l4 -2q1 -1 3 -1q1 -1 2 -1l3 -1l6 -2q18 -6 38 -6zM1343 53v0q0 1 -1 1v0q-1 0 -2 1h-1q0 1 -1 1h-1q-1 1 -3 2q-2 2 -5 3v0.5v0.5v0v0q-3 2 -5 4q-1 0 -1 1
q-18 14 -27 33l-249 549q-8 14 -22 14t-22 -14l-249 -549q-9 -19 -25 -32l-1 -1q-6 -5 -14 -10v0v0v0v0q-3 -2 -6 -3l-1 -1h-1q-2 -1 -6 -2q0 -1 -1 -1q-24 -7 -48 0q-1 1 -2 1h-1l-3 2h-2v1h-1v0q-1 0 -2 1h-1v1h-1l-4 2q-2 2 -4 3v1h-1v0q-2 2 -5 4l-1 1q-17 14 -26 33
l-532 1170q-13 31 -1 62t42 45q16 8 33 8q48 0 75 -48l439 -968q8 -14 22 -14t22 14l440 968q26 48 74 48q17 0 33 -8q31 -14 43 -45q11 -31 -2 -62l-166 -366q-4 -10 0 -20l234 -515q8 -14 22 -14t22 14l439 968q27 48 75 48q17 0 33 -8q30 -14 43 -45q11 -31 -2 -62
l-532 -1170q-8 -19 -25 -32q0 -1 -1 -1q-6 -5 -13 -10v0v0v0v0q-3 -2 -6 -3q-1 0 -1 -1h-1l-6 -2q-1 -1 -2 -1q-23 -7 -47 0q-1 1 -2 1h-1l-4 2h-1z" />
    <glyph glyph-name="X" unicode="X" horiz-adv-x="1402" 
d="M138 1v0q61 0 104 51l926 1172q34 46 27.5 98.5t-49.5 88.5q-38 29 -82 29q-62 0 -105 -51l-358 -454l-359 454q-43 51 -104 51q-45 0 -82 -29q-44 -36 -50 -88.5t28 -98.5l397 -504l-397 -503q-34 -46 -28 -98.5t50 -88.5q36 -28 82 -29v0zM138 1391v0q39 0 66 -32
l378 -478q8 -9 19 -9t19 9l377 478q28 32 67 32q28 0 52 -18q28 -23 31.5 -56.5t-17.5 -62.5l-926 -1172q-27 -32 -66 -32v0q-29 0 -52 18q-28 23 -32 56.5t18 62.5l409 518q5 8 5 15.5t-5 15.5l-409 518q-22 29 -18 62.5t32 56.5q23 18 52 18zM1063 0v0q45 0 83 30
q43 35 50 89q5 55 -28 99l-161 201q-43 51 -105 51q-45 0 -83 -29q-43 -35 -50 -90q-5 -55 29 -98l160 -202q41 -49 105 -51v0zM902 421v0q39 0 67 -32l161 -202q21 -27 18 -62q-5 -35 -32 -57q-24 -19 -53 -19v0q-41 1 -67 32l-160 202q-22 27 -19 62q5 35 32 58
q24 18 53 18z" />
    <glyph glyph-name="Y" unicode="Y" horiz-adv-x="1402" 
d="M601 591v0q68 0 111 56l456 578v0h1q33 45 27 98q-6 52 -49 88q-1 0 -1 1q-45 33 -98 27q-52 -6 -88 -49v0l-1 -1l-358 -454l-358 454l-1 1q-36 43 -88 49q-53 6 -98 -27q0 -1 -1 -1q-43 -36 -49 -88q-6 -53 27 -98h1v0l456 -578q43 -56 111 -56zM72 1254v0
q-22 30 -18 63t32 56q29 22 62 18t57 -32l377 -478q8 -9 19 -9t19 9l377 478q24 28 57 32t62 -18q28 -23 32 -56t-18 -63l-456 -577v-1h-1q-27 -37 -72 -37t-73 37v1zM601 -1v0q55 0 95 40q39 39 39 94v258q0 55 -39 95q-40 39 -95 39t-95 -39q-39 -40 -39 -95v-258
q0 -55 39 -95q40 -39 95 -39zM601 476v0q36 0 60 -25q25 -24 25 -60v-258q0 -35 -25 -60q-24 -25 -60 -25t-60 25q-25 25 -25 60v258q0 36 25 60q24 25 60 25z" />
    <glyph glyph-name="Z" unicode="Z" horiz-adv-x="1402" 
d="M1064 -1v0q55 0 94 39t39 94t-39 94t-94 39h-652l756 958q34 45 27.5 98t-49.5 89q-38 28 -82 28q-62 0 -105 -50l-926 -1173q-33 -45 -27 -98t49 -89q34 -26 77 -28q9 -1 19 -1h913zM1064 1390v0q28 0 52 -18q27 -23 31 -56.5t-17 -62.5l-788 -998q-8 -12 -2 -25
q7 -14 21 -14h703q34 0 59 -24.5t25 -59.5t-25 -60t-59 -25h-913q-7 0 -13 1h-3q-28 1 -50 18q-27 23 -31 56.5t18 62.5l925 1173q27 32 67 32zM396 1171v0q56 0 95 39t39 95q0 55 -39 94t-95 39h-257q-56 0 -95 -39t-39 -94q0 -56 39 -95t95 -39h257zM139 1390v0h257
q36 0 61 -25t25 -60q0 -36 -25 -61t-61 -25h-257q-36 0 -61 25t-25 61q0 35 25 60t61 25z" />
    <glyph glyph-name="bracketleft" unicode="[" horiz-adv-x="655" 
d="M322 -127v0q55 0 94 39t39 94t-39 94t-94 39h-56v1157h56q55 0 94 39t39 94t-39 94t-94 39h-189q-55 0 -94 -39t-39 -94v-1423q0 -55 39 -94t94 -39h189zM133 1513v0h189q35 0 59.5 -24.5t24.5 -59.5t-24.5 -60t-59.5 -25h-80q-11 0 -18 -7t-7 -17v-1206q0 -10 7 -17
t18 -7h80q35 0 59.5 -24.5t24.5 -59.5t-24.5 -60t-59.5 -25h-189q-35 0 -60 25t-25 60v1423q0 35 25 59.5t60 24.5z" />
    <glyph glyph-name="backslash" unicode="\" horiz-adv-x="1136" 
d="M793 -138v0q28 0 55 12q50 25 69 74.5t-3 101.5l-29 62l-2 6l-619 1360q-17 36 -49.5 57t-71.5 21q-29 0 -55 -12q-51 -25 -69.5 -74.5t3.5 -101.5l28 -62l2 -6l619 -1360q38 -74 122 -78v0zM143 1507v0q49 0 77 -49l619 -1360q1 -2 1 -4l1 -1l28 -63q14 -33 2.5 -64.5
t-44.5 -47.5q-16 -7 -34 -7v0q-53 2 -77 49l-619 1360l-2 4q0 1 -1 1l-28 63q-14 33 -2.5 64.5t44.5 47.5q17 7 35 7z" />
    <glyph glyph-name="bracketright" unicode="]" horiz-adv-x="655" 
d="M322 -126v0q55 0 94 39t39 94v1423q0 55 -39 94t-94 39h-189q-55 0 -94 -39t-39 -94t39 -94t94 -39h56v-1157h-56q-55 0 -94 -39t-39 -94t39 -94t94 -39h189zM133 92v0h80q10 0 17 7t7 17v1205q0 10 -7 17.5t-17 7.5h-80q-35 0 -60 24.5t-25 59.5t25 60t60 25h189
q35 0 59.5 -25t24.5 -60v-1423q0 -35 -24.5 -59.5t-59.5 -24.5h-189q-35 0 -60 24.5t-25 59.5t25 60t60 25z" />
    <glyph glyph-name="asciicircum" unicode="^" horiz-adv-x="1402" 
d="M1064 583v0q45 0 82 28q44 37 50 89.5t-28 97.5l-456 579q-45 57 -111 57q-53 0 -93 -37q-3 -2 -6 -5l-2 -3l-10 -12l-456 -579q-34 -45 -28 -97.5t50 -89.5q37 -28 82 -28v0q62 0 105 50l358 454l358 -454q43 -50 105 -50zM601 1151v0q-11 0 -19 -9l-378 -479
q-27 -32 -66 -32v0q-29 0 -52 19q-28 22 -32 55.5t18 62.5l457 579q0 1 1 1q3 5 7 9q0 1 1 1v1q1 0 1 1q27 26 62 26q43 0 71 -38q1 0 1 -1l457 -579q22 -29 18 -62.5t-32 -55.5q-23 -19 -52 -19q-39 0 -66 32l-378 479q-8 9 -19 9z" />
    <glyph glyph-name="underscore" unicode="_" 
d="M852 -264v0q55 0 93.5 38.5t38.5 93.5t-38.5 93.5t-93.5 38.5h-720q-54 0 -93 -38.5t-39 -93.5t39 -93.5t93 -38.5h720zM132 -48v0h720q35 0 59.5 -24.5t24.5 -59.5q0 -34 -24.5 -59t-59.5 -25h-720q-34 0 -58.5 25t-24.5 59q0 35 24.5 59.5t58.5 24.5z" />
    <glyph glyph-name="grave" unicode="`" horiz-adv-x="638" 
d="M299 964v0q45 0 83 29q43 35 50 90q6 55 -28 98l-161 202q-43 50 -105 50q-45 0 -83 -29q-43 -35 -50 -89q-5 -55 29 -99l160 -201q41 -50 105 -51v0zM138 1385v0q39 0 67 -32l161 -202q21 -28 18 -63q-5 -34 -32 -57q-24 -18 -53 -18v0q-39 0 -67 32l-160 201
q-22 28 -18 63t31 57q24 19 53 19z" />
    <glyph glyph-name="a" unicode="a" horiz-adv-x="1551" 
d="M1211 0v0q28 0 53 11q49 23 69 73q18 50 -3 99l-532 1170q-13 28 -38 49q-9 9 -20 15l-2 1q-4 2 -8 5v0q-1 0 -2 1q-1 0 -2 1q-5 2 -10 3q-1 1 -2 1q-38 12 -77 0l-6 -2l-2 -1q-1 0 -3 -1q-1 0 -2 -1q-2 -1 -5 -2l-1 -1l-4 -2q-3 -2 -5 -3q-4 -3 -7 -5l-1 -1l-8 -6
q-27 -21 -40 -51l-532 -1170q-21 -49 -3 -99q20 -50 69 -73q25 -11 53 -11q38 0 70 20.5t48 55.5l418 919l417 -919q36 -73 118 -76v0zM676 1078v0q-15 0 -23 -14l-439 -968q-26 -48 -74 -48q-17 0 -33 8q-31 14 -43 45t2 62l531 1170q9 19 27 33q0 1 1 1q2 2 5 4v0v0.5v0.5
q2 1 5 3q2 1 3 2h1v0l1 1q2 1 3 1v0v1h2l4 2v0q2 0 3 1q23 7 47 0q1 0 1 -1q4 -1 6 -2h1q1 -1 2 -1q3 -1 5 -3h0.5h0.5v0q7 -4 13 -10l1 -1q17 -13 25 -32l531 -1170q14 -31 2 -62t-42 -45q-17 -8 -34 -8v0q-51 2 -74 48l-439 968q-8 14 -22 14zM804 0v0q56 0 95 39t39 95
q0 55 -39 94t-95 39h-257q-56 0 -95 -39t-39 -94q0 -56 39 -95t95 -39h257zM547 219v0h257q36 0 61 -25t25 -60q0 -36 -25 -61t-61 -25h-257q-36 0 -61 25t-25 61q0 35 25 60t61 25z" />
    <glyph glyph-name="b" unicode="b" horiz-adv-x="1374" 
d="M733 2v0q201 0 324 124q115 124 114 300q3 121 -57 226q-64 109 -182 160q44 93 42 195q1 176 -114 301q-124 123 -324 123l-296 2h-107q-55 0 -94 -39t-39 -94t39.5 -95.5t94.5 -40.5l123 1h13h89t105 0.5t72 0.5q66 0 112 -46t46 -113q0 -61 -39.5 -105t-99.5 -52h-117
q-55 0 -93.5 -39t-38.5 -94t38.5 -94t93.5 -39h91q3 -1 6 -1q16 0 32 1h99h68q66 0 111.5 -45.5t45.5 -112.5q0 -66 -45.5 -112t-111.5 -46h-67.5h-97h-88h-43.5v0q-55 0 -93.5 -39t-38.5 -94t38.5 -94t93.5 -39h295zM438 220v0h37.5h89.5h100h69q86 0 145.5 59.5
t59.5 146.5t-59.5 147t-145.5 60h-68.5h-98.5h-2q-12 -1 -24 -1q-3 1 -6 1v0h-97q-35 0 -59.5 24.5t-24.5 59.5t24.5 60t59.5 25h118h2q80 9 132 67t52 138q0 87 -59.5 147t-146.5 60h-106h-137h-23l-136 -1q-35 0 -60.5 26t-25.5 61t25 60t60 25h107l295 -2q184 0 290 -109
q102 -110 100 -266v-1q3 -105 -48 -196q-5 -10 -1 -20q4 -11 14 -15q132 -51 184.5 -152t47.5 -197v-2q2 -155 -100 -265q-106 -109 -289 -109h-295q-35 0 -59.5 24.5t-24.5 59.5t24.5 60t59.5 25zM133 0v0q55 0 94 39t39 94v585q0 54 -39 93t-94 39t-94 -39t-39 -93v-585
q0 -55 39 -94t94 -39zM133 802v0q35 0 60 -25t25 -59v-585q0 -35 -25 -59.5t-60 -24.5q-34 0 -59 24.5t-25 59.5v585q0 34 25 59t59 25z" />
    <glyph glyph-name="c" unicode="c" horiz-adv-x="1404" 
d="M718 1v0q230 0 423 137q10 7 19 15v0v0h1q43 43 43 99q0 55 -39.5 94.5t-94.5 39.5q-45 0 -82 -28q-122 -91 -270 -91q-124 0 -226.5 61t-163.5 163.5t-61 226.5t61 226.5t163.5 163.5t226.5 61q145 0 267 -87q38 -31 85 -31q55 0 94.5 39t39.5 94q0 68 -60 112
q-194 140 -426 140q-198 0 -361 -97t-260 -260t-97 -361t97 -361t260 -259.5t361 -96.5zM718 1387v0q217 0 398 -131h1q38 -29 38 -72q0 -35 -25 -60t-60 -25q-30 0 -55 20q0 1 -1 1q-135 97 -296 97q-138 0 -251 -67t-180.5 -180.5t-67.5 -251.5q0 -137 67.5 -250.5
t180.5 -181t251 -67.5q164 0 300 100q24 18 52 18q35 0 60 -25t25 -60q0 -36 -27 -63v0v0q-6 -6 -13 -10q-1 0 -2 -1q-180 -129 -395 -129q-184 0 -336 90.5t-242.5 242.5t-90.5 336q0 185 90.5 336.5t242.5 242t336 90.5z" />
    <glyph glyph-name="d" unicode="d" horiz-adv-x="1382" 
d="M465 0v0q17 0 34 1h10q13 0 26 2q272 30 459 231q188 214 188 484q0 197 -97 360t-260 260t-360 97q-113 0 -208.5 0.5t-105.5 0.5v0q-3 0 -5 -1h-13q-55 0 -94 -38.5t-39 -93.5t39 -93.5t94 -38.5h332q124 0 226.5 -61.5t163 -164t60.5 -227.5t-60.5 -227t-163 -163
t-226.5 -61q-41 0 -95 -0.5t-104 -0.5v454q0 55 -39 94t-94 39t-94 -39t-39 -94v-584v-2v-1q0 -55 39 -93.5t94 -38.5h18h1q17 0 111 -0.5t202 -0.5zM133 804v0q35 0 60 -24.5t25 -59.5v-478q0 -10 7 -18q7 -7 17 -7q53 1 115 1h108q137 0 250.5 67.5t181 181t67.5 251.5
t-67.5 252t-181 181.5t-250.5 67.5h-332q-35 0 -59.5 24.5t-24.5 59.5t24.5 59.5t58.5 24.5h19q2 -1 5 0h116h193q184 0 336 -90.5t242.5 -242.5t90.5 -336q0 -174 -79.5 -319t-215.5 -237t-310 -110q-1 -1 -3 -1q-8 -2 -17 -2h-10h-1h-33h-205.5h-108.5v0h-18q-35 0 -59 24
t-25 60v1v1v585q0 35 24.5 59.5t59.5 24.5z" />
    <glyph glyph-name="e" unicode="e" 
d="M852 1168v0q55 0 93.5 38.5t38.5 93.5q0 54 -38.5 93t-93.5 39h-720q-54 0 -93 -39t-39 -93q0 -55 39 -93.5t93 -38.5h720zM132 1383v0h720q35 0 59.5 -24.5t24.5 -58.5q0 -35 -24.5 -59.5t-59.5 -24.5h-720q-34 0 -58.5 24.5t-24.5 59.5q0 34 24.5 58.5t58.5 24.5z
M852 1v0q55 0 93.5 38.5t38.5 93.5t-38.5 93.5t-93.5 38.5h-584v323h124q55 0 94.5 39t39.5 94q0 56 -39.5 95t-94.5 39h-258q-55 0 -94.5 -39t-39.5 -95v-1v-2v-582v-1v-2q0 -55 39 -93.5t93 -38.5h720zM134 807v0h258q35 0 60 -25t25 -61q0 -35 -25 -60t-60 -25h-148
q-10 0 -17 -7t-7 -17v-371q0 -10 7 -17t17 -7h608q35 0 59.5 -25t24.5 -59q0 -35 -24.5 -59.5t-59.5 -24.5h-720q-34 0 -58 24t-25 60v1v1v1v582v1v1v1q0 36 25 61t60 25z" />
    <glyph glyph-name="f" unicode="f" 
d="M852 1168v0q54 0 93 38.5t39 93.5q0 54 -39 93t-93 39h-720q-55 0 -93.5 -39t-38.5 -93q0 -55 38.5 -93.5t93.5 -38.5h720zM132 1383v0h720q34 0 58.5 -24.5t24.5 -58.5q0 -35 -24.5 -59.5t-58.5 -24.5h-720q-35 0 -59.5 24.5t-24.5 59.5q0 34 24.5 58.5t59.5 24.5z
M133 -1v0q55 0 94 39t39 94v456h125q56 0 95 39t39 94q0 56 -39 95t-95 39h-257q-56 0 -95 -39t-39 -95v-3v-4v-582q0 -55 39 -94t94 -39zM134 807v0h257q36 0 61 -25t25 -61q0 -35 -25 -60t-61 -25h-149q-10 0 -17.5 -7t-7.5 -17v-480q0 -35 -24.5 -59.5t-59.5 -24.5
t-60 24.5t-25 59.5v582v2l1 1v2h-1v2q0 36 25 61t61 25z" />
    <glyph glyph-name="g" unicode="g" horiz-adv-x="1634" 
d="M1301 -1v0q55 0 94 39t39 94v582v3v4v1v0.5v0.5q0 56 -40 95.5t-96 39.5h-252q-64 0 -109 -54q-28 -37 -28 -83q0 -55 39 -94.5t94 -39.5h126v-455q0 -55 39 -94t94 -39zM1046 810v0h252q36 0 61.5 -25.5t25.5 -61.5v-0.5v-0.5v-1v-2v-1v-1v-1v0v-2v-582q0 -35 -24.5 -60
t-59.5 -25t-60 25t-25 60v480q0 10 -7 17t-17 7h-150q-35 0 -60 25t-25 60q0 29 18 53h1v1q28 35 70 35zM718 0v0q3 0 6 1q53 4 88.5 41.5t35.5 90.5q0 51 -34 88.5t-86 42.5q-5 3 -10 3q-125 0 -227 61t-163 163t-61 227q0 124 61 226.5t163 163t227 60.5q144 0 266 -87
q39 -31 86 -31q55 0 94 39.5t39 94.5q0 67 -59 111q-194 140 -426 140q-198 0 -361 -97t-260 -259.5t-97 -360.5t97 -361t260 -260t361 -97zM718 1387v0q216 0 397 -131l1 -1q39 -28 39 -71q0 -35 -25 -60t-60 -25q-31 0 -55 20q-1 0 -2 1q-134 97 -295 97
q-138 0 -251.5 -67.5t-181 -181t-67.5 -250.5q0 -136 66 -248.5t176.5 -179.5t247.5 -71q4 -2 9 -3q35 -1 59 -25t24 -58t-24 -58t-59 -26h-5q-185 3 -334.5 92.5t-239.5 241t-90 335.5t90.5 336t242.5 242.5t337 90.5z" />
    <glyph glyph-name="h" unicode="h" horiz-adv-x="1175" 
d="M842 1442v0q55 0 94 -39t39 -94v-1178q0 -55 -39 -94t-94 -39t-94 39t-39 94v1178q0 55 39 94t94 39zM927 131v0v1178q0 34 -25 59t-60 25t-59.5 -25t-24.5 -59v-1178q0 -35 24.5 -59.5t59.5 -24.5t60 24.5t25 59.5zM392 856v0q55 0 94 -39.5t39 -94.5t-39 -94.5
t-94 -39.5h-126v-457q0 -55 -39 -94t-94 -39t-94 39t-39 94v1178q0 55 39 94t94 39t94 -39t39 -94v-453h126zM392 637v0q35 0 60 25t25 60t-25 60t-60 25h-150q-11 0 -18 7.5t-7 17.5v477q0 34 -24.5 59t-59.5 25t-60 -25t-25 -59v-1178q0 -35 25 -59.5t60 -24.5t59.5 24.5
t24.5 59.5v482q0 10 7 17t18 7h150z" />
    <glyph glyph-name="i" unicode="i" horiz-adv-x="466" 
d="M133 1v0q55 0 94 39t39 94v1178q0 55 -39 94t-94 39t-94 -39t-39 -94v-1178q0 -55 39 -94t94 -39zM133 1396v0q35 0 59.5 -24.5t24.5 -59.5v-1178q0 -35 -24.5 -59.5t-59.5 -24.5t-60 24.5t-25 59.5v1178q0 35 25 59.5t60 24.5z" />
    <glyph glyph-name="j" unicode="j" 
d="M852 -1v0q55 0 93.5 39t38.5 94v0v0v1178q0 55 -38.5 94t-93.5 39t-94 -39t-39 -94v-1046h-586q-55 0 -94 -38.5t-39 -93.5t39 -94t94 -39h719zM133 216v0h610q10 0 17 7t7 17v1070q0 34 25 59t60 25q34 0 59 -25t25 -59v-1178v0v-1q-1 -35 -25 -59t-59 -24h-719
q-35 0 -59.5 24.5t-24.5 59.5q0 34 24.5 59t59.5 25z" />
    <glyph glyph-name="k" unicode="k" horiz-adv-x="1196" 
d="M133 0v0q55 0 94 39t39 94v1178q0 55 -39 94t-94 39t-94 -39t-39 -94v-1178q0 -55 39 -94t94 -39zM133 1395v0q35 0 59.5 -24.5t24.5 -59.5v-1178q0 -35 -24.5 -59.5t-59.5 -24.5t-60 24.5t-25 59.5v1178q0 35 25 59.5t60 24.5zM699 973v0q62 0 106 51l158 204
q33 44 27 98q-7 55 -51 89q-37 29 -82 29q-62 0 -105 -52l-159 -203q-33 -46 -26.5 -99t50.5 -89q37 -28 82 -28v0zM857 1395v0q29 0 53 -18q27 -22 32 -57q4 -35 -17 -62l-159 -204q-26 -32 -67 -33q-29 0 -52 18q-28 23 -32.5 57t17.5 63l158 203q28 33 67 33zM855 0v0
q45 0 84 30q44 35 51 91q6 56 -28 101l-460 580q-44 51 -107 51q-47 0 -85 -29q-44 -37 -50.5 -91.5t28.5 -100.5l459 -580q45 -52 108 -52v0zM395 805v0q41 0 69 -34l460 -580q22 -28 18 -64q-5 -36 -33 -59q-24 -19 -54 -19q-41 0 -70 33l-459 580q-22 30 -18 65t32 59
q25 19 55 19z" />
    <glyph glyph-name="l" unicode="l" 
d="M851 -1v0q55 0 94 39t39 93q0 55 -39 94t-94 39h-585v1045q0 55 -39 94t-94 39t-94 -39t-39 -94v-1177v0v-1q0 -54 39 -93t93 -39h719zM48 131v0v1v0v1177q0 35 25 60t60 25t59.5 -25t24.5 -60v-1069q0 -10 7 -17.5t17 -7.5h610q35 0 59.5 -24.5t24.5 -59.5
q0 -34 -24.5 -59t-59.5 -25h-719q-34 0 -58.5 24.5t-25.5 59.5z" />
    <glyph glyph-name="m" unicode="m" horiz-adv-x="2250" 
d="M1211 -1v0q28 0 53 12q49 22 69 72q18 50 -3 100l-162 355l207 457l417 -919q37 -73 119 -77v0q27 0 53 12q49 22 68 72t-3 100l-531 1169q-13 29 -38 50q-10 9 -20 15l-2 1q-4 2 -9 4h1q-2 1 -3 1q-1 1 -2 1q-4 2 -9 4h-2q-39 13 -77 1q-3 -1 -6 -3h-2q-2 -1 -3 -1
q-1 -1 -3 -1q-2 -1 -4 -3l-2 -1q-1 0 -3 -1q-3 -2 -5 -4q-4 -2 -8 -5h-1q-4 -3 -7 -6q-27 -22 -41 -52l-227 -500l-227 500q-13 29 -38 50q-9 9 -20 15l-2 1l-8 4v0q-1 1 -2 1q-1 1 -2 1l-10 4h-2q-38 13 -77 1q-3 -1 -6 -3h-2q-1 -1 -3 -1q-1 -1 -2 -1q-3 -1 -5 -3l-1 -1
q-2 0 -4 -1q-3 -2 -5 -4q-4 -2 -7 -5h-1l-8 -6q-27 -22 -40 -52l-532 -1169q-21 -50 -3 -100q20 -50 69 -72q25 -12 53 -12q38 0 70 21t48 56l417 919l418 -919q16 -35 48 -56t70 -21zM1375 1078v0q-14 0 -22 -15l-234 -515q-4 -10 0 -20l166 -365q14 -31 2 -63
q-12 -31 -43 -45q-16 -7 -33 -7q-48 0 -74 48l-439 967q-8 15 -23 15q-14 0 -22 -15l-439 -967q-26 -48 -74 -48q-17 0 -34 7q-30 14 -42 45q-12 32 2 63l531 1169q9 20 27 34v1q3 2 5 4h1q2 2 5 3q1 1 3 2q0 1 1 1v0l1 1q1 0 2 1h1v0v0q1 0 2 1l4 1v0q1 1 3 1q23 8 47 0h1
q4 -1 6 -2q1 0 1 -1h2q3 -2 5 -3l0.5 -0.5l0.5 -0.5v0q7 -4 13 -9q0 -1 1 -1q16 -14 25 -33l249 -548q8 -15 22 -15q15 0 22 15l250 548q9 20 26 34q1 0 1 1q3 2 5 4h1q2 2 5 3l2 2t2 1v0l1 1q1 0 2 1h1q1 0 2 1l3 1h1q1 1 3 1q23 8 47 0h1q4 -1 6 -2v0l1 -1h1q3 -2 6 -3
v-0.5v-0.5h1q7 -4 12 -9l1 -1q17 -14 26 -33l531 -1169q13 -31 2 -63q-12 -31 -43 -45q-16 -7 -33 -7v0q-51 2 -74 48l-440 967q-8 15 -22 15z" />
    <glyph glyph-name="n" unicode="n" horiz-adv-x="1299" 
d="M966 -2v0q55 0 94 39t39 94v1177q0 55 -39 94t-94 39t-94 -39t-39 -94v-1177q0 -55 39 -94t94 -39zM966 1393v0q35 0 59.5 -25t24.5 -60v-1177q0 -35 -24.5 -60t-59.5 -25t-60 25t-25 60v1177q0 35 25 60t60 25zM133 -2v0q55 0 94 39t39 94v856l186 -186q41 -39 94 -39v0
q53 0 94 39q38 39 39 94q0 55 -39 94l-413 413v0v0v0v1h-1l-8 8q-1 1 -2 1l-1 1q-4 3 -8 5l-2 2l-1 1q-4 2 -7 4q-3 1 -5 2q-3 2 -7 4q-2 1 -4 1q-4 2 -9 3q-1 1 -3 1q-5 2 -9 2q-2 1 -3 1v0q-6 1 -11 1l-1 1h-12q-56 -1 -94.5 -39.5t-38.5 -93.5v-1177q0 -55 39 -94t94 -39
zM133 1393v0q3 0 8 -1h1q3 0 6 -1h2l6 -2h1h1q3 -1 5 -2h1q1 -1 2 -1q2 -1 5 -2v-1q1 0 2 -1q3 -1 5 -2l1 -1v0q1 0 1 -1q3 -2 5 -3l2 -2q3 -2 6 -5v0v0l413 -413q24 -25 25 -60q-1 -35 -25 -59q-26 -25 -60 -25v0q-35 0 -59 24l-228 228q-12 10 -26 5q-15 -8 -15 -22v-915
q0 -35 -25 -60t-60 -25t-59.5 25t-24.5 60v1177q0 35 24.5 60t59.5 25z" />
    <glyph glyph-name="o" unicode="o" horiz-adv-x="1635" 
d="M718 -1v0q198 0 360.5 97t259.5 260t97 361t-97 360.5t-259.5 259.5t-360.5 97t-361 -97t-260 -259.5t-97 -360.5t97 -361t260 -260t361 -97zM718 1386v0q184 0 336 -90.5t242.5 -242.5t90.5 -336q0 -185 -90.5 -336.5t-242.5 -242t-336 -90.5q-185 0 -337 90.5t-242 242
t-90 336.5q0 184 90 336t242 242.5t337 90.5zM718 217v0q137 0 250.5 67.5t181.5 181t68 251.5t-68 251.5t-181.5 181t-250.5 67.5q-138 0 -251.5 -67.5t-181 -181t-67.5 -251.5t67.5 -251.5t181 -181t251.5 -67.5zM718 1168v0q124 0 226.5 -61t163.5 -163.5t61 -226.5
q0 -125 -61 -227.5t-163.5 -163.5t-226.5 -61q-125 0 -227.5 61t-163.5 163.5t-61 227.5q0 124 61 226.5t163.5 163.5t227.5 61z" />
    <glyph glyph-name="p" unicode="p" horiz-adv-x="1177" 
d="M134 -1v0q55 0 94 39t39 94v450l270 2q201 0 324 124q115 124 114 300q2 117 -54 220q-1 2 -2 3l-7 9q-34 54 -81 94q-96 100 -262 97q-17 1 -32 1q-4 0 -7 -1h-91h-13l-186 1h-107q-55 0 -94 -39t-39 -94t40 -95.5t94 -40.5l123 1h30h27h128h95q66 0 111.5 -45.5
t45.5 -112.5q0 -3 1 -6q-5 -65 -49.5 -107.5t-107.5 -42.5h-111.5h-139.5h-29l-123 1q-55 0 -98 -44q-36 -40 -36 -91v-584q0 -55 39 -94t94 -39zM135 803v0l123 -1h29h10q61 0 136.5 -0.5t104.5 -0.5q85 0 143.5 58.5t61.5 146.5q0 3 -1 7q-4 86 -62.5 143t-142.5 57h-110
h-140h-30l-123 -2q-35 0 -60.5 26t-25.5 62q0 35 25 60t60 25l107 -1l187 -1h3q5 1 9 1h98v0h6h24h1q89 -1 140.5 -23t89.5 -62l1 -1q43 -35 72 -83q1 -2 2 -3l7 -8q49 -91 46 -194v-2q2 -156 -100 -265q-106 -109 -290 -109l-294 -2q-10 -1 -17 -7.5t-7 -16.5v-475
q0 -35 -24.5 -59.5t-59.5 -24.5t-60 24.5t-25 59.5v584q0 32 23 58h1q27 29 62 29z" />
    <glyph glyph-name="q" unicode="q" horiz-adv-x="1635" 
d="M1306 -2v0q51 0 90 38q39 43 39 94t-39 94l-87 87q126 187 126 407q0 198 -97 361t-259.5 260t-360.5 97t-361 -97t-260 -260t-97 -361t97 -361t260 -259.5t361 -96.5q3 0 7 1q53 3 89 41t36 91t-36.5 91t-90.5 41q-3 1 -5 1q-125 0 -227.5 61t-163.5 163.5t-61 226.5
q0 125 61 227t163.5 163t227.5 61q124 0 226.5 -61t163.5 -163t61 -227q0 -120 -57 -221.5t-160 -164.5q-10 -6 -12 -18q-1 -4 0 -7.5t4.5 -9t13 -15.5t26 -26t42.5 -42q29 -27 51.5 -49t27.5 -27h1l91 -91q51 -49 109 -49v0zM1002 307v0q209 150 216 411q0 138 -68 251.5
t-181 181t-251 67.5t-251.5 -67.5t-181 -181t-67.5 -251.5q0 -137 67 -250t178.5 -180t249.5 -70h5q34 0 59 -24.5t25 -59.5t-25 -59.5t-59 -24.5q-3 0 -6 -1q-186 4 -335 93.5t-238.5 241t-89.5 334.5q0 185 90 336.5t242 242t337 90.5q184 0 336 -90.5t242.5 -242
t90.5 -336.5q0 -215 -129 -395q-6 -7 -5 -16t7 -15l102 -102q25 -28 25 -60.5t-25 -59.5q-24 -24 -56 -24q-39 0 -75 35l-91 91v0l-1 1q-40 38 -77.5 74.5t-59.5 59.5z" />
    <glyph glyph-name="r" unicode="r" horiz-adv-x="1177" 
d="M134 0v0q55 0 94 39t39 94v451l270 1q201 0 324 124q115 124 114 300q2 118 -54 220l-2 4l-7 8q-34 54 -81 94q-96 100 -262 97q-17 1 -32 1q-4 0 -7 -1l-91 1q-6 0 -13 -1l-186 1h-107q-55 0 -94 -39t-39 -94t40 -95.5t94 -40.5l123 1h30h24h129.5h96.5
q66 0 111.5 -45.5t45.5 -112.5q0 -3 1 -6q-5 -65 -49.5 -107.5t-107.5 -42.5h-111.5h-139.5h-29l-123 2q-55 0 -98 -45q-36 -40 -36 -91v-584q0 -55 39 -94t94 -39zM135 804v0l123 -1h29h139.5h111.5q85 0 143.5 58t61.5 146q0 4 -1 7q-4 87 -62.5 143.5t-142.5 56.5h-93.5
h-126.5h-30h-30l-123 -1q-35 0 -60.5 26t-25.5 61t25 60t60 25h107l187 -2h3q5 1 9 1h98q3 0 6 1q12 0 24 -1h1q89 -1 140.5 -23t89.5 -61q0 -1 1 -2q43 -35 72 -83q1 -2 2 -3l7 -8q49 -91 46 -194v-1q2 -156 -100 -266q-106 -109 -290 -109l-294 -2q-10 0 -17 -7t-7 -17
v-475q0 -35 -24.5 -59.5t-59.5 -24.5t-60 24.5t-25 59.5v584q0 33 23 58v0h1q27 29 62 29zM841 4v0q53 0 94 39q39 44 39 95t-39 95l-182 182q-41 39 -95 39q-53 0 -94 -39q-39 -43 -39 -94.5t39 -94.5l182 -183q41 -39 95 -39zM658 406v0q34 0 61 -25l182 -183
q25 -26 25 -60t-25 -60q-26 -25 -60 -25t-61 25l-182 182q-25 26 -25 60t25 61q26 25 60 25z" />
    <glyph glyph-name="s" unicode="s" horiz-adv-x="1177" 
d="M843 -1v0q55 0 94 39t39 94v584q0 51 -36 91q-43 44 -98 44l-123 -1h-31h-10h-135h-103q-64 0 -108.5 42.5t-48.5 107.5v6q0 67 45.5 112.5t111.5 45.5h107.5h137.5h4h31l123 -1q54 0 94 40.5t40 95.5t-39 94t-94 39h-107l-186 -1h-13h-91q-3 1 -7 1q-15 0 -31 -1
q-167 3 -263 -97q-47 -40 -81 -94l-7 -8l-2 -4q-56 -102 -54 -220q-1 -176 114 -300q124 -124 324 -124l270 -1v-451q0 -55 39 -94t94 -39zM97 1203v0l7 8q1 1 2 3q29 48 72 83q1 1 2 1q37 40 88.5 62t140.5 23h1q13 0 24 1q3 -1 6 -1h1h97q4 0 9 -1h3l187 1l107 1
q35 0 60 -25t25 -60t-25.5 -61.5t-60.5 -26.5l-123 2h-31h-15h-133.5h-100.5q-84 0 -142.5 -57t-62.5 -143q-1 -3 -1 -7q3 -88 61.5 -146t144.5 -58h109h139h32l122 1q35 0 63 -29v0v0q23 -25 23 -58v-584q0 -35 -25 -59.5t-60 -24.5t-59.5 24.5t-24.5 59.5v475q0 10 -7 17
t-17 7l-295 2q-183 0 -289 109q-102 110 -100 265v2q-3 103 46 194zM394 -4v0q55 0 94 39.5t39 94.5t-39 94.5t-94 39.5h-258v0q-54 0 -95 -39q-39 -41 -39 -95q0 -55 39 -94.5t95 -39.5h258zM136 215v0v0h258q35 0 60 -25t25 -60t-25 -60t-60 -25h-258q-36 0 -61 25t-25 60
q0 34 25 60q27 25 61 25z" />
    <glyph glyph-name="t" unicode="t" 
d="M852 1170v0q54 0 93 39t39 94q0 54 -39 93t-93 39h-720q-55 0 -93.5 -39t-38.5 -93q0 -55 38.5 -94t93.5 -39h720zM132 1386v0h720q34 0 58.5 -24.5t24.5 -58.5q0 -35 -24.5 -59.5t-58.5 -24.5h-720q-35 0 -59.5 24.5t-24.5 59.5q0 34 24.5 58.5t59.5 24.5zM492 -1v0
q55 0 94 38.5t39 93.5v585q0 55 -39 93.5t-94 38.5t-94 -38.5t-39 -93.5v-585q0 -55 39 -93.5t94 -38.5zM492 800v0q35 0 59.5 -24.5t24.5 -59.5v-585q0 -35 -24.5 -59.5t-59.5 -24.5t-60 24.5t-25 59.5v585q0 35 25 59.5t60 24.5z" />
    <glyph glyph-name="u" unicode="u" horiz-adv-x="1185" 
d="M852 0v0q55 0 94 39t39 94v1178q0 55 -39 94t-94 39t-94 -39t-39 -94v-1045h-56q-55 0 -94 -39t-39 -94t39 -94t94 -39h189zM663 218v0h81q10 0 17 7t7 17v1069q0 35 24.5 59.5t59.5 24.5t60 -24.5t25 -59.5v-1178q0 -35 -25 -59.5t-60 -24.5h-189q-35 0 -59.5 24.5
t-24.5 59.5t24.5 60t59.5 25zM322 0v0q55 0 94 39t39 94t-39 94t-94 39h-56v1045q0 55 -39 94t-94 39t-94 -39t-39 -94v-1178q0 -55 39 -94t94 -39h189zM133 1395v0q35 0 59.5 -24.5t24.5 -59.5v-1069q0 -10 7 -17t18 -7h80q35 0 60 -25t25 -60t-25 -59.5t-60 -24.5h-189
q-35 0 -60 24.5t-25 59.5v1178q0 35 25 59.5t60 24.5z" />
    <glyph glyph-name="v" unicode="v" horiz-adv-x="1551" 
d="M675 1v0q20 0 39 6h2q5 2 9 4q1 0 2 1v0q1 0 3 1q4 2 8 5h1q11 7 21 15q25 21 38 50l531 1170q22 49 3 99t-68 72q-26 12 -53 12q-38 0 -70 -20.5t-49 -56.5l-417 -918l-417 918q-16 36 -48 56.5t-71 20.5q-27 0 -53 -12q-48 -22 -68 -72q-18 -50 3 -99l531 -1170
q14 -30 41 -51q3 -4 7 -7h1v0v0q4 -3 7 -5t6 -3q2 -1 3 -2l2 -1l4 -2t3 -1q1 -1 3 -1l2 -1l6 -2q19 -6 38 -6zM643 56v0v0q-1 0 -1 1q-1 0 -2 1h-1l-1 1v0l-4 2q-2 2 -4 3h-1v0v0v1q-2 1 -5 4h-1q-17 14 -26 34l-532 1170q-13 30 -2 62q13 31 43 45q16 7 33 7q48 0 75 -48
l439 -967q8 -14 22 -14t22 14l440 967q26 48 74 48q17 0 33 -7q31 -14 43 -45q11 -32 -2 -62l-531 -1170q-9 -19 -26 -33h-1q-5 -6 -13 -10v0v0v0v0q-3 -2 -6 -3q0 -1 -1 -1h-1v0q-3 -1 -6 -3h-1q-24 -7 -48 0q-1 0 -2 1h-1l-4 2h-1z" />
    <glyph glyph-name="w" unicode="w" horiz-adv-x="2250" 
d="M1375 -2v0q20 0 39 6q1 0 1 1q5 1 10 3q1 1 2 1v0q1 1 2 1q5 2 9 5l1 1q11 6 20 15q26 20 39 49l531 1170q21 49 3 99q-20 50 -68 73q-26 11 -53 11q-39 0 -71 -20.5t-48 -55.5l-417 -919l-207 456l161 356q22 49 3 99t-68 73q-25 11 -53 11q-38 0 -70 -20.5t-49 -55.5
l-417 -919l-417 919q-16 35 -48 55.5t-71 20.5q-27 0 -53 -11q-48 -23 -68 -73q-18 -50 3 -99l531 -1170q14 -30 41 -51q4 -3 7 -6q1 0 1 -1v0v0q4 -2 7 -5q3 -1 6 -3q2 -1 3 -2l2 -1l4 -2t3 -1q1 -1 3 -1l2 -1l6 -2q39 -12 77 0q1 0 2 1q5 1 9 3q1 1 2 1v0q1 1 3 1q4 2 8 5
l2 1q10 6 20 15q25 20 38 49l227 500l227 -500q14 -30 40 -51l8 -6l1 -1v0v0q3 -2 7 -5q3 -1 6 -3q1 -1 3 -2l2 -1l4 -2q1 -1 3 -1q1 -1 2 -1l3 -1l6 -2q18 -6 38 -6zM1343 53v0q0 1 -1 1v0q-1 0 -2 1h-1q0 1 -1 1h-1q-1 1 -3 2q-2 2 -5 3v0.5v0.5v0v0q-3 2 -5 4q-1 0 -1 1
q-18 14 -27 33l-249 549q-8 14 -22 14t-22 -14l-249 -549q-9 -19 -25 -32l-1 -1q-6 -5 -14 -10v0v0v0v0q-3 -2 -6 -3l-1 -1h-1q-2 -1 -6 -2q0 -1 -1 -1q-24 -7 -48 0q-1 1 -2 1h-1l-3 2h-2v1h-1v0q-1 0 -2 1h-1v1h-1l-4 2q-2 2 -4 3v1h-1v0q-2 2 -5 4l-1 1q-17 14 -26 33
l-532 1170q-13 31 -1 62t42 45q16 8 33 8q48 0 75 -48l439 -968q8 -14 22 -14t22 14l440 968q26 48 74 48q17 0 33 -8q31 -14 43 -45q11 -31 -2 -62l-166 -366q-4 -10 0 -20l234 -515q8 -14 22 -14t22 14l439 968q27 48 75 48q17 0 33 -8q30 -14 43 -45q11 -31 -2 -62
l-532 -1170q-8 -19 -25 -32q0 -1 -1 -1q-6 -5 -13 -10v0v0v0v0q-3 -2 -6 -3q-1 0 -1 -1h-1l-6 -2q-1 -1 -2 -1q-23 -7 -47 0q-1 1 -2 1h-1l-4 2h-1z" />
    <glyph glyph-name="x" unicode="x" horiz-adv-x="1402" 
d="M138 1v0q61 0 104 51l926 1172q34 46 27.5 98.5t-49.5 88.5q-38 29 -82 29q-62 0 -105 -51l-358 -454l-359 454q-43 51 -104 51q-45 0 -82 -29q-44 -36 -50 -88.5t28 -98.5l397 -504l-397 -503q-34 -46 -28 -98.5t50 -88.5q36 -28 82 -29v0zM138 1391v0q39 0 66 -32
l378 -478q8 -9 19 -9t19 9l377 478q28 32 67 32q28 0 52 -18q28 -23 31.5 -56.5t-17.5 -62.5l-926 -1172q-27 -32 -66 -32v0q-29 0 -52 18q-28 23 -32 56.5t18 62.5l409 518q5 8 5 15.5t-5 15.5l-409 518q-22 29 -18 62.5t32 56.5q23 18 52 18zM1063 0v0q45 0 83 30
q43 35 50 89q5 55 -28 99l-161 201q-43 51 -105 51q-45 0 -83 -29q-43 -35 -50 -90q-5 -55 29 -98l160 -202q41 -49 105 -51v0zM902 421v0q39 0 67 -32l161 -202q21 -27 18 -62q-5 -35 -32 -57q-24 -19 -53 -19v0q-41 1 -67 32l-160 202q-22 27 -19 62q5 35 32 58
q24 18 53 18z" />
    <glyph glyph-name="y" unicode="y" horiz-adv-x="1402" 
d="M601 591v0q68 0 111 56l456 578v0h1q33 45 27 98q-6 52 -49 88q-1 0 -1 1q-45 33 -98 27q-52 -6 -88 -49v0l-1 -1l-358 -454l-358 454l-1 1q-36 43 -88 49q-53 6 -98 -27q0 -1 -1 -1q-43 -36 -49 -88q-6 -53 27 -98h1v0l456 -578q43 -56 111 -56zM72 1254v0
q-22 30 -18 63t32 56q29 22 62 18t57 -32l377 -478q8 -9 19 -9t19 9l377 478q24 28 57 32t62 -18q28 -23 32 -56t-18 -63l-456 -577v-1h-1q-27 -37 -72 -37t-73 37v1zM601 -1v0q55 0 95 40q39 39 39 94v258q0 55 -39 95q-40 39 -95 39t-95 -39q-39 -40 -39 -95v-258
q0 -55 39 -95q40 -39 95 -39zM601 476v0q36 0 60 -25q25 -24 25 -60v-258q0 -35 -25 -60q-24 -25 -60 -25t-60 25q-25 25 -25 60v258q0 36 25 60q24 25 60 25z" />
    <glyph glyph-name="z" unicode="z" horiz-adv-x="1402" 
d="M1064 -1v0q55 0 94 39t39 94t-39 94t-94 39h-652l756 958q34 45 27.5 98t-49.5 89q-38 28 -82 28q-62 0 -105 -50l-926 -1173q-33 -45 -27 -98t49 -89q34 -26 77 -28q9 -1 19 -1h913zM1064 1390v0q28 0 52 -18q27 -23 31 -56.5t-17 -62.5l-788 -998q-8 -12 -2 -25
q7 -14 21 -14h703q34 0 59 -24.5t25 -59.5t-25 -60t-59 -25h-913q-7 0 -13 1h-3q-28 1 -50 18q-27 23 -31 56.5t18 62.5l925 1173q27 32 67 32zM396 1171v0q56 0 95 39t39 95q0 55 -39 94t-95 39h-257q-56 0 -95 -39t-39 -94q0 -56 39 -95t95 -39h257zM139 1390v0h257
q36 0 61 -25t25 -60q0 -36 -25 -61t-61 -25h-257q-36 0 -61 25t-25 61q0 35 25 60t61 25z" />
    <glyph glyph-name="braceleft" unicode="{" horiz-adv-x="922" 
d="M589 -135v0q55 0 94 39t39 94t-39 94t-94 39h-56v1157h56q55 0 94 39t39 94t-39 94t-94 39h-189q-55 0 -94 -39t-39 -94v-578h-133q-55 0 -94.5 -39t-39.5 -95q0 -55 39.5 -94t94.5 -39h133v-578q0 -55 39 -94t94 -39h189zM291 624v0h-157q-35 0 -60 25t-25 60
q0 36 25 61t60 25h157q10 0 17 7t7 17v602q0 35 25 59.5t60 24.5h189q35 0 59.5 -24.5t24.5 -59.5t-24.5 -60t-59.5 -25h-81q-10 0 -17 -7t-7 -17v-1205q0 -10 7 -17.5t17 -7.5h81q35 0 59.5 -24.5t24.5 -59.5t-24.5 -60t-59.5 -25h-189q-35 0 -60 25t-25 60v602q0 10 -7 17
t-17 7z" />
    <glyph glyph-name="bar" unicode="|" horiz-adv-x="465" 
d="M132 -135v0q55 0 94 39t39 94v1423q0 55 -39 94t-94 39t-93.5 -39t-38.5 -94v-1423q0 -55 38.5 -94t93.5 -39zM132 1505v0q35 0 60 -24.5t25 -59.5v-1423q0 -35 -25 -60t-60 -25q-34 0 -59 25t-25 60v1423q0 35 25 59.5t59 24.5z" />
    <glyph glyph-name="braceright" unicode="}" horiz-adv-x="922" 
d="M323 -136v0q55 0 94 38.5t39 93.5v578h132q55 0 94.5 39.5t39.5 94.5t-39.5 94.5t-94.5 39.5h-132v578q0 55 -39 94t-94 39h-190q-55 0 -94 -39t-39 -94t39 -94t94 -39h57v-1157h-57q-55 0 -94 -39t-39 -94t39 -94t94 -39h190zM133 81v0h81q10 0 17 7t7 17v1206
q0 10 -7 17t-17 7h-81q-35 0 -59.5 25t-24.5 60t24.5 59.5t59.5 24.5h190q35 0 59.5 -24.5t24.5 -59.5v-602q0 -10 7 -17.5t17 -7.5h157q35 0 60 -25t25 -60t-25 -60t-60 -25h-157v0q-9 0 -17 -7q-7 -8 -7 -17v-603q0 -34 -24.5 -59t-59.5 -25h-190q-35 0 -59.5 25t-24.5 60
q0 34 24.5 59t59.5 25z" />
    <glyph glyph-name="asciitilde" unicode="~" horiz-adv-x="1123" 
d="M923 878v-156q-63 -72 -122 -97.5t-116 -25.5q-60 0 -177.5 48.5t-176.5 48.5q-51 0 -107.5 -28t-129.5 -112v156q64 73 123 99t114 26q64 0 181.5 -49.5t172.5 -49.5q52 0 108.5 28t129.5 112z" />
    <glyph glyph-name="exclamdown" unicode="&#xa1;" horiz-adv-x="465" 
d="M132 1170v0q55 0 94 39t39 94q0 54 -39 93t-94 39t-93.5 -39t-38.5 -93q0 -55 38.5 -94t93.5 -39zM132 1387v0q35 0 60 -25t25 -59q0 -35 -25 -60t-60 -25q-34 0 -59 25t-25 60q0 34 25 59t59 25zM133 -1v0q55 0 93.5 39t38.5 94v897q0 55 -38.5 93.5t-93.5 38.5
t-93.5 -38.5t-38.5 -93.5v-897q0 -55 38.5 -94t93.5 -39zM133 1113v0q35 0 59.5 -24.5t24.5 -59.5v-897q0 -35 -24.5 -59.5t-59.5 -24.5t-59.5 24.5t-24.5 59.5v897q0 35 24.5 59.5t59.5 24.5z" />
    <glyph glyph-name="cent" unicode="&#xa2;" horiz-adv-x="1403" 
d="M276 -131v0q39 0 72 21t50 57l47 105q131 -54 272 -54q230 0 423 138q11 7 20 15v0v0v0q43 43 43 99q0 55 -39 94t-95 39q-45 0 -81 -28q-123 -90 -271 -90q-83 0 -161 30l373 819q29 -15 55 -35q39 -31 85 -31q56 0 95 39.5t39 94.5q0 67 -60 111q-49 37 -104 64l8 18
q22 52 3.5 101.5t-69.5 74.5q-26 12 -55 12q-39 0 -71.5 -21t-49.5 -57l-24 -54q-32 3 -64 3q-198 0 -360.5 -97t-259.5 -260t-97 -361q0 -146 57 -280.5t163 -236.5l-34 -74l-2 -6l-29 -62q-22 -52 -3 -101.5t69 -74.5q27 -12 55 -12zM717 1385v0q38 0 76 -4q17 -1 25 14
l31 70q28 49 77 49q18 0 35 -7q32 -16 44 -47.5t-2 -64.5l-18 -39q-4 -10 -0.5 -19t12.5 -13q63 -29 118 -70l1 -1q39 -28 39 -71q0 -35 -25 -60t-61 -25q-30 0 -55 20l-1 1q-40 30 -86 51q-9 4 -18 1q-10 -4 -14 -13l-394 -865q-4 -9 0 -18q3 -10 13 -14q97 -43 203 -43
q164 0 300 100q24 18 52 18q36 0 61 -25t25 -60q0 -36 -28 -63v0v0q-6 -6 -13 -10q-1 -1 -2 -1q-180 -129 -395 -129q-143 0 -274 58q-10 4 -19 1t-13 -13l-58 -126q-27 -49 -77 -49q-18 0 -35 7q-32 16 -43.5 47.5t2.5 64.5l28 63l1 1q0 2 1 4l41 90q6 15 -6 28
q-104 96 -160.5 224.5t-56.5 268.5q0 184 90.5 336t242.5 242.5t336 90.5zM347 395v0h3q13 2 19 14l351 771q5 13 -2 24q-8 11 -21 11q-199 -11 -339 -153q-140 -151 -140 -346q0 -170 110 -312q8 -9 19 -9zM659 1163v0l-317 -696q-75 114 -75 249q0 115 51.5 211t139.5 158
t201 78z" />
    <glyph glyph-name="sterling" unicode="&#xa3;" 
d="M852 1167v0q55 0 93.5 39t38.5 93q0 55 -38.5 94t-93.5 39h-720q-54 0 -93 -39t-39 -94q0 -54 39 -93t93 -39h720zM132 1383v0h720q35 0 59.5 -24.5t24.5 -59.5q0 -34 -24.5 -58.5t-59.5 -24.5h-720q-34 0 -58.5 24.5t-24.5 58.5q0 35 24.5 59.5t58.5 24.5zM852 -1v0
q55 0 93.5 39t38.5 93q0 55 -38 93t-94 40h-401l361 360q0 1 1 1l2 2q0 1 0.5 1t0.5 1q35 39 35 91q0 55 -39 94t-95 39h-580q-55 0 -94.5 -39t-39.5 -94t39 -94.5t92 -39.5h266l-361 -361l-1 -1v0q-4 -4 -8 -9l-1 -1q-3 -5 -7 -9l-1 -2q-3 -5 -5 -10l-1 -1q-3 -5 -5 -10v-2
q-3 -5 -4 -11l-1 -1q-1 -5 -2 -11l-1 -1q-1 -6 -1 -12v0q-1 -7 -1 -13t1 -11v-1v0q0 -6 1 -12l1 -1v0l2 -12h0.5h0.5v-1q1 -5 4 -11v-1q2 -5 5 -10l1 -2q2 -5 6 -10v-1q4 -5 7 -9q0 -1 0.5 -1h0.5v0q8 -11 19 -19v0l10 -8h1q5 -4 10 -6l2 -1q5 -3 10 -5h1q6 -3 11 -4h1
q6 -2 12 -3q6 -2 13 -2v0v0q6 -1 12 -1h720zM124 48v0q-4 1 -8 1q-3 1 -7 2h-1q-3 1 -7 3v0v0v0v0q-4 1 -7 3l-1 1q-3 1 -6 3l-1 1l-6 4l-1 1q-6 5 -11 11v0.5t-1 0.5v0v0l-4 6l-1 1l-4 6v0.5v0.5v0q-2 3 -3 7v0v0v0q-2 4 -3 7v0.5v0.5v0v0q-1 4 -2 7v0v0.5v0.5q-1 3 -1 7
v0.5v0.5v7v8v1q0 3 1 7v1q1 3 2 7v0q1 4 3 7v0.5v0.5v0v0q1 3 3 7v1l4 6l1 1l4 6v0h1q2 4 5 6v1v0l403 402q11 12 5 27q-7 15 -22 15h-325q-34 0 -58 25t-24 60t25 60t60 25h580q36 0 60.5 -25t24.5 -60q0 -33 -22 -59l-1 -1v0v0v0v0l-2 -2l-401 -402q-11 -11 -6 -26
q8 -15 23 -15h459q36 -1 60 -25t24 -59q0 -34 -24.5 -58.5t-59.5 -24.5h-720h-8v0z" />
    <glyph glyph-name="currency" unicode="&#xa4;" horiz-adv-x="1091" 
d="M350 560q41 -40 99 -57q29 -8 58 -8t58 8q58 17 99 57q40 41 57 99q9 29 9 58t-9 58q-17 58 -57 99q-41 40 -100 57q-29 8 -58 8t-58 -9q-58 -17 -98 -56q-39 -40 -56 -98q-10 -30 -10 -60q0 -28 9 -56q16 -59 57 -100zM240 903l-118 118l80 81l118 -118q44 30 99 46
q44 14 89 14q41 0 83 -12q57 -17 102 -48l118 118l80 -81l-117 -117q31 -46 48 -102q12 -42 12 -85q0 -42 -12 -85q-17 -56 -48 -102l117 -117l-80 -81l-118 118q-45 -32 -101 -48q-42 -12 -85 -12q-42 0 -85 12q-57 16 -102 48l-118 -118l-80 81l118 117q-32 46 -48 103
q-12 42 -12 84q0 44 13 87q16 55 47 99z" />
    <glyph glyph-name="yen" unicode="&#xa5;" horiz-adv-x="1402" 
d="M961 591v0q55 0 93.5 38.5t38.5 93.5q0 54 -38.5 93t-93.5 39h-84l292 370v0q33 45 27 98q-6 52 -49 88q0 1 -1 1q-44 33 -97 27t-89 -49v0v0l-359 -454l-358 454v0v0q-36 43 -89 49t-97 -27q-1 0 -1 -1q-43 -36 -50 -88q-6 -53 28 -98v0v0l292 -370h-84q-55 0 -94 -39
t-39 -93q0 -55 39 -93.5t94 -38.5h719zM242 806v0h134q14 0 22 14q6 14 -3 26l-323 408q-21 30 -17 63q3 33 31 56q29 22 62 18q34 -4 57 -32l377 -478q8 -9 19 -9q12 0 19 9l378 478q23 28 56 32q34 4 63 -18q27 -23 31 -56t-18 -63l-322 -408q-9 -12 -3 -26q8 -14 22 -14
h134q35 0 59.5 -24.5t24.5 -58.5q0 -35 -24.5 -59.5t-59.5 -24.5h-719q-35 0 -59.5 24.5t-24.5 59.5q0 34 24.5 58.5t59.5 24.5zM601 -1v0q55 0 95 40q39 39 39 94v128h226q55 0 93.5 38.5t38.5 93.5q0 54 -38.5 93t-93.5 39h-719q-55 0 -94 -39t-39 -93q0 -55 39 -93.5
t94 -38.5h226v-128q0 -55 39 -94q39 -40 94 -40zM242 476v0h719q35 0 59.5 -24.5t24.5 -58.5q0 -35 -24.5 -59.5t-59.5 -24.5h-250q-10 0 -17 -7t-7 -17v-152q0 -35 -25 -60t-61 -25q-35 0 -60 25t-25 60v152q0 10 -7 17t-17 7h-250q-35 0 -59.5 24.5t-24.5 59.5
q0 34 24.5 58.5t59.5 24.5z" />
    <glyph glyph-name="brokenbar" unicode="&#xa6;" horiz-adv-x="787" 
d="M427 371h160v-789h-160v789zM427 1578h160v-789h-160v789z" />
    <glyph glyph-name="section" unicode="&#xa7;" horiz-adv-x="1014" 
d="M545 321q56 16 97 53q73 65 73 166q0 5 -1 10h-2q-1 14 -4 27q-22 61 -113 127q-59 29 -126 29q-78 0 -125 -44.5t-47 -117.5q0 -123 248 -250zM466 -346q113 6 185 69q72 64 72 165q0 125 -316 276q-123 64 -175.5 137t-52.5 177q0 148 89 237q67 65 170 82l-40 19
q-123 64 -175.5 137t-52.5 177q0 148 89 237q82 79 216 86q8 1 17 1h3q66 0 163 -16.5t97 -41.5v-194h-51q-5 81 -80 132q-70 47 -149 51h-15q-78 0 -125 -44.5t-47 -117.5q0 -132 287 -269q149 -67 204.5 -143.5t55.5 -187.5q0 -171 -101 -282q-47 -39 -99 -64
q108 -56 154 -118q55 -77 55 -187q0 -171 -101 -283q-124 -102 -277 -105v1q-6 -1 -13 -1h-3q-66 0 -163 16.5t-97 41.5v194h51q5 -81 80 -132q68 -45 145 -50z" />
    <glyph glyph-name="dieresis" unicode="&#xa8;" horiz-adv-x="1024" 
d="M223 1289l71 72q13 12 25 12q11 0 27 -14l69 -73q10 -14 10 -25q0 -13 -12 -27l-69 -75q-17 -17 -25 -17q-14 0 -25 12l-76 86q-9 12 -9 23q0 13 14 26zM588 1289l71 72q13 12 25 12q11 0 27 -13l69 -74q10 -14 10 -25q0 -13 -12 -26l-69 -76q-17 -17 -25 -17
q-14 0 -25 12l-76 87q-9 11 -9 22q0 13 14 26z" />
    <glyph glyph-name="copyright" unicode="&#xa9;" horiz-adv-x="2078" 
d="M939 -217v0q194 0 364.5 73t299 202t202 299t73.5 365q0 194 -73.5 364t-202 299t-299 202.5t-364.5 73.5t-364.5 -73.5t-299.5 -202.5t-202 -299t-73 -364q0 -195 73 -365t202 -299t299.5 -202t364.5 -73zM939 1612v0q184 0 345.5 -69.5t283.5 -191.5t191.5 -283.5
t69.5 -345.5q0 -185 -69.5 -346.5t-191.5 -283.5t-283.5 -191.5t-345.5 -69.5t-346 69.5t-284 191.5t-191.5 283.5t-69.5 346.5q0 184 69.5 345.5t191.5 283.5t284 191.5t346 69.5zM939 3v0q198 0 361 97t260 260.5t97 361.5t-97 361t-260 260t-361 97t-361 -97t-260.5 -260
t-97.5 -361t97.5 -361.5t260.5 -260.5t361 -97zM939 1391v0q184 0 336 -90.5t242.5 -242.5t90.5 -336q0 -185 -90.5 -337t-242.5 -242.5t-336 -90.5q-185 0 -337 90.5t-242.5 242.5t-90.5 337q0 184 90.5 336t242.5 242.5t337 90.5zM951 158v0q181 0 332 109q8 5 16 11v1v0
q35 34 35 80q0 45 -32 77t-77 32q-37 0 -67 -22q-94 -69 -207 -69q-142 0 -243.5 101t-101.5 244q0 142 101.5 243.5t243.5 101.5q111 0 204 -67q32 -25 70 -25q45 0 77 32t32 77q0 55 -49 91q-152 110 -334 110q-155 0 -283 -76t-204 -204t-76 -283q0 -156 76 -283.5
t204 -204t283 -76.5zM951 1236v0q167 0 306 -100l1 -1q28 -20 28 -51q0 -25 -18 -43t-43 -18q-22 0 -39 14q-1 1 -2 1q-106 77 -233 77q-108 0 -197.5 -53t-142.5 -142.5t-53 -197.5q0 -109 53 -198.5t142.5 -142.5t197.5 -53q129 0 237 79q16 13 37 13q25 0 43 -18t18 -43
t-20 -45v0v0q-4 -4 -9 -7q-1 0 -2 -1q-139 -99 -304 -99q-142 0 -258.5 69.5t-186.5 186.5t-70 259q0 141 70 258t186.5 186.5t258.5 69.5z" />
    <glyph glyph-name="ordfeminine" unicode="&#xaa;" horiz-adv-x="648" 
 />
    <glyph glyph-name="guillemotleft" unicode="&#xab;" horiz-adv-x="944" 
d="M174 479l342 303h14v-37l-205 -266l205 -266v-37h-14zM487 479l342 303h14v-37l-205 -266l205 -266v-37h-14z" />
    <glyph glyph-name="logicalnot" unicode="&#xac;" horiz-adv-x="1014" 
d="M87 767h840v-491l-1 -1h-98v392h-741v100z" />
    <glyph glyph-name="registered" unicode="&#xae;" horiz-adv-x="1674" 
d="M751 1099v-374l3 -8q23 -56 56 -81q29 -22 56 -22h6q31 4 61.5 38.5t46.5 97.5q13 50 13 103q0 13 -1 27q-4 67 -28 124.5t-56.5 76t-63.5 18.5h-93zM984 576l82 -116q100 -141 150 -141h34v-50h-346v50h45q30 0 30 22q0 29 -69 114l-75 102q-42 0 -84 42v-159
q0 -121 36 -121h53v-50h-316v50h43q37 0 37 121v538q0 121 -37 121h-43v70h356q64 -1 125 -42q60 -41 92.5 -114t32.5 -152q0 -78 -32 -150.5t-114 -134.5zM840 1456q145 0 280 -56.5t239 -160.5q102 -101 158.5 -238t56.5 -283q0 -147 -56.5 -282t-162.5 -240
q-105 -105 -239 -159.5t-283 -54.5q-146 0 -278 55.5t-238 160.5q-106 104 -161.5 237.5t-55.5 282.5q0 148 55.5 283t159.5 238q102 104 238.5 160.5t286.5 56.5zM357 1197q-95 -96 -146 -219.5t-51 -259.5q0 -137 51 -259t148 -219q98 -96 219 -147t256 -51
q137 0 259.5 50.5t219.5 145.5q97 98 149 221.5t52 258.5q0 134 -52 259.5t-145 219.5q-96 96 -220 147.5t-258 51.5q-137 0 -262 -51.5t-220 -147.5z" />
    <glyph glyph-name="macron" unicode="&#xaf;" 
d="M852 1452v0q55 0 93.5 38.5t38.5 93.5q0 54 -38.5 93t-93.5 39h-720q-54 0 -93 -39t-39 -93q0 -55 39 -93.5t93 -38.5h720zM132 1667v0h720q35 0 59.5 -24.5t24.5 -58.5q0 -35 -24.5 -59.5t-59.5 -24.5h-720q-34 0 -58.5 24.5t-24.5 59.5q0 34 24.5 58.5t58.5 24.5z" />
    <glyph glyph-name="degree" unicode="&#xb0;" horiz-adv-x="674" 
d="M339 1372q-86 0 -147.5 -61t-61.5 -148t61 -147t148 -60t147 60t60 147t-60.5 148t-146.5 61zM339 1442q115 0 196 -81.5t81 -196.5q0 -114 -82 -196t-197 -82q-117 0 -197 81t-80 197t81.5 197t197.5 81z" />
    <glyph glyph-name="plusminus" unicode="&#xb1;" horiz-adv-x="1014" 
 />
    <glyph glyph-name="uni00B2" unicode="&#xb2;" horiz-adv-x="1014" 
 />
    <glyph glyph-name="uni00B3" unicode="&#xb3;" horiz-adv-x="1014" 
 />
    <glyph glyph-name="acute" unicode="&#xb4;" horiz-adv-x="1024" 
d="M607 1375q35 35 55.5 47t40.5 12q33 0 53.5 -20t20.5 -51q0 -22 -15.5 -42t-46.5 -40l-330 -203h-69z" />
    <glyph glyph-name="mu" unicode="&#xb5;" horiz-adv-x="1180" 
 />
    <glyph glyph-name="paragraph" unicode="&#xb6;" horiz-adv-x="1024" 
d="M929 1435v-70h-127v-1365h-82v1365h-166v-1365h-84v738q-174 8 -275.5 102.5t-101.5 245.5q0 157 107.5 253t285.5 96h443z" />
    <glyph glyph-name="periodcentered" unicode="&#xb7;" horiz-adv-x="508" 
d="M145 740l82 84q15 14 29 14q13 0 31 -16l80 -86q12 -16 12 -29q0 -15 -14 -31l-80 -88q-20 -20 -29 -20q-16 0 -29 14l-88 101q-10 13 -10 26q0 15 16 31z" />
    <glyph glyph-name="periodcentered" unicode="&#x2219;" horiz-adv-x="508" 
d="M145 740l82 84q15 14 29 14q13 0 31 -16l80 -86q12 -16 12 -29q0 -15 -14 -31l-80 -88q-20 -20 -29 -20q-16 0 -29 14l-88 101q-10 13 -10 26q0 15 16 31z" />
    <glyph glyph-name="cedilla" unicode="&#xb8;" horiz-adv-x="1024" 
d="M360 -290q85 -52 152 -52q66 0 94.5 21.5t28.5 66.5t-49 64q-40 16 -102 16q-16 0 -34 -2l48 176h63l-37 -104q32 4 62 5q86 0 134 -40.5t48 -113.5q0 -76 -58.5 -120.5t-160.5 -44.5q-109 0 -189 32v96z" />
    <glyph glyph-name="uni00B9" unicode="&#xb9;" horiz-adv-x="1014" 
 />
    <glyph glyph-name="ordmasculine" unicode="&#xba;" horiz-adv-x="718" 
 />
    <glyph glyph-name="guillemotright" unicode="&#xbb;" horiz-adv-x="944" 
d="M115 176h-14v37l205 266l-205 266v37h14l342 -303zM428 176h-14v37l205 266l-205 266v37h14l342 -303z" />
    <glyph glyph-name="onequarter" unicode="&#xbc;" horiz-adv-x="1708" 
 />
    <glyph glyph-name="onehalf" unicode="&#xbd;" horiz-adv-x="1964" 
 />
    <glyph glyph-name="threequarters" unicode="&#xbe;" horiz-adv-x="1708" 
 />
    <glyph glyph-name="questiondown" unicode="&#xbf;" horiz-adv-x="1178" 
d="M441 0v0h6h91q7 0 14 1l185 -1h108q55 0 94 39t39 94t-40 95.5t-95 40.5l-122 -1h-31h-15h-133.5h-100.5q-66 0 -111.5 45.5t-45.5 112.5q0 3 -1 6q4 65 48.5 107.5t108.5 42.5h107h138h6h29l122 -2q56 0 99 45q35 38 36 90v14v24.5t0.5 24t0.5 12.5v217q0 55 -39 94
t-94 39t-94.5 -39t-39.5 -94v-158l-270 -2q-201 0 -325 -123q-115 -125 -113 -300q-3 -118 54 -220l2 -4l7 -9q33 -53 81 -93q96 -100 262 -97q16 -1 32 -1zM550 50v0q-1 0 -2 -1h-10h-97v0q-3 0 -6 -1q-12 0 -24 1h-1q-89 1 -141 23t-89 61l-2 2q-42 35 -71 83q-1 2 -2 3
l-7 8q-49 91 -47 194v1q-2 156 100 266q106 109 290 109l294 2q9 0 16 6l1 1q8 7 8 18v181q0 35 25 59.5t60 24.5t59.5 -24.5t24.5 -59.5v-217v-14.5t-0.5 -29t-0.5 -31.5q0 -32 -23 -57v0v0q-28 -29 -62 -29l-123 1h-29h-140.5h-110.5q-86 0 -144.5 -58t-61.5 -146
q0 -4 1 -7q5 -87 63 -143.5t143 -56.5h95.5h128.5h26h30l122 1q35 0 60.5 -26t25.5 -61t-24.5 -60t-59.5 -25h-108l-186 2h-1zM844 1175v0q55 0 94.5 39t39.5 94t-39.5 94.5t-94.5 39.5t-94 -39.5t-39 -94.5t39 -94t94 -39zM844 1393v0q35 0 60 -25t25 -60t-25 -60t-60 -25
t-60 25t-25 60t25 60t60 25z" />
    <glyph glyph-name="Agrave" unicode="&#xc0;" horiz-adv-x="1551" 
d="M1211 -1v0q28 0 53 12q49 22 69 72q18 50 -3 99l-532 1170q-13 29 -38 50q-9 8 -20 15l-2 1l-8 4v0q-1 1 -2 1q-1 1 -2 1l-10 4h-1q-39 12 -77 1q-4 -1 -7 -3h-2q-1 -1 -3 -2q-1 0 -2 -1q-2 -1 -5 -2l-1 -1l-4 -2q-3 -1 -5 -3q-4 -2 -7 -5h-1l-8 -6q-27 -22 -40 -52
l-532 -1170q-21 -49 -3 -99q20 -50 69 -72q25 -12 53 -12q38 0 70 20.5t48 56.5l418 918l417 -918q36 -73 118 -77v0zM676 1077v0q-15 0 -23 -14l-439 -967q-26 -48 -74 -48q-17 0 -33 7q-31 14 -43 45q-12 32 2 62l531 1170q9 20 27 34l1 1q2 2 5 4v0v0v0v0q2 2 5 3
q2 1 3 2l1 1v0h1q2 1 3 2v0v0q1 0 2 1l4 1v0q2 1 3 1q23 8 47 0h1q4 -1 6 -2l1 -1q1 0 2 -1q3 -1 5 -3h0.5h0.5v0q7 -4 13 -9q0 -1 1 -1q17 -14 25 -33l531 -1170q14 -30 2 -62q-12 -31 -42 -45q-17 -7 -34 -7v0q-51 2 -74 48l-439 967q-8 14 -22 14zM804 -1v0q56 0 95 39.5
t39 94.5t-39 94.5t-95 39.5h-257q-56 0 -95 -39.5t-39 -94.5t39 -94.5t95 -39.5h257zM547 218v0h257q36 0 61 -25t25 -60t-25 -60t-61 -25h-257q-36 0 -61 25t-25 60t25 60t61 25zM756 1459v0q45 0 83 29q43 35 50 89q5 55 -28 99l-161 201q-43 51 -105 51q-45 0 -83 -29
q-43 -35 -50 -90q-5 -55 29 -98l160 -202q41 -49 105 -50v0zM595 1879v0q39 0 67 -32l161 -201q21 -28 18 -63q-5 -35 -32 -57q-24 -19 -53 -19v0q-41 1 -67 32l-160 202q-22 28 -19 63q5 35 32 57q24 18 53 18z" />
    <glyph glyph-name="Aacute" unicode="&#xc1;" horiz-adv-x="1551" 
d="M1211 -1v0q27 0 53 12q49 22 68 72t-3 100l-531 1169q-13 29 -38 50q-10 9 -20 15l-2 1q-4 2 -9 4h1q-2 1 -3 1q-1 1 -2 1q-4 2 -9 4h-2q-39 13 -77 1q-3 -1 -6 -3h-2q-2 -1 -3 -1q-1 -1 -3 -1q-2 -1 -4 -3l-2 -1q-1 0 -3 -1q-3 -2 -5 -3l-8 -6h-1q-4 -3 -7 -6
q-27 -22 -41 -52l-531 -1169q-21 -50 -3 -100q20 -50 68 -72q26 -12 53 -12q39 0 70.5 21t48.5 56l417 919l417 -919q37 -73 119 -77v0zM675 1078v0q-14 0 -22 -15l-439 -967q-27 -48 -75 -48q-17 0 -33 7q-30 14 -43 45q-11 32 2 63l532 1169q8 20 26 34q1 0 1 1q3 2 5 4v0
h0.5h0.5q2 2 5 3l2 2t2 1v0l1 1q1 0 2 1v0h1q1 0 2 1l3 1h1q1 1 3 1q23 8 47 0h1q4 -1 6 -2l1 -1h1q3 -2 6 -3v-0.5t0.5 -0.5h0.5q7 -4 12 -9l1 -1q17 -14 26 -33l531 -1169q13 -31 2 -63q-12 -31 -43 -45q-16 -7 -33 -7v0q-51 2 -74 48l-440 967q-8 15 -22 15zM804 -1v0
q55 0 94.5 39.5t39.5 94.5q0 56 -39.5 95t-94.5 39h-258q-55 0 -94.5 -39t-39.5 -95q0 -55 39.5 -94.5t94.5 -39.5h258zM546 218v0h258q35 0 60 -25t25 -60t-25 -60t-60 -25h-258q-35 0 -60 25t-25 60t25 60t60 25zM595 1459v0q61 0 104 50l161 202q34 43 28 98t-49 90
q-38 29 -83 29q-62 0 -105 -50l-161 -202q-34 -43 -28 -98q7 -55 49 -90q38 -29 84 -29zM756 1880v0q29 0 53 -19q27 -22 31 -57t-18 -63l-161 -201q-27 -33 -66 -33q-30 0 -53 19q-28 22 -32 57t18 63l161 201q27 33 67 33z" />
    <glyph glyph-name="Acircumflex" unicode="&#xc2;" horiz-adv-x="1551" 
d="M792 -2v0q56 0 95 39.5t39 94.5t-39 94.5t-95 39.5h-257q-56 0 -95 -39.5t-39 -94.5t39 -94.5t95 -39.5h257zM535 217v0h257q36 0 61 -25t25 -60t-25 -60t-61 -25h-257q-36 0 -61 25t-25 60t25 60t61 25zM1212 -2v0q27 0 53 12q48 22 68 72q18 50 -3 99l-531 1170
q-13 29 -39 50q-9 8 -20 15l-1 1q-4 2 -9 4v0q-1 1 -2 1q-1 1 -2 1q-4 2 -10 4h-1q-39 12 -77 1q-3 -1 -6 -3h-2q-2 -1 -3 -2q-2 0 -3 -1l-4 -2l-2 -1l-4 -2t-5 -3q-4 -2 -7 -5h-1l-8 -6q-26 -22 -40 -52l-531 -1170q-22 -49 -3 -99t68 -72q26 -12 53 -12q38 0 70 21t49 56
l417 919l417 -919q37 -73 119 -77v0zM676 1076v0q-14 0 -22 -14l-440 -967q-26 -48 -74 -48q-17 0 -33 7q-31 14 -43 45q-11 32 2 62l531 1170q9 20 27 34l1 1q2 2 5 4v0v0v0v0q3 2 5 3t3 2q1 0 1 1h1h1l2 2v0h1l1 1l4 1h1q1 1 2 1q24 8 47 0h2l6 -2q0 -1 1 -1l1 -1l6 -2v-1
v0v0q7 -4 13 -9l1 -1q17 -14 25 -33l532 -1170q13 -30 2 -62q-13 -31 -43 -45q-16 -7 -33 -7v0q-52 2 -75 48l-439 967q-8 14 -22 14zM837 1458v0q45 0 83 29q43 35 50 90q5 54 -29 98l-160 202q-27 33 -69 45h-1q-6 2 -11 3h-2h-1q-5 1 -9 1q-2 1 -5 1h-14q-3 0 -5 -1
q-5 0 -9 -1h-1v0h-2q-6 -1 -11 -3h-1q-42 -12 -69 -45l-161 -202q-34 -44 -28 -98q7 -55 50 -90q36 -29 83 -29v0q61 0 105 50l56 71l56 -71q43 -50 105 -50zM676 1642v0q-11 0 -19 -9l-75 -95q-28 -32 -67 -32q-30 0 -53 19q-27 22 -32 57q-3 35 18 63l161 201q17 22 44 29
v0v0v0q4 1 7 2h2q3 1 6 1h3v0h10v0h3t5 -1h2q4 -1 7 -2h1q27 -7 44 -29l160 -201q22 -28 18 -63t-31 -57q-24 -19 -53 -19q-39 0 -67 32l-75 95q-8 9 -19 9v0z" />
    <glyph glyph-name="Atilde" unicode="&#xc3;" horiz-adv-x="1551" 
d="M792 0v0q55 0 94 39t39 94q0 56 -39 95t-94 39h-258q-56 0 -95 -39t-39 -95q0 -55 39 -94t95 -39h258zM534 219v0h258q35 0 60 -25t25 -61q0 -35 -25 -60t-60 -25h-258q-36 0 -61 25t-25 60q0 36 25 61t61 25zM1211 0v0q27 0 53 11q49 23 68 72q19 51 -3 100l-531 1170
q-13 28 -38 49q-10 9 -21 15l-1 1q-4 2 -9 5v-1l-2 2h-2q-4 2 -9 4q-1 0 -2 1q-39 12 -77 0l-6 -2l-2 -1q-2 -1 -3 -1q-1 -1 -3 -1l-4 -2l-2 -1q-2 -1 -3 -2q-3 -2 -5 -3q-4 -3 -8 -5l-1 -1q-4 -3 -7 -6q-27 -21 -41 -51l-531 -1170q-21 -49 -3 -100q20 -49 68 -72
q26 -11 53 -11q39 0 70.5 20.5t48.5 55.5l417 919l417 -919q37 -73 119 -76v0zM675 1078v0q-14 0 -22 -14l-439 -968q-27 -48 -75 -48q-17 0 -33 7q-30 14 -43 46q-11 31 2 62l532 1170q8 19 26 33l1 1q2 2 5 4v0v0v0h0.5h0.5l4 4q2 1 3 1q1 1 2 1v0l1 1q1 0 2 1v0v0h1
q1 1 2 1l3 1l1 1q1 0 3 1q23 7 47 0v0q0 -1 1 -1q4 -1 6 -2h1l1 -1q3 -2 6 -3v0l0.5 -0.5l0.5 -0.5q6 -4 12 -9q1 0 1 -1q17 -14 26 -32l531 -1170q13 -31 2 -62q-13 -32 -43 -46q-16 -7 -33 -7v0q-52 2 -75 48l-439 968q-8 14 -22 14zM514 1459v0q62 0 105 51l56 70l56 -70
q37 -45 95 -50q1 0 2 -1h1h7h2q61 0 104 50l161 202q34 44 28 99q-6 54 -49 89q-38 29 -83 29q-62 0 -105 -50l-57 -72l-57 72q-27 33 -69 45l-1 1q-6 1 -11 2h-2v0l-1 1q-4 0 -9 1h-5h-14h-5q-5 -1 -9 -1l-1 -1v0h-2q-5 -1 -11 -2l-1 -1q-42 -12 -69 -45l-161 -202
q-33 -43 -28 -98q7 -55 50 -90q38 -29 83 -29v0zM675 1880v0h5v0v0q1 -1 3 -1h5l3 -1q3 0 6 -1h0.5h0.5q27 -8 44 -29l76 -96q8 -9 19 -9t19 9l76 96q27 32 67 32q29 0 53 -19q27 -22 31 -57t-18 -63l-161 -201q-27 -32 -66 -32h-2h-4h-2q-37 3 -61 32l-75 94q-8 9 -19 9v0
q-11 0 -19 -9l-75 -94q-28 -32 -67 -32q-29 0 -53 18q-27 22 -32 57q-3 35 18 63l161 202q17 21 44 29v0h0.5h0.5q3 1 7 1l2 1h5q2 0 3 1h1v0h4z" />
    <glyph glyph-name="Adieresis" unicode="&#xc4;" horiz-adv-x="1551" 
d="M1211 0v0q27 0 53 12q49 22 68 72t-3 100l-531 1169q-13 29 -38 50q-10 8 -20 15l-2 1q-4 2 -9 4h1q-2 1 -3 1q-1 1 -2 1q-4 2 -9 4h-2q-39 13 -77 1q-3 -1 -6 -3h-2q-2 -1 -3 -1q-1 -1 -3 -1q-2 -2 -4 -3l-2 -1q-1 0 -3 -2q-3 -1 -5 -3q-4 -2 -8 -5h-1q-4 -3 -7 -6
q-27 -22 -41 -52l-531 -1170q-21 -49 -3 -99q20 -50 68 -72q26 -12 53 -12q39 0 70.5 21t48.5 56l417 919l417 -919q37 -73 119 -77v0zM675 1079v0q-14 0 -22 -15l-439 -967q-27 -48 -75 -48q-17 0 -33 7q-30 14 -43 45q-11 32 2 62l532 1170q9 20 26 34q1 0 1 1q3 2 5 4v0
v0h0.5h0.5q2 2 5 3l2 2t2 1v0l1 1q1 0 2 1v0v0h1q1 0 2 1l3 1h1q1 1 3 1q23 8 47 0h1q4 -1 6 -2q0 -1 1 -1t1 -1l6 -2v-1h0.5h0.5q7 -4 12 -9l1 -1q17 -14 26 -33l531 -1169q13 -31 2 -63q-12 -31 -43 -45q-16 -7 -33 -7v0q-51 2 -74 48l-440 967q-8 15 -22 15zM804 0v0
q55 0 94.5 39.5t39.5 94.5t-39.5 94.5t-94.5 39.5h-258q-55 0 -94.5 -39.5t-39.5 -94.5t39.5 -94.5t94.5 -39.5h258zM546 219v0h258q35 0 60 -25t25 -60t-25 -60t-60 -25h-258q-35 0 -60 25t-25 60t25 60t60 25zM535 1465v0q55 0 93.5 38.5t38.5 93.5t-38.5 94t-93.5 39
t-94 -39t-39 -94t39 -93.5t94 -38.5zM535 1681v0q35 0 59.5 -24.5t24.5 -59.5q0 -34 -24.5 -59t-59.5 -25t-59.5 25t-24.5 59q0 35 24.5 59.5t59.5 24.5zM812 1465v0q55 0 94 38.5t39 93.5t-39 94t-94 39t-93.5 -39t-38.5 -94t38.5 -93.5t93.5 -38.5zM812 1681v0
q35 0 59.5 -24.5t24.5 -59.5q0 -34 -24.5 -59t-59.5 -25t-59.5 25t-24.5 59q0 35 24.5 59.5t59.5 24.5z" />
    <glyph glyph-name="Aring" unicode="&#xc5;" horiz-adv-x="1550" 
d="M1211 0v0q27 0 53 11q48 23 68 73q18 50 -3 99l-531 1170q-13 29 -38 49q-10 9 -21 15l-1 1q-4 3 -9 5v0q-1 0 -2 1q-1 0 -2 1q-4 2 -9 3q-1 1 -2 1q-39 12 -77 0l-6 -2l-2 -1q-2 0 -3 -1q-1 0 -3 -1l-4 -2l-2 -1l-4 -2q-2 -2 -5 -3q-3 -2 -7 -5l-1 -1q-4 -3 -7 -6
q-27 -21 -41 -51l-531 -1170q-21 -49 -3 -99q20 -50 68 -73q26 -11 53 -11q39 0 70.5 20.5t48.5 55.5l417 919l417 -918q37 -74 119 -77v0zM675 1078v0q-14 0 -22 -14l-440 -968q-26 -48 -74 -48q-17 0 -33 8q-30 14 -43 45q-11 31 2 62l532 1170q8 19 26 33l1 1q2 2 5 4v0
v0.5v0.5v0q3 1 5 3q2 1 3 2h2v1h1q1 1 2 1v0q1 0 1 1h1l4 2h1q1 0 2 1q24 7 48 0h1q3 -2 6 -3h1q0 -1 1 -1q3 -1 6 -3v0h0.5h0.5q6 -4 12 -10q1 0 1 -1q17 -13 25 -32l532 -1170q13 -31 2 -62q-13 -31 -43 -45q-16 -8 -33 -8v0q-52 3 -75 49l-439 967q-8 14 -22 14zM804 0v0
q55 0 94.5 39t39.5 95q0 55 -39.5 94t-94.5 39h-258q-55 0 -94.5 -39t-39.5 -94q0 -56 39.5 -95t94.5 -39h258zM546 219v0h258q35 0 60 -25t25 -60q0 -36 -25 -61t-60 -25h-258q-35 0 -60 25t-25 61q0 35 25 60t60 25zM675 1464v0q55 0 94 39t39 94t-39 94t-94 39t-94 -39
t-39 -94t39 -94t94 -39zM675 1681v0q35 0 59.5 -24.5t24.5 -59.5t-24.5 -59.5t-59.5 -24.5t-59.5 24.5t-24.5 59.5t24.5 59.5t59.5 24.5z" />
    <glyph glyph-name="AE" unicode="&#xc6;" horiz-adv-x="2262" 
d="M804 -1v0q56 0 95 39t39 94q0 56 -39 95t-95 39h-258q-55 0 -94 -39t-39 -95q0 -55 39 -94t94 -39h258zM546 218v0h258q36 0 61 -25t25 -61q0 -35 -25 -60t-61 -25h-258q-35 0 -60 25t-25 60q0 36 25 61t60 25zM1930 1167v0q55 0 93.5 39t38.5 94q0 54 -38.5 93t-93.5 39
h-719q-55 0 -94 -39t-39 -93q0 -55 39 -94t94 -39h719zM1211 1383v0h719q35 0 59.5 -24.5t24.5 -58.5q0 -35 -24.5 -59.5t-59.5 -24.5h-719q-35 0 -59.5 24.5t-24.5 59.5q0 34 24.5 58.5t59.5 24.5zM140 -1v0q38 0 70 20.5t48 55.5l417 919l409 -901q8 -24 24 -44
q43 -50 103 -50q12 0 23 2h696q55 0 93.5 38.5t38.5 93.5q0 54 -38.5 93t-93.5 39h-583v322h123q55 0 94.5 39.5t39.5 94.5t-39.5 94.5t-94.5 39.5h-258q-52 0 -89.5 -34.5t-43.5 -87.5l-281 618q-13 29 -38 50q-9 9 -20 15l-2 1l-8 4v0q-2 1 -3 2h-1l-10 4q-1 0 -2 1
q-39 12 -77 0l-6 -2l-2 -1q-1 -1 -3 -1q-1 -1 -2 -1q-3 -1 -5 -3h-2q-1 -1 -3 -2q-3 -2 -5 -3q-4 -3 -8 -5v-1l-8 -6q-27 -21 -40 -51l-532 -1170q-21 -49 -3 -100q20 -50 68 -72q26 -11 54 -11zM643 1378v0q1 1 2 1l4 1v1q1 0 3 1q23 7 47 0l1 -1q4 -1 6 -2h1v-1h2
q2 -2 5 -3h0.5t0.5 -0.5v-0.5q7 -4 13 -9q0 -1 1 -1q16 -14 25 -33l327 -719q3 -8 10.5 -11.5t16.5 -1.5q8 2 13.5 8.5t5.5 14.5v96v1v1v1q0 35 25 60t60 25h258q35 0 60 -25t25 -60t-25 -60t-60 -25h-148q-10 0 -17 -7t-7 -17v-371q0 -10 7 -17.5t17 -7.5h608
q35 0 59.5 -24.5t24.5 -58.5q0 -35 -24.5 -59.5t-59.5 -24.5h-698h-5q-8 -2 -16 -2q-38 0 -64 32h-1v0q-11 13 -16 30q0 1 -1 3l-432 950q-7 15 -22 15q-14 0 -22 -15l-439 -967q-26 -48 -74 -48q-18 0 -34 7q-30 14 -42 46q-12 31 2 62l531 1170q9 19 26 33q1 0 1 1
q3 2 5 4h1v0v0v0q2 2 5 4q1 1 3 1q0 1 1 1v0l1 1q1 0 2 1h1v0z" />
    <glyph glyph-name="Ccedilla" unicode="&#xc7;" horiz-adv-x="1403" 
d="M718 -265v0q55 0 94 39.5t39 94.5v143q159 31 289 126q11 6 20 14v0v0q43 43 43 99q0 55 -39 94.5t-95 39.5q-45 0 -81 -28q-123 -90 -271 -90q-124 0 -226.5 60.5t-163 163t-60.5 226.5q0 125 60.5 227t163 163t226.5 61q145 0 267 -87q39 -31 85 -31q56 0 95 39t39 94
q0 68 -60 112q-194 140 -426 140q-198 0 -360.5 -97t-259.5 -260t-97 -361q0 -258 174 -468q165 -189 410 -237v-143q0 -55 39 -94.5t95 -39.5zM717 1386v0q217 0 398 -131h1q39 -28 39 -72q0 -35 -25 -60t-61 -25q-30 0 -55 20q0 1 -1 1q-135 98 -296 98
q-137 0 -250.5 -67.5t-181 -181t-67.5 -251.5q0 -137 67.5 -250.5t181 -181t250.5 -67.5q164 0 300 100q24 18 52 18q36 0 61 -25t25 -60q0 -36 -28 -63v0v0q-6 -5 -13 -10q-1 0 -2 -1q-130 -94 -289 -120q-9 -2 -14.5 -8.5t-5.5 -15.5v-164q0 -35 -25 -60t-60 -25
q-36 0 -61 25t-25 60v163q0 9 -5.5 16t-14.5 8q-165 28 -291.5 121t-199.5 234t-73 306q0 185 90.5 337t242.5 242t336 90z" />
    <glyph glyph-name="Egrave" unicode="&#xc8;" 
d="M572 1457v0q45 0 83 30q43 34 50 89q5 55 -28 99l-161 201q-43 51 -105 51q-45 0 -83 -30q-43 -34 -50 -89q-5 -55 29 -99l160 -201q41 -49 105 -51v0zM411 1878v0q39 0 67 -32l161 -202q21 -27 18 -62q-5 -35 -32 -58q-24 -18 -53 -18v0q-39 0 -67 32l-160 202
q-22 27 -18 62t31 57q24 19 53 19zM851 1167v0q55 0 94 38.5t39 93.5t-39 93.5t-94 38.5h-719q-55 0 -93.5 -38.5t-38.5 -93.5t38.5 -93.5t93.5 -38.5h719zM132 1382v0h719q35 0 59.5 -24.5t24.5 -58.5q0 -35 -24.5 -59.5t-59.5 -24.5h-719q-35 0 -59.5 24.5t-24.5 59.5
q0 34 24.5 58.5t59.5 24.5zM851 0v0q55 0 94 38.5t39 93.5t-39 93.5t-94 38.5h-583v323h123q55 0 94.5 39t39.5 94q0 56 -39.5 95t-94.5 39h-258q-55 0 -94 -39t-39 -95v-1v-2v-582v-1v-2q0 -55 38.5 -93.5t93.5 -38.5h719zM133 806v0h258q35 0 60 -25t25 -61q0 -35 -25 -60
t-60 -25h-148q-10 0 -17 -7t-7 -17v-371q0 -10 7 -17t17 -7h608q35 0 59.5 -24.5t24.5 -59.5q0 -34 -24.5 -59t-59.5 -25h-719q-35 0 -59 24.5t-25 59.5v1v1v1v582v1v1v1q0 36 25 61t60 25z" />
    <glyph glyph-name="Eacute" unicode="&#xc9;" 
d="M412 1458v0q61 0 104 50l161 202q34 43 28 98t-49 90q-38 29 -83 29q-62 0 -105 -50l-161 -202q-34 -44 -28 -98q7 -55 49 -90q38 -29 84 -29zM573 1878v0q29 0 53 -18q27 -22 31 -57t-18 -63l-161 -202q-27 -32 -66 -32q-30 0 -53 19q-28 22 -32 57t18 63l161 201
q27 32 67 32zM852 1167v0q55 0 93.5 39t38.5 93q0 55 -38.5 93.5t-93.5 38.5h-720q-54 0 -93 -38.5t-39 -93.5q0 -54 39 -93t93 -39h720zM132 1383v0h720q35 0 59.5 -24.5t24.5 -59.5q0 -34 -24.5 -58.5t-59.5 -24.5h-720q-34 0 -58.5 24.5t-24.5 58.5q0 35 24.5 59.5
t58.5 24.5zM852 0v0q55 0 93.5 39t38.5 94q0 54 -38.5 93t-93.5 39h-584v322h124q55 0 94 39.5t39 94.5t-39 94.5t-94 39.5h-258q-56 0 -95 -39.5t-39 -94.5v-2v-2v-581v-2v-1q0 -55 39 -94t93 -39h720zM134 806v0h258q35 0 60 -25t25 -60t-25 -60t-60 -25h-148
q-10 0 -17 -7.5t-7 -17.5v-371q0 -10 7 -17t17 -7h608q35 0 59.5 -24.5t24.5 -58.5q0 -35 -24.5 -59.5t-59.5 -24.5h-720q-34 0 -58.5 24t-24.5 60v1v1v1v582v1v1v1q0 35 25 60t60 25z" />
    <glyph glyph-name="Ecircumflex" unicode="&#xca;" 
d="M852 1167v0q55 0 93.5 39t38.5 93q0 55 -38.5 93.5t-93.5 38.5h-720q-55 0 -93.5 -38.5t-38.5 -93.5q0 -54 38.5 -93t93.5 -39h720zM132 1383v0h720q34 0 59 -24.5t25 -59.5q0 -34 -25 -58.5t-59 -24.5h-720q-34 0 -58.5 24.5t-24.5 58.5q0 35 24.5 59.5t58.5 24.5z
M852 0v0q55 0 93.5 39t38.5 94q0 54 -38.5 93t-93.5 39h-584v322h123q56 0 95 39.5t39 94.5t-39 94.5t-95 39.5h-257q-56 0 -95 -39.5t-39 -94.5v-2v-2v-581v-2v-1q0 -55 38.5 -94t93.5 -39h720zM134 806v0h257q36 0 61 -25t25 -60t-25 -60t-61 -25h-147q-10 0 -17 -7.5
t-7 -17.5v-371q0 -10 7 -17t17 -7h608q34 0 59 -24.5t25 -58.5q0 -35 -25 -59.5t-59 -24.5h-720q-34 0 -58.5 24t-24.5 60v1v1v1v582v1v1v1q0 35 25 60t60 25zM653 1458v0q45 0 83 29q43 35 50 90q5 54 -28 98l-161 202q-27 33 -69 45h-1q-6 2 -11 3h-2h-1q-4 1 -9 1
q-2 1 -5 1h-14q-3 0 -5 -1q-5 0 -9 -1h-1h-2q-5 -1 -11 -3h-1q-42 -12 -69 -45l-161 -202q-33 -44 -28 -98q7 -55 50 -90q38 -29 83 -29v0q62 0 105 50l56 71l56 -71q44 -50 105 -50zM492 1642v0q-11 0 -19 -9l-75 -95q-28 -32 -67 -32q-29 0 -53 19q-27 22 -32 57
q-3 35 18 63l161 201q17 22 44 29v0h0.5h0.5q3 1 7 2h2q2 1 5 1h3h1q3 1 9 0v0h3q3 0 5 -1h3q3 -1 6 -1l1 -1q27 -7 44 -29l161 -201q21 -28 18 -63q-5 -35 -32 -57q-24 -19 -53 -19q-39 0 -67 32l-75 95q-8 9 -19 9v0z" />
    <glyph glyph-name="Edieresis" unicode="&#xcb;" 
d="M852 1167v0q54 0 93 38.5t39 93.5t-39 93.5t-93 38.5h-720q-55 0 -93.5 -38.5t-38.5 -93.5t38.5 -93.5t93.5 -38.5h720zM132 1382v0h720q34 0 58.5 -24.5t24.5 -58.5q0 -35 -24.5 -59.5t-58.5 -24.5h-720q-35 0 -59.5 24.5t-24.5 59.5q0 34 24.5 58.5t59.5 24.5zM852 0v0
q54 0 93 38.5t39 93.5t-39 93.5t-93 38.5h-584v323h123q56 0 95 39t39 94q0 56 -39 95t-95 39h-257q-56 0 -95 -39t-39 -95v-1v-2v-582v-1v-2q0 -55 38.5 -93.5t93.5 -38.5h720zM134 806v0h257q35 0 60 -25t25 -61q0 -35 -25 -60t-60 -25h-147q-10 0 -17.5 -7t-7.5 -17v-371
q0 -10 7.5 -17t17.5 -7h608q34 0 58.5 -24.5t24.5 -59.5q0 -34 -24.5 -59t-58.5 -25h-720q-35 0 -59 24.5t-25 59.5v1v1v1v582v1v1v1q0 36 25 61t61 25zM353 1458v0q55 0 94 39t39 94t-39 94t-94 39t-94 -39t-39 -94t39 -94t94 -39zM353 1675v0q35 0 59.5 -24.5t24.5 -59.5
t-24.5 -59.5t-59.5 -24.5t-59.5 24.5t-24.5 59.5t24.5 59.5t59.5 24.5zM630 1458v0q55 0 94 39t39 94t-39 94t-94 39q-54 0 -93 -39t-39 -94t39 -94t93 -39zM630 1675v0q35 0 60 -24.5t25 -59.5t-25 -59.5t-60 -24.5q-34 0 -59 24.5t-25 59.5t25 59.5t59 24.5z" />
    <glyph glyph-name="Igrave" unicode="&#xcc;" horiz-adv-x="638" 
d="M219 0v0q55 0 94 39t39 94v1178q0 55 -39 94t-94 39t-94 -39t-39 -94v-1178q0 -55 39 -94t94 -39zM219 1395v0q35 0 59.5 -24.5t24.5 -59.5v-1178q0 -35 -24.5 -59.5t-59.5 -24.5t-60 24.5t-25 59.5v1178q0 35 25 59.5t60 24.5zM299 1459v0q46 0 84 29q42 35 49 89
q6 55 -28 99l-161 201q-43 51 -105 51q-45 0 -83 -29q-43 -35 -49 -90t28 -98l161 -202q40 -49 104 -50v0zM138 1879v0q40 0 67 -32l161 -201q22 -28 18 -63t-32 -57q-23 -19 -53 -19v0q-40 1 -66 32l-161 202q-22 28 -18 63t31 57q24 18 53 18z" />
    <glyph glyph-name="Iacute" unicode="&#xcd;" horiz-adv-x="638" 
d="M219 0v0q55 0 94 39t39 94v1177q0 55 -39 94t-94 39t-94 -39t-39 -94v-1177q0 -55 39 -94t94 -39zM219 1395v0q35 0 59.5 -25t24.5 -60v-1177q0 -35 -24.5 -60t-59.5 -25t-60 25t-25 60v1177q0 35 25 60t60 25zM138 1458v0q62 0 105 50l161 202q34 44 28 98q-7 55 -49 90
q-39 29 -84 29q-61 0 -104 -50l-161 -202q-34 -43 -28 -98t49 -90q38 -29 83 -29zM299 1879v0q29 0 53 -19q28 -22 32 -57q3 -35 -18 -63l-161 -201q-27 -32 -67 -32q-29 0 -53 18q-27 22 -31 57t18 63l161 202q27 32 66 32z" />
    <glyph glyph-name="Icircumflex" unicode="&#xce;" horiz-adv-x="799" 
d="M299 -1v0q55 0 94 39t39 94v1177q0 55 -39 94t-94 39t-94 -39t-39 -94v-1177q0 -55 39 -94t94 -39zM299 1394v0q35 0 60 -25t25 -60v-1177q0 -35 -25 -60t-60 -25t-59.5 25t-24.5 60v1177q0 35 24.5 60t59.5 25zM460 1457v0q45 0 83 29q43 35 50 89q6 55 -28 99l-161 201
q-27 34 -69 46h-1q-5 1 -11 2q-1 1 -2 1h-1q-4 1 -9 1h-5q-6 1 -14 0h-5q-4 0 -9 -1h-1q-1 0 -2 -1q-5 -1 -11 -2h-1q-42 -12 -69 -46l-160 -201q-34 -44 -29 -99q7 -54 50 -89q38 -29 83 -29q62 0 105 50l56 71l56 -71q41 -49 105 -50v0zM299 1641v0q-11 0 -19 -9l-75 -95
q-28 -32 -67 -32q-29 0 -53 19q-27 22 -32 57q-3 35 19 62l160 202q17 21 44 29v0h0.5h0.5q3 1 7 2h2q2 0 5 1h3h1h9v0h3q3 -1 5 -1h3l6 -2h1q27 -8 44 -29l161 -202q21 -27 18 -62q-5 -35 -32 -57q-24 -19 -53 -19v0q-39 0 -67 32l-75 95q-8 9 -19 9v0z" />
    <glyph glyph-name="Idieresis" unicode="&#xcf;" horiz-adv-x="743" 
d="M271 -1v0q55 0 94 39t39 94v1177q0 55 -39 94t-94 39t-94 -39t-39 -94v-1177q0 -55 39 -94t94 -39zM271 1394v0q35 0 60 -25t25 -60v-1177q0 -35 -25 -59.5t-60 -24.5q-34 0 -59 24.5t-25 59.5v1177q0 35 25 60t59 25zM133 1458v0q55 0 93.5 39t38.5 94t-38.5 94
t-93.5 39t-94 -39t-39 -94t39 -94t94 -39zM133 1675v0q35 0 59.5 -24.5t24.5 -59.5t-24.5 -59.5t-59.5 -24.5t-59.5 24.5t-24.5 59.5t24.5 59.5t59.5 24.5zM410 1458v0q55 0 94 39t39 94t-39 94t-94 39t-94 -39t-39 -94t39 -94t94 -39zM410 1675v0q35 0 59.5 -24.5
t24.5 -59.5t-24.5 -59.5t-59.5 -24.5t-59.5 24.5t-24.5 59.5t24.5 59.5t59.5 24.5z" />
    <glyph glyph-name="Eth" unicode="&#xd0;" horiz-adv-x="1532" 
d="M614 0v0q17 0 35 1h9q13 0 26 3q272 29 460 230q188 214 188 484q0 198 -97 361t-260 260t-361 97h-199.5h-111.5h-3q-2 0 -5 -1l-13 1q-55 0 -93.5 -39t-38.5 -94q0 -54 38.5 -93t93.5 -39h332q124 0 226.5 -61t163.5 -164t61 -228q0 -124 -61 -226.5t-163.5 -163.5
t-226.5 -61h-95t-103 -1v320h125q56 0 95 39t39 95q0 55 -39 94t-95 39h-408q-55 0 -94 -39t-39 -94q0 -56 39 -95t94 -39h17v-450v-1v-2q0 -54 38.5 -93t93.5 -39h18h1q17 0 111 -0.5t202 -0.5zM133 805v0h408q36 0 61 -25t25 -60q0 -36 -25 -61t-61 -25h-150q-10 0 -17 -7
t-7 -17v-368q0 -10 7 -17q8 -7 18 -7q52 0 114 0.5t108 0.5q138 0 251 67.5t180.5 180.5t67.5 251t-67.5 252t-180.5 182t-251 68h-332q-35 0 -59.5 24.5t-24.5 58.5q0 35 24 59t60 25h18h6h115h193q184 0 336 -90.5t242.5 -242.5t90.5 -336q0 -173 -79.5 -318.5
t-215.5 -237.5t-310 -110h-2q-9 -2 -18 -2h-10h-1q-17 -1 -33 -1q-110 0 -205 0.5t-108 0.5h-1h-18q-35 0 -59.5 24.5t-24.5 58.5v477q0 10 -7 17t-17 7h-41q-35 0 -60 25t-25 61q0 35 25 60t60 25z" />
    <glyph glyph-name="Ntilde" unicode="&#xd1;" horiz-adv-x="1298" 
d="M965 -1v0q55 0 94 39t39 94v1178q0 55 -39 94t-94 39t-94 -39t-39 -94v-1178q0 -55 39 -94t94 -39zM965 1394v0q35 0 60 -24.5t25 -59.5v-1178q0 -35 -25 -59.5t-60 -24.5t-59.5 24.5t-24.5 59.5v1178q0 35 24.5 59.5t59.5 24.5zM133 -1v0q55 0 94 39t39 94v857l186 -186
q39 -38 93 -39v0q54 0 94 39q39 39 39 94t-38 94l-413 413v0v0h-1v0v0v1q-5 4 -9 8q-1 0 -2 1v0q-5 4 -8 6q-2 1 -3 2h-1q-3 3 -7 5l-4 2q-4 2 -8 3l-4 2q-4 2 -8 3q-2 0 -4 1v0q-5 1 -9 2q-1 0 -2 1v0h-1q-5 1 -10 1h-2v0q-6 1 -11 1q-55 0 -94 -39t-39 -94v-1178
q0 -55 39 -94t94 -39zM133 1394v0h7h1q3 0 6 -1h2q3 -1 7 -2v0h1l6 -2q1 -1 2 -1q3 -1 5 -3q1 0 3 -1t4 -3h1v0q1 -1 2 -1q2 -2 5 -4l1 -1q3 -2 6 -5v-1v0l413 -413q25 -24 25 -59q-1 -35 -25 -60q-26 -25 -60 -25v0q-33 0 -59 25l-228 228q-11 10 -26 5q-15 -8 -15 -23
v-915q0 -35 -25 -59.5t-59 -24.5q-35 0 -60 24.5t-25 59.5v1178q0 35 24.5 59t60.5 25zM388 1463v0q61 0 104 50l57 71l56 -71q37 -44 95 -50h2h1h1h6h1v0q62 0 105 50l161 202q34 43 28 98q-7 55 -49 90q-39 29 -84 29q-61 0 -104 -50l-57 -72l-57 72q-27 33 -69 45h-1
q-6 2 -11 3h-2h-1q-5 1 -9 2h-5h-14h-5q-5 -1 -9 -2h-1h-2q-6 -1 -11 -3h-1q-42 -12 -69 -45l-161 -202q-34 -43 -28 -98q7 -55 49 -90q39 -29 84 -29zM549 1884v0q2 0 4 -1h1v0h3t5 -1h2q4 0 7 -1l0.5 -0.5l0.5 -0.5v0q27 -7 44 -28l76 -96q8 -9 19 -9t19 9l76 95
q27 33 66 33q29 0 53 -19q28 -22 32 -57q3 -35 -18 -63l-161 -201q-27 -32 -67 -32h-1h-4v0h-2q-37 3 -61 32l-75 94q-8 9 -19 9t-19 -9l-75 -94q-28 -33 -67 -33q-29 0 -53 19q-27 22 -32 57q-3 35 18 63l161 202q17 21 44 28v0v0.5v0.5q4 1 7 1h2q3 1 6 1h3v0h1q1 1 4 1z
" />
    <glyph glyph-name="Ograve" unicode="&#xd2;" horiz-adv-x="1635" 
d="M717 -2v0q198 0 361 97t260 260t97 361t-97 361t-260 260t-361 97q-197 0 -360 -97t-260 -260t-97 -361t97 -361t260 -260t360 -97zM717 1385v0q185 0 337 -90.5t242 -242.5t90 -336t-90 -336t-242 -242.5t-337 -90.5q-184 0 -336 90.5t-242.5 242.5t-90.5 336t90.5 336
t242.5 242.5t336 90.5zM717 216v0q138 0 251.5 67.5t181 181t67.5 251.5t-67.5 251.5t-181 181t-251.5 67.5q-137 0 -250.5 -67.5t-181 -181t-67.5 -251.5t67.5 -251.5t181 -181t250.5 -67.5zM717 1167v0q125 0 227.5 -61t163.5 -163.5t61 -226.5t-61 -226.5t-163.5 -163.5
t-227.5 -61q-124 0 -226.5 61t-163.5 163.5t-61 226.5t61 226.5t163.5 163.5t226.5 61zM798 1460v0q45 0 83 29q43 35 50 90q5 55 -29 98l-160 202q-44 50 -105 50q-45 0 -83 -29q-43 -35 -50 -90q-5 -54 28 -98l161 -202q41 -49 105 -50v0zM637 1881v0q39 0 67 -32
l160 -202q22 -28 18 -63t-31 -57q-24 -19 -53 -19v0q-41 1 -67 33l-161 201q-21 28 -18 63q5 35 32 57q24 19 53 19z" />
    <glyph glyph-name="Oacute" unicode="&#xd3;" horiz-adv-x="1636" 
d="M718 0v0q198 0 361 97t260 259.5t97 360.5t-97 361t-260 260t-361 97t-361 -97t-260 -260t-97 -361t97 -360.5t260 -259.5t361 -97zM718 1386v0q184 0 336 -90.5t242.5 -242t90.5 -336.5q0 -184 -90.5 -336t-242.5 -242.5t-336 -90.5t-336 90.5t-242.5 242.5t-90.5 336
q0 185 90.5 336.5t242.5 242t336 90.5zM718 217v0q138 0 251.5 67.5t181 181t67.5 251.5t-67.5 251.5t-181 181t-251.5 67.5t-251.5 -67.5t-181 -181t-67.5 -251.5t67.5 -251.5t181 -181t251.5 -67.5zM718 1169v0q124 0 226.5 -61t163.5 -163.5t61 -227.5q0 -124 -61 -226.5
t-163.5 -163.5t-226.5 -61t-226.5 61t-163.5 163.5t-61 226.5q0 125 61 227.5t163.5 163.5t226.5 61zM638 1461v0q61 0 104 51l161 201q34 44 28 99q-7 54 -49 89q-38 29 -84 29q-61 0 -104 -50l-161 -202q-34 -43 -28 -98q7 -55 49 -90q38 -29 84 -29zM798 1882v0
q30 0 54 -19q27 -22 31 -57t-18 -63l-161 -201q-27 -32 -66 -32q-30 0 -53 18q-28 23 -32 57q-4 35 18 63l161 202q27 32 66 32z" />
    <glyph glyph-name="Ocircumflex" unicode="&#xd4;" horiz-adv-x="1635" 
d="M718 0v0q197 0 360 97t260 259.5t97 360.5t-97 361t-260 260t-360 97q-198 0 -361 -97t-260 -260t-97 -361t97 -360.5t260 -259.5t361 -97zM718 1386v0q184 0 336 -90.5t242.5 -242t90.5 -336.5q0 -184 -90.5 -336t-242.5 -242.5t-336 -90.5q-185 0 -337 90.5t-242 242.5
t-90 336q0 185 90 336.5t242 242t337 90.5zM718 217v0q137 0 250.5 67.5t181 181t67.5 251.5t-67.5 251.5t-181 181t-250.5 67.5q-138 0 -251.5 -67.5t-181 -181t-67.5 -251.5t67.5 -251.5t181 -181t251.5 -67.5zM718 1169v0q124 0 226.5 -61t163.5 -163.5t61 -227.5
q0 -124 -61 -226.5t-163.5 -163.5t-226.5 -61q-125 0 -227.5 61t-163.5 163.5t-61 226.5q0 125 61 227.5t163.5 163.5t227.5 61zM879 1461v0q45 0 83 29q43 35 49 90t-28 98l-161 202q-27 34 -68 45l-1 1q-6 1 -11 2q-1 0 -3 1v0q-5 0 -9 1h-5h-15h-5q-4 -1 -8 -1h-1
q-1 -1 -3 -1l-10 -2l-2 -1q-41 -11 -68 -45l-161 -202q-34 -43 -28 -98q7 -55 49 -90q37 -28 84 -29v0q61 0 104 51l57 70l56 -70q43 -51 105 -51zM718 1645v0q-11 0 -19 -9l-76 -94q-27 -32 -66 -32q-30 0 -53 18q-28 23 -32 57q-4 35 18 63l161 202q17 21 43 29h1v0v0
q4 1 7 1l2 1h6q1 1 3 1v0h9h1q1 0 2 -1h6l2 -1q3 0 7 -1h1q26 -8 43 -29l161 -202q22 -28 18 -63q-4 -34 -31 -57q-24 -18 -53 -18q-40 0 -67 32l-75 94q-8 9 -19 9v0z" />
    <glyph glyph-name="Otilde" unicode="&#xd5;" horiz-adv-x="1635" 
d="M718 0v0q197 0 360 97t260 260t97 361t-97 361t-260 259.5t-360 96.5q-198 0 -361 -96.5t-260 -259.5t-97 -361t97 -361t260 -260t361 -97zM718 1387v0q184 0 336 -90.5t242.5 -242.5t90.5 -336q0 -185 -90.5 -336.5t-242.5 -242t-336 -90.5q-185 0 -337 90.5t-242 242
t-90 336.5q0 184 90 336t242 242.5t337 90.5zM718 218v0q137 0 250.5 67.5t181 181t67.5 251.5t-67.5 251.5t-181 181t-250.5 67.5q-138 0 -251.5 -67.5t-181 -181t-67.5 -251.5t67.5 -251.5t181 -181t251.5 -67.5zM718 1169v0q124 0 226.5 -61t163.5 -163.5t61 -226.5
q0 -125 -61 -227t-163.5 -163t-226.5 -61q-125 0 -227.5 61t-163.5 163t-61 227q0 124 61 226.5t163.5 163.5t227.5 61zM553 1460v0q62 0 105 51l56 70l57 -70q37 -45 94 -50h3h1l1 -1h5h2q62 0 105 51l160 201q34 44 29 99q-7 54 -50 89q-38 29 -83 29q-62 0 -105 -50
l-57 -71l-57 71q-27 34 -68 45l-2 1l-10 2q-2 0 -3 1h-1q-4 0 -8 1h-6q-6 1 -14 0h-5q-4 -1 -9 -1v0q-2 -1 -3 -1q-5 -1 -11 -2l-1 -1q-41 -11 -68 -45l-161 -202q-34 -43 -29 -98q7 -55 50 -90q37 -28 83 -29v0zM715 1881v0h4v0q2 0 3 -1h6l2 -1q3 0 7 -1v0v0q27 -8 44 -29
l76 -96q8 -9 19 -9t19 9l76 96q28 32 67 32q29 0 53 -19q27 -22 31 -57t-18 -63l-160 -201q-28 -32 -67 -32h-2h-3h-1h-2q-37 3 -60 32l-76 94q-8 10 -19 10t-19 -10l-75 -94q-27 -32 -67 -32q-29 0 -53 18q-27 23 -31 57q-4 35 18 63l160 202q18 21 44 29h0.5h0.5v0
q4 1 7 1l2 1h6q1 1 2 1h1v0h5z" />
    <glyph glyph-name="Odieresis" unicode="&#xd6;" horiz-adv-x="1635" 
d="M717 0v0q198 0 361 97t260 260t97 361t-97 361t-260 260t-361 97t-360.5 -97t-259.5 -260t-97 -361t97 -361t259.5 -260t360.5 -97zM717 1387v0q185 0 337 -90.5t242 -242.5t90 -336q0 -185 -90 -336.5t-242 -242t-337 -90.5q-184 0 -336 90.5t-242.5 242t-90.5 336.5
q0 184 90.5 336t242.5 242.5t336 90.5zM717 218v0q138 0 251.5 67.5t181 181t67.5 251.5t-67.5 251.5t-181 181t-251.5 67.5t-251.5 -67.5t-181 -181t-67.5 -251.5t67.5 -251.5t181 -181t251.5 -67.5zM717 1169v0q125 0 227.5 -61t163.5 -163.5t61 -226.5q0 -125 -61 -227
t-163.5 -163t-227.5 -61q-124 0 -226.5 61t-163.5 163t-61 227q0 124 61 226.5t163.5 163.5t226.5 61zM575 1460v0q55 0 94 39t39 94t-39 94t-94 39t-93.5 -39t-38.5 -94t38.5 -94t93.5 -39zM575 1677v0q35 0 59.5 -24.5t24.5 -59.5t-24.5 -59.5t-59.5 -24.5t-59.5 24.5
t-24.5 59.5t24.5 59.5t59.5 24.5zM853 1460v0q54 0 93 39t39 94t-39 94t-93 39q-55 0 -94 -39t-39 -94t39 -94t94 -39zM853 1677v0q34 0 59 -24.5t25 -59.5t-25 -59.5t-59 -24.5q-35 0 -60 24.5t-25 59.5t25 59.5t60 24.5z" />
    <glyph glyph-name="multiply" unicode="&#xd7;" horiz-adv-x="973" 
d="M641 338v0q53 0 94 38q38 43 38 93.5t-38 93.5l-161 161l161 161q38 43 38 93.5t-38 93.5q-41 39 -94 39t-93 -39l-161 -161l-161 161q-41 39 -94 39t-93 -39q-39 -40 -39 -93t39 -94l161 -161l-161 -161q-39 -43 -39 -93.5t39 -93.5q40 -38 93 -38t94 38l161 161
l161 -161q40 -38 93 -38v0zM387 596v0q-10 0 -17 -7l-179 -178q-25 -25 -59 -25q-33 0 -59 25q-24 27 -24 59t24 59l178 178q7 8 7 17t-7 17l-178 178q-24 26 -24 60q0 33 24 59q26 24 59 24q34 0 59 -24l179 -178q7 -8 16.5 -8t17.5 8l178 178q26 24 59 24q34 0 59 -24
q25 -27 25 -59.5t-25 -59.5l-178 -178q-7 -8 -7 -17t7 -17l178 -178q25 -27 25 -59t-25 -59q-25 -25 -59 -25q-33 0 -59 25l-178 178q-8 7 -17 7z" />
    <glyph glyph-name="Oslash" unicode="&#xd8;" horiz-adv-x="1636" 
d="M393 -129v0q39 0 71.5 21t49.5 57l33 72q84 -21 171 -21q198 0 361 97t260 260t97 361q0 175 -80 329t-225 257l2 5q2 2 3 5l28 62q22 52 3.5 102t-69.5 75q-26 12 -55 12q-39 0 -71.5 -21t-49.5 -57l-33 -72q-84 20 -171 20q-198 0 -361 -97t-260 -259.5t-97 -360.5
q0 -176 80 -330t225 -257l-2 -4q-1 -3 -3 -6l-28 -62q-22 -52 -3.5 -101.5t69.5 -74.5q27 -12 55 -12zM718 1387v0q91 0 178 -24q9 -2 17 1.5t12 11.5l41 91q27 49 77 49q18 0 35 -8q32 -15 44 -46.5t-2 -64.5l-29 -63v-1l-2 -4l-10 -23q-4 -8 -1.5 -16.5t9.5 -13.5
q142 -96 221 -243t79 -315q0 -185 -90.5 -336.5t-242 -242t-336.5 -90.5q-91 0 -178 24q-9 2 -17 -1.5t-12 -12.5l-41 -90q-27 -50 -77 -50q-18 0 -35 8q-32 16 -44 47.5t2 64.5l29 63v1l2 4l10 23q4 8 1.5 16.5t-9.5 13.5q-142 95 -221 242t-79 316q0 184 90.5 336
t242.5 242.5t336 90.5zM718 218v0q138 0 251.5 67.5t181 181t67.5 251.5q0 117 -50.5 219.5t-143.5 175.5q-10 7 -21 5q-11 -3 -16 -14l-384 -843q-4 -10 1 -21q5 -10 17 -13q48 -9 97 -9zM661 270v0l357 785q151 -142 151 -337q0 -125 -61 -227.5t-163.5 -163.5t-226.5 -61
q-29 0 -57 4zM427 317v0q3 0 6 1q11 3 16 13l384 843q5 11 -1 21q-5 11 -16 13q-49 10 -98 10q-138 0 -251.5 -67.5t-181 -181t-67.5 -251.5q0 -117 50.5 -220t143.5 -176q7 -5 15 -5zM718 1169v0q29 0 58 -4l-358 -785q-151 142 -151 338q0 124 61 226.5t163.5 163.5
t226.5 61z" />
    <glyph glyph-name="Ugrave" unicode="&#xd9;" horiz-adv-x="1185" 
d="M852 -1v0q55 0 94 39t39 94v1177q0 55 -39 94t-94 39t-94 -39t-39 -94v-1044h-56q-55 0 -94 -39t-39 -94t39 -94t94 -39h189zM663 216v0h80q10 0 17.5 7.5t7.5 17.5v1068q0 35 24.5 60t59.5 25t60 -25t25 -60v-1177q0 -35 -25 -60t-60 -25h-189q-35 0 -60 25t-25 60
t25 59.5t60 24.5zM322 -1v0q55 0 94 39t39 94t-39 94t-94 39h-56v1044q0 55 -39 94t-94 39t-94 -39t-39 -94v-1177q0 -55 39 -94t94 -39h189zM133 1394v0q35 0 59.5 -25t24.5 -60v-1068q0 -10 7 -17.5t17 -7.5h81q35 0 59.5 -24.5t24.5 -59.5t-24.5 -60t-59.5 -25h-189
q-35 0 -60 25t-25 60v1177q0 35 25 60t60 25zM573 1467v0q45 0 83 29q43 35 50 90q5 55 -29 98l-160 202q-44 50 -105 50q-45 0 -83 -29q-43 -35 -50 -90q-5 -54 28 -98l161 -202q41 -49 105 -50v0zM412 1888v0q39 0 67 -32l160 -202q22 -28 18 -63t-31 -57q-24 -18 -53 -18
v0q-41 0 -67 32l-161 201q-21 28 -18 63q5 35 32 57q24 19 53 19z" />
    <glyph glyph-name="Uacute" unicode="&#xda;" horiz-adv-x="1186" 
d="M853 -1v0q55 0 94 39t39 94v1178q0 55 -39 94t-94 39t-94 -39t-39 -94v-1045h-57q-55 0 -94 -39t-39 -94t39 -94t94 -39h190zM663 217v0h81q10 0 17 7t7 17v1069q0 35 25 59.5t60 24.5t59.5 -24.5t24.5 -59.5v-1178q0 -35 -24.5 -59.5t-59.5 -24.5h-190q-34 0 -59 24.5
t-25 59.5t25 60t59 25zM322 -1v0q55 0 94 39t39 94t-39 94t-94 39h-56v1045q0 55 -39 94t-94 39t-94 -39t-39 -94v-1178q0 -55 39 -94t94 -39h189zM133 1394v0q35 0 60 -24.5t25 -59.5v-1069q0 -10 7 -17t17 -7h80q35 0 60 -25t25 -60t-25 -59.5t-60 -24.5h-189
q-35 0 -59.5 24.5t-24.5 59.5v1178q0 35 24.5 59.5t59.5 24.5zM413 1467v0q61 0 104 51l161 201q34 44 28 99q-7 54 -49 89q-38 29 -84 29q-61 0 -104 -50l-161 -202q-34 -43 -28 -98q7 -55 49 -90q38 -29 84 -29zM573 1888v0q30 0 53 -19q28 -22 32 -57t-18 -62l-161 -202
q-27 -32 -66 -32q-30 0 -54 18q-27 23 -31 58q-4 34 18 62l161 202q27 32 66 32z" />
    <glyph glyph-name="Ucircumflex" unicode="&#xdb;" horiz-adv-x="1186" 
d="M853 -1v0q55 0 94 39t39 94v1178q0 55 -39 94t-94 39t-94 -39t-39 -94v-1045h-56q-55 0 -94 -39t-39 -94t39 -94t94 -39h189zM664 217v0h80q10 0 17 7t7 17v1069q0 35 25 59.5t60 24.5t59.5 -24.5t24.5 -59.5v-1178q0 -35 -24.5 -59.5t-59.5 -24.5h-189q-35 0 -60 24.5
t-25 59.5t25 60t60 25zM323 -1v0q55 0 94 39t39 94t-39 94t-94 39h-57v1045q0 55 -39 94t-94 39t-94 -39t-39 -94v-1178q0 -55 39 -94t94 -39h190zM133 1394v0q35 0 60 -24.5t25 -59.5v-1069q0 -10 7 -17t17 -7h81q34 0 59 -25t25 -60t-25 -59.5t-59 -24.5h-190
q-35 0 -59.5 24.5t-24.5 59.5v1178q0 35 24.5 59.5t59.5 24.5zM659 1467v0q46 0 84 30q42 34 49 89q6 55 -28 98l-161 202q-27 34 -68 45l-2 1l-10 2q-2 0 -3 1h-1q-4 0 -8 1h-6q-6 1 -14 0h-5q-4 -1 -9 -1v0q-2 -1 -3 -1q-5 -1 -11 -2h-1q-41 -12 -68 -46l-161 -202
q-34 -43 -28 -98t49 -89q37 -29 83 -30v0q62 0 105 51l56 70l57 -70q43 -51 104 -51zM498 1652v0q-11 0 -19 -10l-75 -94q-27 -32 -67 -32q-29 0 -53 18q-27 23 -31 58t18 62l161 202q17 21 43 29h0.5h0.5v0q4 1 7 2h2q3 0 6 1h3v0h9h3q3 -1 6 -1h2q3 -1 7 -2v0v0h1
q26 -8 43 -29l161 -202q22 -27 18 -62t-31 -58q-24 -18 -54 -18q-39 0 -66 32l-76 94q-7 10 -19 10z" />
    <glyph glyph-name="Udieresis" unicode="&#xdc;" horiz-adv-x="1185" 
d="M852 0v0q55 0 94 39t39 94v1177q0 55 -39 94t-94 39t-94 -39t-39 -94v-1044h-56q-55 0 -94 -39t-39 -94t39 -94t94 -39h189zM663 217v0h81q10 0 17 7t7 17v1069q0 35 24.5 59.5t59.5 24.5t60 -24.5t25 -59.5v-1177q0 -35 -25 -60t-60 -25h-189q-35 0 -59.5 25t-24.5 60
t24.5 59.5t59.5 24.5zM322 0v0q55 0 94 39t39 94t-39 94t-94 39h-56v1044q0 55 -39 94t-94 39t-94 -39t-39 -94v-1177q0 -55 39 -94t94 -39h189zM133 1394v0q35 0 59.5 -24.5t24.5 -59.5v-1069q0 -10 7 -17t18 -7h80q35 0 60 -24.5t25 -59.5t-25 -60t-60 -25h-189
q-35 0 -60 25t-25 60v1177q0 35 25 59.5t60 24.5zM348 1459v0q55 0 94 39t39 94t-39 94t-94 39t-93.5 -39t-38.5 -94t38.5 -94t93.5 -39zM348 1676v0q35 0 59.5 -24.5t24.5 -59.5t-24.5 -59.5t-59.5 -24.5q-34 0 -59 24.5t-25 59.5t25 59.5t59 24.5zM626 1459v0
q55 0 93.5 39t38.5 94t-38.5 94t-93.5 39t-94 -39t-39 -94t39 -94t94 -39zM626 1676v0q35 0 59.5 -24.5t24.5 -59.5t-24.5 -59.5t-59.5 -24.5t-59.5 24.5t-24.5 59.5t24.5 59.5t59.5 24.5z" />
    <glyph glyph-name="Yacute" unicode="&#xdd;" horiz-adv-x="1402" 
d="M601 592v0q69 0 111 56l457 578v0q33 45 27 98q-6 52 -49 88q0 1 -1 1q-44 33 -97 27t-89 -49v0v0l-359 -454l-358 454v0h-1q-35 43 -88 49t-97 -27q-1 0 -1 -1q-43 -36 -50 -88q-6 -53 28 -98v0v0l456 -578q43 -56 111 -56zM72 1255v0q-22 30 -17 63q3 33 31 56
q29 22 62 18q34 -4 57 -32l377 -478q8 -9 19 -9t19 9l378 478q23 28 56 32q34 4 62 -18q28 -23 32 -56t-18 -63l-456 -577v-1v0q-28 -37 -73 -37t-72 37v1h-1zM601 0v0q55 0 95 40q39 39 39 94v258q0 55 -39 95q-40 39 -95 39t-94 -39q-39 -40 -39 -95v-258q0 -55 39 -94
q39 -40 94 -40zM601 477v0q36 0 61 -25q25 -24 25 -60v-258q0 -35 -25 -60t-61 -25q-35 0 -60 25t-25 60v258q0 36 25 60q25 25 60 25zM498 1459v0q61 0 104 50l161 202q34 43 28 98q-7 55 -49 90q-38 29 -84 29q-61 0 -104 -50l-161 -202q-34 -43 -28 -98t49 -90
q38 -29 84 -29v0zM658 1880v0q30 0 53 -19q28 -22 32 -57t-18 -63l-161 -201q-27 -33 -66 -33q-30 1 -54 19q-27 22 -31 57t18 63l161 201q27 33 66 33z" />
    <glyph glyph-name="Thorn" unicode="&#xde;" horiz-adv-x="1178" 
d="M134 3v0q55 0 95 39q39 39 39 95v158h161h108q201 0 325 124q115 124 113 300q3 118 -54 220l-2 4l-7 8q-33 54 -81 94q-96 100 -262 97q-16 1 -32 1q-3 0 -6 -1l-91 1q-7 0 -14 -1l-158 1v157q0 55 -39 95q-40 39 -95 39t-95 -39q-39 -40 -39 -95v-290q0 -7 1 -12
q6 -54 44 -89t90 -35l122 1h29h140.5h110.5q66 0 111.5 -45.5t45.5 -112.5q0 -3 1 -6q-4 -65 -48.5 -107.5t-108.5 -42.5h-99.5h-132.5h-17h-30l-123 2q-56 0 -99 -45q-32 -35 -35 -83q-2 -8 -2 -17v-281q0 -56 40 -95q39 -39 94 -39zM135 514v0l123 -1h31h12h135h102
q86 0 144.5 58t61.5 146q0 4 -1 7q-5 86 -63 143t-143 57h-110.5h-140.5h-29l-122 -1q-33 0 -57.5 23t-28.5 56v1v0v7v290q0 36 25 60q24 25 60 25t60 -25q25 -24 25 -60v-181q0 -10 7 -17t17 -7l184 -2h3q5 1 10 1h97v0q3 0 6 1q12 0 24 -1h1q89 -1 141 -23t89 -62
q1 0 2 -1q42 -35 72 -83q0 -2 1 -3l7 -8q49 -91 47 -194v-1q2 -156 -100 -266q-106 -109 -290 -109l-109 -1h-184q-10 0 -17.5 -7t-7.5 -17v-182q0 -36 -25 -61q-24 -25 -60 -25q-35 0 -60 25t-25 61v281q0 6 1 10v3q2 31 23 54v0v0q28 29 62 29z" />
    <glyph glyph-name="germandbls" unicode="&#xdf;" horiz-adv-x="1374" 
d="M733 0v0q201 0 325 124q115 124 114 300q2 121 -58 225q-64 110 -181 161q44 93 41 195q2 176 -113 300q-124 124 -325 124l-295 2h-108v0v0q-55 0 -94 -39t-39 -93v-585q0 -55 39 -94t94 -39t94 39t39 94v449h5h88.5h104.5h73q66 0 111.5 -45.5t45.5 -112.5
q0 -61 -39 -105t-100 -52h-117q-54 0 -93 -39t-39 -94t39 -94t93 -39h92q3 -1 6 -1q15 0 32 1h98.5h67.5q66 0 111.5 -45.5t45.5 -112.5q0 -66 -45.5 -112t-111.5 -46h-66.5h-97.5h-88.5h-42.5h-1q-54 0 -93 -39t-39 -94t39 -94t93 -39h295zM438 218v0h38t89.5 -0.5
t99.5 -0.5h69q87 0 146.5 60t59.5 147t-59.5 147t-146.5 60h-68h-99h-1q-12 -1 -24 -1q-3 1 -6 1h-98q-34 0 -58.5 24.5t-24.5 59.5t24.5 59.5t58.5 24.5h118q1 0 3 1q80 9 132 67t52 138q0 87 -60 147t-146 60h-73h-104.5h-88.5h-29q-11 -1 -18 -8t-7 -17v-473
q0 -35 -24.5 -59.5t-59.5 -24.5t-59.5 24.5t-24.5 59.5v585q0 34 24 58.5t60 25.5v0v0h107l296 -2q183 0 290 -109q101 -110 100 -266v-2q2 -104 -48 -195q-5 -10 -2 -20q5 -11 15 -15q131 -51 184 -152t48 -197v-2q2 -156 -100 -265q-106 -109 -290 -109h-295
q-34 0 -58.5 24.5t-24.5 59.5t24.5 60t58.5 25z" />
    <glyph glyph-name="agrave" unicode="&#xe0;" horiz-adv-x="1551" 
d="M1211 -1v0q28 0 53 12q49 22 69 72q18 50 -3 99l-532 1170q-13 29 -38 50q-9 8 -20 15l-2 1l-8 4v0q-1 1 -2 1q-1 1 -2 1l-10 4h-1q-39 12 -77 1q-4 -1 -7 -3h-2q-1 -1 -3 -2q-1 0 -2 -1q-2 -1 -5 -2l-1 -1l-4 -2q-3 -1 -5 -3q-4 -2 -7 -5h-1l-8 -6q-27 -22 -40 -52
l-532 -1170q-21 -49 -3 -99q20 -50 69 -72q25 -12 53 -12q38 0 70 20.5t48 56.5l418 918l417 -918q36 -73 118 -77v0zM676 1077v0q-15 0 -23 -14l-439 -967q-26 -48 -74 -48q-17 0 -33 7q-31 14 -43 45q-12 32 2 62l531 1170q9 20 27 34l1 1q2 2 5 4v0v0v0v0q2 2 5 3
q2 1 3 2l1 1v0h1q2 1 3 2v0v0q1 0 2 1l4 1v0q2 1 3 1q23 8 47 0h1q4 -1 6 -2l1 -1q1 0 2 -1q3 -1 5 -3h0.5h0.5v0q7 -4 13 -9q0 -1 1 -1q17 -14 25 -33l531 -1170q14 -30 2 -62q-12 -31 -42 -45q-17 -7 -34 -7v0q-51 2 -74 48l-439 967q-8 14 -22 14zM804 -1v0q56 0 95 39.5
t39 94.5t-39 94.5t-95 39.5h-257q-56 0 -95 -39.5t-39 -94.5t39 -94.5t95 -39.5h257zM547 218v0h257q36 0 61 -25t25 -60t-25 -60t-61 -25h-257q-36 0 -61 25t-25 60t25 60t61 25zM756 1459v0q45 0 83 29q43 35 50 89q5 55 -28 99l-161 201q-43 51 -105 51q-45 0 -83 -29
q-43 -35 -50 -90q-5 -55 29 -98l160 -202q41 -49 105 -50v0zM595 1879v0q39 0 67 -32l161 -201q21 -28 18 -63q-5 -35 -32 -57q-24 -19 -53 -19v0q-41 1 -67 32l-160 202q-22 28 -19 63q5 35 32 57q24 18 53 18z" />
    <glyph glyph-name="aacute" unicode="&#xe1;" horiz-adv-x="1551" 
d="M1211 -1v0q27 0 53 12q49 22 68 72t-3 100l-531 1169q-13 29 -38 50q-10 9 -20 15l-2 1q-4 2 -9 4h1q-2 1 -3 1q-1 1 -2 1q-4 2 -9 4h-2q-39 13 -77 1q-3 -1 -6 -3h-2q-2 -1 -3 -1q-1 -1 -3 -1q-2 -1 -4 -3l-2 -1q-1 0 -3 -1q-3 -2 -5 -3l-8 -6h-1q-4 -3 -7 -6
q-27 -22 -41 -52l-531 -1169q-21 -50 -3 -100q20 -50 68 -72q26 -12 53 -12q39 0 70.5 21t48.5 56l417 919l417 -919q37 -73 119 -77v0zM675 1078v0q-14 0 -22 -15l-439 -967q-27 -48 -75 -48q-17 0 -33 7q-30 14 -43 45q-11 32 2 63l532 1169q8 20 26 34q1 0 1 1q3 2 5 4v0
h0.5h0.5q2 2 5 3l2 2t2 1v0l1 1q1 0 2 1v0h1q1 0 2 1l3 1h1q1 1 3 1q23 8 47 0h1q4 -1 6 -2l1 -1h1q3 -2 6 -3v-0.5t0.5 -0.5h0.5q7 -4 12 -9l1 -1q17 -14 26 -33l531 -1169q13 -31 2 -63q-12 -31 -43 -45q-16 -7 -33 -7v0q-51 2 -74 48l-440 967q-8 15 -22 15zM804 -1v0
q55 0 94.5 39.5t39.5 94.5q0 56 -39.5 95t-94.5 39h-258q-55 0 -94.5 -39t-39.5 -95q0 -55 39.5 -94.5t94.5 -39.5h258zM546 218v0h258q35 0 60 -25t25 -60t-25 -60t-60 -25h-258q-35 0 -60 25t-25 60t25 60t60 25zM595 1459v0q61 0 104 50l161 202q34 43 28 98t-49 90
q-38 29 -83 29q-62 0 -105 -50l-161 -202q-34 -43 -28 -98q7 -55 49 -90q38 -29 84 -29zM756 1880v0q29 0 53 -19q27 -22 31 -57t-18 -63l-161 -201q-27 -33 -66 -33q-30 0 -53 19q-28 22 -32 57t18 63l161 201q27 33 67 33z" />
    <glyph glyph-name="acircumflex" unicode="&#xe2;" horiz-adv-x="1551" 
d="M792 -2v0q56 0 95 39.5t39 94.5t-39 94.5t-95 39.5h-257q-56 0 -95 -39.5t-39 -94.5t39 -94.5t95 -39.5h257zM535 217v0h257q36 0 61 -25t25 -60t-25 -60t-61 -25h-257q-36 0 -61 25t-25 60t25 60t61 25zM1212 -2v0q27 0 53 12q48 22 68 72q18 50 -3 99l-531 1170
q-13 29 -39 50q-9 8 -20 15l-1 1q-4 2 -9 4v0q-1 1 -2 1q-1 1 -2 1q-4 2 -10 4h-1q-39 12 -77 1q-3 -1 -6 -3h-2q-2 -1 -3 -2q-2 0 -3 -1l-4 -2l-2 -1l-4 -2t-5 -3q-4 -2 -7 -5h-1l-8 -6q-26 -22 -40 -52l-531 -1170q-22 -49 -3 -99t68 -72q26 -12 53 -12q38 0 70 21t49 56
l417 919l417 -919q37 -73 119 -77v0zM676 1076v0q-14 0 -22 -14l-440 -967q-26 -48 -74 -48q-17 0 -33 7q-31 14 -43 45q-11 32 2 62l531 1170q9 20 27 34l1 1q2 2 5 4v0v0v0v0q3 2 5 3t3 2q1 0 1 1h1h1l2 2v0h1l1 1l4 1h1q1 1 2 1q24 8 47 0h2l6 -2q0 -1 1 -1l1 -1l6 -2v-1
v0v0q7 -4 13 -9l1 -1q17 -14 25 -33l532 -1170q13 -30 2 -62q-13 -31 -43 -45q-16 -7 -33 -7v0q-52 2 -75 48l-439 967q-8 14 -22 14zM837 1458v0q45 0 83 29q43 35 50 90q5 54 -29 98l-160 202q-27 33 -69 45h-1q-6 2 -11 3h-2h-1q-5 1 -9 1q-2 1 -5 1h-14q-3 0 -5 -1
q-5 0 -9 -1h-1v0h-2q-6 -1 -11 -3h-1q-42 -12 -69 -45l-161 -202q-34 -44 -28 -98q7 -55 50 -90q36 -29 83 -29v0q61 0 105 50l56 71l56 -71q43 -50 105 -50zM676 1642v0q-11 0 -19 -9l-75 -95q-28 -32 -67 -32q-30 0 -53 19q-27 22 -32 57q-3 35 18 63l161 201q17 22 44 29
v0v0v0q4 1 7 2h2q3 1 6 1h3v0h10v0h3t5 -1h2q4 -1 7 -2h1q27 -7 44 -29l160 -201q22 -28 18 -63t-31 -57q-24 -19 -53 -19q-39 0 -67 32l-75 95q-8 9 -19 9v0z" />
    <glyph glyph-name="atilde" unicode="&#xe3;" horiz-adv-x="1551" 
d="M792 0v0q55 0 94.5 39t39.5 94q0 56 -39.5 95t-94.5 39h-258q-55 0 -94.5 -39t-39.5 -95q0 -55 39.5 -94t94.5 -39h258zM534 219v0h258q35 0 60 -25t25 -61q0 -35 -25 -60t-60 -25h-258q-35 0 -60 25t-25 60q0 36 25 61t60 25zM1211 0v0q28 0 53 11q49 23 68 72
q19 51 -3 100l-531 1170q-13 28 -38 49q-9 9 -20 15l-2 1q-4 2 -8 5v-1q-2 1 -3 2h-1l-10 4q-1 0 -2 1q-39 12 -77 0l-6 -2l-2 -1q-1 -1 -3 -1q-1 -1 -2 -1q-3 -1 -5 -2l-1 -1l-4 -2q-3 -2 -5 -3q-4 -3 -8 -5v-1l-8 -6q-27 -21 -40 -51l-532 -1170q-21 -49 -3 -100
q20 -49 69 -72q25 -11 53 -11q38 0 70 20.5t48 55.5l417 919l418 -919q36 -73 118 -76v0zM675 1078v0q-14 0 -22 -14l-439 -968q-26 -48 -74 -48q-18 0 -34 7q-30 14 -42 46q-12 31 2 62l531 1170q9 19 26 33l1 1q3 2 5 4h0.5h0.5v0v0v0q2 2 5 4q1 1 3 1q0 1 1 1v0l1 1
q1 0 2 1h1v0v0q1 1 2 1l4 1v1q1 0 3 1q23 7 47 0v0l1 -1q4 -1 6 -2h1q1 -1 2 -1q3 -2 5 -3h0.5t0.5 -0.5v-0.5q7 -4 13 -9l1 -1q16 -14 25 -32l531 -1170q14 -31 2 -62q-12 -32 -43 -46q-16 -7 -33 -7v0q-51 2 -74 48l-439 968q-8 14 -23 14zM514 1459v0q62 0 105 51l56 70
l57 -70q37 -45 95 -50q1 0 2 -1h1h6h2q62 0 105 50l160 202q34 44 29 99q-7 54 -50 89q-38 29 -83 29q-62 0 -105 -50l-57 -72l-57 72q-27 33 -68 45l-2 1l-10 2h-3v0l-1 1q-4 0 -8 1h-6h-14h-5q-4 -1 -9 -1v-1h-1h-2q-5 -1 -11 -2l-1 -1q-41 -12 -68 -45l-161 -202
q-34 -43 -28 -98t49 -90q38 -29 83 -29v0zM676 1880v0h4v0v0q2 -1 3 -1h6l2 -1q3 0 7 -1v0h1q26 -8 43 -29l76 -96q8 -9 19 -9t19 9l76 96q28 32 67 32q29 0 53 -19q27 -22 32 -57q3 -35 -19 -63l-160 -201q-28 -32 -67 -32h-2h-4h-2q-37 3 -60 32l-76 94q-8 9 -19 9v0
q-11 0 -19 -9l-75 -94q-27 -32 -67 -32q-29 0 -53 18q-27 22 -31 57t18 63l161 202q17 21 43 29h0.5h0.5v0q4 1 7 1l2 1h6q1 0 3 1v0v0h5z" />
    <glyph glyph-name="adieresis" unicode="&#xe4;" horiz-adv-x="1551" 
d="M1211 0v0q27 0 53 12q49 22 68 72t-3 100l-531 1169q-13 29 -38 50q-10 8 -20 15l-2 1q-4 2 -9 4h1q-2 1 -3 1q-1 1 -2 1q-4 2 -9 4h-2q-39 13 -77 1q-3 -1 -6 -3h-2q-2 -1 -3 -1q-1 -1 -3 -1q-2 -2 -4 -3l-2 -1q-1 0 -3 -2q-3 -1 -5 -3q-4 -2 -8 -5h-1q-4 -3 -7 -6
q-27 -22 -41 -52l-531 -1170q-21 -49 -3 -99q20 -50 68 -72q26 -12 53 -12q39 0 70.5 21t48.5 56l417 919l417 -919q37 -73 119 -77v0zM675 1079v0q-14 0 -22 -15l-439 -967q-27 -48 -75 -48q-17 0 -33 7q-30 14 -43 45q-11 32 2 62l532 1170q9 20 26 34q1 0 1 1q3 2 5 4v0
v0h0.5h0.5q2 2 5 3l2 2t2 1v0l1 1q1 0 2 1v0v0h1q1 0 2 1l3 1h1q1 1 3 1q23 8 47 0h1q4 -1 6 -2q0 -1 1 -1t1 -1l6 -2v-1h0.5h0.5q7 -4 12 -9l1 -1q17 -14 26 -33l531 -1169q13 -31 2 -63q-12 -31 -43 -45q-16 -7 -33 -7v0q-51 2 -74 48l-440 967q-8 15 -22 15zM804 0v0
q55 0 94.5 39.5t39.5 94.5t-39.5 94.5t-94.5 39.5h-258q-55 0 -94.5 -39.5t-39.5 -94.5t39.5 -94.5t94.5 -39.5h258zM546 219v0h258q35 0 60 -25t25 -60t-25 -60t-60 -25h-258q-35 0 -60 25t-25 60t25 60t60 25zM535 1465v0q55 0 93.5 38.5t38.5 93.5t-38.5 94t-93.5 39
t-94 -39t-39 -94t39 -93.5t94 -38.5zM535 1681v0q35 0 59.5 -24.5t24.5 -59.5q0 -34 -24.5 -59t-59.5 -25t-59.5 25t-24.5 59q0 35 24.5 59.5t59.5 24.5zM812 1465v0q55 0 94 38.5t39 93.5t-39 94t-94 39t-93.5 -39t-38.5 -94t38.5 -93.5t93.5 -38.5zM812 1681v0
q35 0 59.5 -24.5t24.5 -59.5q0 -34 -24.5 -59t-59.5 -25t-59.5 25t-24.5 59q0 35 24.5 59.5t59.5 24.5z" />
    <glyph glyph-name="aring" unicode="&#xe5;" horiz-adv-x="1551" 
d="M1211 0v0q28 0 53 11q49 23 68 73t-3 99l-531 1170q-13 29 -38 49q-10 9 -20 15l-2 1q-4 3 -8 5v0q-2 0 -3 1q-1 0 -2 1q-4 2 -9 3q-1 1 -2 1q-39 12 -77 0l-6 -2l-2 -1q-1 0 -3 -1q-1 0 -2 -1q-3 -1 -5 -2l-2 -1q-1 -1 -3 -2q-3 -2 -5 -3q-4 -2 -8 -5v-1l-8 -6
q-27 -21 -40 -51l-532 -1170q-21 -49 -3 -99q20 -50 68 -73q26 -11 54 -11q38 0 70 20.5t48 55.5l417 919l418 -918q36 -74 118 -77v0zM675 1078v0q-14 0 -22 -14l-439 -968q-26 -48 -74 -48q-18 0 -34 8q-30 14 -42 45t1 62l532 1170q9 19 26 33l1 1q3 2 5 4v0l0.5 0.5
l0.5 0.5v0q2 1 5 3q1 1 3 2h1v1h1q1 1 2 1h1v1h2l4 2v0q1 0 3 1q23 7 47 0h1l6 -3h1q1 -1 2 -1q2 -1 5 -3h0.5h0.5v0q7 -4 13 -10l1 -1q16 -13 25 -32l531 -1170q14 -31 2 -62t-43 -45q-16 -8 -33 -8v0q-51 3 -74 49l-440 967q-7 14 -22 14zM804 0v0q56 0 95 39t39 95
q0 55 -39 94t-95 39h-258q-55 0 -94 -39t-39 -94q0 -56 39 -95t94 -39h258zM546 219v0h258q36 0 61 -25t25 -60q0 -36 -25 -61t-61 -25h-258q-35 0 -60 25t-25 61q0 35 25 60t60 25zM675 1464v0q55 0 94 39t39 94t-39 94t-94 39t-93.5 -39t-38.5 -94t38.5 -94t93.5 -39z
M675 1681v0q35 0 59.5 -24.5t24.5 -59.5t-24.5 -59.5t-59.5 -24.5q-34 0 -59 24.5t-25 59.5t25 59.5t59 24.5z" />
    <glyph glyph-name="ae" unicode="&#xe6;" horiz-adv-x="2262" 
d="M804 -1v0q56 0 95 39t39 94q0 56 -39 95t-95 39h-258q-55 0 -94 -39t-39 -95q0 -55 39 -94t94 -39h258zM546 218v0h258q36 0 61 -25t25 -61q0 -35 -25 -60t-61 -25h-258q-35 0 -60 25t-25 60q0 36 25 61t60 25zM1930 1167v0q55 0 93.5 39t38.5 94q0 54 -38.5 93t-93.5 39
h-719q-55 0 -94 -39t-39 -93q0 -55 39 -94t94 -39h719zM1211 1383v0h719q35 0 59.5 -24.5t24.5 -58.5q0 -35 -24.5 -59.5t-59.5 -24.5h-719q-35 0 -59.5 24.5t-24.5 59.5q0 34 24.5 58.5t59.5 24.5zM140 -1v0q38 0 70 20.5t48 55.5l417 919l409 -901q8 -24 24 -44
q43 -50 103 -50q12 0 23 2h696q55 0 93.5 38.5t38.5 93.5q0 54 -38.5 93t-93.5 39h-583v322h123q55 0 94.5 39.5t39.5 94.5t-39.5 94.5t-94.5 39.5h-258q-52 0 -89.5 -34.5t-43.5 -87.5l-281 618q-13 29 -38 50q-9 9 -20 15l-2 1l-8 4v0q-2 1 -3 2h-1l-10 4q-1 0 -2 1
q-39 12 -77 0l-6 -2l-2 -1q-1 -1 -3 -1q-1 -1 -2 -1q-3 -1 -5 -3h-2q-1 -1 -3 -2q-3 -2 -5 -3q-4 -3 -8 -5v-1l-8 -6q-27 -21 -40 -51l-532 -1170q-21 -49 -3 -100q20 -50 68 -72q26 -11 54 -11zM643 1378v0q1 1 2 1l4 1v1q1 0 3 1q23 7 47 0l1 -1q4 -1 6 -2h1v-1h2
q2 -2 5 -3h0.5t0.5 -0.5v-0.5q7 -4 13 -9q0 -1 1 -1q16 -14 25 -33l327 -719q3 -8 10.5 -11.5t16.5 -1.5q8 2 13.5 8.5t5.5 14.5v96v1v1v1q0 35 25 60t60 25h258q35 0 60 -25t25 -60t-25 -60t-60 -25h-148q-10 0 -17 -7t-7 -17v-371q0 -10 7 -17.5t17 -7.5h608
q35 0 59.5 -24.5t24.5 -58.5q0 -35 -24.5 -59.5t-59.5 -24.5h-698h-5q-8 -2 -16 -2q-38 0 -64 32h-1v0q-11 13 -16 30q0 1 -1 3l-432 950q-7 15 -22 15q-14 0 -22 -15l-439 -967q-26 -48 -74 -48q-18 0 -34 7q-30 14 -42 46q-12 31 2 62l531 1170q9 19 26 33q1 0 1 1
q3 2 5 4h1v0v0v0q2 2 5 4q1 1 3 1q0 1 1 1v0l1 1q1 0 2 1h1v0z" />
    <glyph glyph-name="ccedilla" unicode="&#xe7;" horiz-adv-x="1403" 
d="M718 -265v0q55 0 94 39.5t39 94.5v143q159 31 289 126q11 6 20 14v0v0q43 43 43 99q0 55 -39 94.5t-95 39.5q-45 0 -81 -28q-123 -90 -271 -90q-124 0 -226.5 60.5t-163 163t-60.5 226.5q0 125 60.5 227t163 163t226.5 61q145 0 267 -87q39 -31 85 -31q56 0 95 39t39 94
q0 68 -60 112q-194 140 -426 140q-198 0 -360.5 -97t-259.5 -260t-97 -361q0 -258 174 -468q165 -189 410 -237v-143q0 -55 39 -94.5t95 -39.5zM717 1386v0q217 0 398 -131h1q39 -28 39 -72q0 -35 -25 -60t-61 -25q-30 0 -55 20q0 1 -1 1q-135 98 -296 98
q-137 0 -250.5 -67.5t-181 -181t-67.5 -251.5q0 -137 67.5 -250.5t181 -181t250.5 -67.5q164 0 300 100q24 18 52 18q36 0 61 -25t25 -60q0 -36 -28 -63v0v0q-6 -5 -13 -10q-1 0 -2 -1q-130 -94 -289 -120q-9 -2 -14.5 -8.5t-5.5 -15.5v-164q0 -35 -25 -60t-60 -25
q-36 0 -61 25t-25 60v163q0 9 -5.5 16t-14.5 8q-165 28 -291.5 121t-199.5 234t-73 306q0 185 90.5 337t242.5 242t336 90z" />
    <glyph glyph-name="egrave" unicode="&#xe8;" 
d="M572 1457v0q45 0 83 30q43 34 50 89q5 55 -28 99l-161 201q-43 51 -105 51q-45 0 -83 -30q-43 -34 -50 -89q-5 -55 29 -99l160 -201q41 -49 105 -51v0zM411 1878v0q39 0 67 -32l161 -202q21 -27 18 -62q-5 -35 -32 -58q-24 -18 -53 -18v0q-39 0 -67 32l-160 202
q-22 27 -18 62t31 57q24 19 53 19zM851 1167v0q55 0 94 38.5t39 93.5t-39 93.5t-94 38.5h-719q-55 0 -93.5 -38.5t-38.5 -93.5t38.5 -93.5t93.5 -38.5h719zM132 1382v0h719q35 0 59.5 -24.5t24.5 -58.5q0 -35 -24.5 -59.5t-59.5 -24.5h-719q-35 0 -59.5 24.5t-24.5 59.5
q0 34 24.5 58.5t59.5 24.5zM851 0v0q55 0 94 38.5t39 93.5t-39 93.5t-94 38.5h-583v323h123q55 0 94.5 39t39.5 94q0 56 -39.5 95t-94.5 39h-258q-55 0 -94 -39t-39 -95v-1v-2v-582v-1v-2q0 -55 38.5 -93.5t93.5 -38.5h719zM133 806v0h258q35 0 60 -25t25 -61q0 -35 -25 -60
t-60 -25h-148q-10 0 -17 -7t-7 -17v-371q0 -10 7 -17t17 -7h608q35 0 59.5 -24.5t24.5 -59.5q0 -34 -24.5 -59t-59.5 -25h-719q-35 0 -59 24.5t-25 59.5v1v1v1v582v1v1v1q0 36 25 61t60 25z" />
    <glyph glyph-name="eacute" unicode="&#xe9;" 
d="M412 1458v0q61 0 104 50l161 202q34 43 28 98t-49 90q-38 29 -83 29q-62 0 -105 -50l-161 -202q-34 -44 -28 -98q7 -55 49 -90q38 -29 84 -29zM573 1878v0q29 0 53 -18q27 -22 31 -57t-18 -63l-161 -202q-27 -32 -66 -32q-30 0 -53 19q-28 22 -32 57t18 63l161 201
q27 32 67 32zM852 1167v0q55 0 93.5 39t38.5 93q0 55 -38.5 93.5t-93.5 38.5h-720q-54 0 -93 -38.5t-39 -93.5q0 -54 39 -93t93 -39h720zM132 1383v0h720q35 0 59.5 -24.5t24.5 -59.5q0 -34 -24.5 -58.5t-59.5 -24.5h-720q-34 0 -58.5 24.5t-24.5 58.5q0 35 24.5 59.5
t58.5 24.5zM852 0v0q55 0 93.5 39t38.5 94q0 54 -38.5 93t-93.5 39h-584v322h124q55 0 94 39.5t39 94.5t-39 94.5t-94 39.5h-258q-56 0 -95 -39.5t-39 -94.5v-2v-2v-581v-2v-1q0 -55 39 -94t93 -39h720zM134 806v0h258q35 0 60 -25t25 -60t-25 -60t-60 -25h-148
q-10 0 -17 -7.5t-7 -17.5v-371q0 -10 7 -17t17 -7h608q35 0 59.5 -24.5t24.5 -58.5q0 -35 -24.5 -59.5t-59.5 -24.5h-720q-34 0 -58.5 24t-24.5 60v1v1v1v582v1v1v1q0 35 25 60t60 25z" />
    <glyph glyph-name="ecircumflex" unicode="&#xea;" 
d="M852 1167v0q55 0 93.5 39t38.5 93q0 55 -38.5 93.5t-93.5 38.5h-720q-55 0 -93.5 -38.5t-38.5 -93.5q0 -54 38.5 -93t93.5 -39h720zM132 1383v0h720q34 0 59 -24.5t25 -59.5q0 -34 -25 -58.5t-59 -24.5h-720q-34 0 -58.5 24.5t-24.5 58.5q0 35 24.5 59.5t58.5 24.5z
M852 0v0q55 0 93.5 39t38.5 94q0 54 -38.5 93t-93.5 39h-584v322h123q56 0 95 39.5t39 94.5t-39 94.5t-95 39.5h-257q-56 0 -95 -39.5t-39 -94.5v-2v-2v-581v-2v-1q0 -55 38.5 -94t93.5 -39h720zM134 806v0h257q36 0 61 -25t25 -60t-25 -60t-61 -25h-147q-10 0 -17 -7.5
t-7 -17.5v-371q0 -10 7 -17t17 -7h608q34 0 59 -24.5t25 -58.5q0 -35 -25 -59.5t-59 -24.5h-720q-34 0 -58.5 24t-24.5 60v1v1v1v582v1v1v1q0 35 25 60t60 25zM653 1458v0q45 0 83 29q43 35 50 90q5 54 -28 98l-161 202q-27 33 -69 45h-1q-6 2 -11 3h-2h-1q-4 1 -9 1
q-2 1 -5 1h-14q-3 0 -5 -1q-5 0 -9 -1h-1h-2q-5 -1 -11 -3h-1q-42 -12 -69 -45l-161 -202q-33 -44 -28 -98q7 -55 50 -90q38 -29 83 -29v0q62 0 105 50l56 71l56 -71q44 -50 105 -50zM492 1642v0q-11 0 -19 -9l-75 -95q-28 -32 -67 -32q-29 0 -53 19q-27 22 -32 57
q-3 35 18 63l161 201q17 22 44 29v0h0.5h0.5q3 1 7 2h2q2 1 5 1h3h1q3 1 9 0v0h3q3 0 5 -1h3q3 -1 6 -1l1 -1q27 -7 44 -29l161 -201q21 -28 18 -63q-5 -35 -32 -57q-24 -19 -53 -19q-39 0 -67 32l-75 95q-8 9 -19 9v0z" />
    <glyph glyph-name="edieresis" unicode="&#xeb;" 
d="M852 1167v0q54 0 93 38.5t39 93.5t-39 93.5t-93 38.5h-720q-55 0 -93.5 -38.5t-38.5 -93.5t38.5 -93.5t93.5 -38.5h720zM132 1382v0h720q34 0 58.5 -24.5t24.5 -58.5q0 -35 -24.5 -59.5t-58.5 -24.5h-720q-35 0 -59.5 24.5t-24.5 59.5q0 34 24.5 58.5t59.5 24.5zM852 0v0
q54 0 93 38.5t39 93.5t-39 93.5t-93 38.5h-584v323h123q56 0 95 39t39 94q0 56 -39 95t-95 39h-257q-56 0 -95 -39t-39 -95v-1v-2v-582v-1v-2q0 -55 38.5 -93.5t93.5 -38.5h720zM134 806v0h257q35 0 60 -25t25 -61q0 -35 -25 -60t-60 -25h-147q-10 0 -17.5 -7t-7.5 -17v-371
q0 -10 7.5 -17t17.5 -7h608q34 0 58.5 -24.5t24.5 -59.5q0 -34 -24.5 -59t-58.5 -25h-720q-35 0 -59 24.5t-25 59.5v1v1v1v582v1v1v1q0 36 25 61t61 25zM353 1458v0q55 0 94 39t39 94t-39 94t-94 39t-94 -39t-39 -94t39 -94t94 -39zM353 1675v0q35 0 59.5 -24.5t24.5 -59.5
t-24.5 -59.5t-59.5 -24.5t-59.5 24.5t-24.5 59.5t24.5 59.5t59.5 24.5zM630 1458v0q55 0 94 39t39 94t-39 94t-94 39q-54 0 -93 -39t-39 -94t39 -94t93 -39zM630 1675v0q35 0 60 -24.5t25 -59.5t-25 -59.5t-60 -24.5q-34 0 -59 24.5t-25 59.5t25 59.5t59 24.5z" />
    <glyph glyph-name="igrave" unicode="&#xec;" horiz-adv-x="638" 
d="M219 0v0q55 0 94 39t39 94v1178q0 55 -39 94t-94 39t-94 -39t-39 -94v-1178q0 -55 39 -94t94 -39zM219 1395v0q35 0 59.5 -24.5t24.5 -59.5v-1178q0 -35 -24.5 -59.5t-59.5 -24.5t-60 24.5t-25 59.5v1178q0 35 25 59.5t60 24.5zM299 1459v0q46 0 84 29q42 35 49 89
q6 55 -28 99l-161 201q-43 51 -105 51q-45 0 -83 -29q-43 -35 -49 -90t28 -98l161 -202q40 -49 104 -50v0zM138 1879v0q40 0 67 -32l161 -201q22 -28 18 -63t-32 -57q-23 -19 -53 -19v0q-40 1 -66 32l-161 202q-22 28 -18 63t31 57q24 18 53 18z" />
    <glyph glyph-name="iacute" unicode="&#xed;" horiz-adv-x="638" 
d="M219 0v0q55 0 94 39t39 94v1177q0 55 -39 94t-94 39t-94 -39t-39 -94v-1177q0 -55 39 -94t94 -39zM219 1395v0q35 0 59.5 -25t24.5 -60v-1177q0 -35 -24.5 -60t-59.5 -25t-60 25t-25 60v1177q0 35 25 60t60 25zM138 1458v0q62 0 105 50l161 202q34 44 28 98q-7 55 -49 90
q-39 29 -84 29q-61 0 -104 -50l-161 -202q-34 -43 -28 -98t49 -90q38 -29 83 -29zM299 1879v0q29 0 53 -19q28 -22 32 -57q3 -35 -18 -63l-161 -201q-27 -32 -67 -32q-29 0 -53 18q-27 22 -31 57t18 63l161 202q27 32 66 32z" />
    <glyph glyph-name="icircumflex" unicode="&#xee;" horiz-adv-x="799" 
d="M299 -1v0q55 0 94 39t39 94v1177q0 55 -39 94t-94 39t-94 -39t-39 -94v-1177q0 -55 39 -94t94 -39zM299 1394v0q35 0 60 -25t25 -60v-1177q0 -35 -25 -60t-60 -25t-59.5 25t-24.5 60v1177q0 35 24.5 60t59.5 25zM460 1457v0q45 0 83 29q43 35 50 89q6 55 -28 99l-161 201
q-27 34 -69 46h-1q-5 1 -11 2q-1 1 -2 1h-1q-4 1 -9 1h-5q-6 1 -14 0h-5q-4 0 -9 -1h-1q-1 0 -2 -1q-5 -1 -11 -2h-1q-42 -12 -69 -46l-160 -201q-34 -44 -29 -99q7 -54 50 -89q38 -29 83 -29q62 0 105 50l56 71l56 -71q41 -49 105 -50v0zM299 1641v0q-11 0 -19 -9l-75 -95
q-28 -32 -67 -32q-29 0 -53 19q-27 22 -32 57q-3 35 19 62l160 202q17 21 44 29v0h0.5h0.5q3 1 7 2h2q2 0 5 1h3h1h9v0h3q3 -1 5 -1h3l6 -2h1q27 -8 44 -29l161 -202q21 -27 18 -62q-5 -35 -32 -57q-24 -19 -53 -19v0q-39 0 -67 32l-75 95q-8 9 -19 9v0z" />
    <glyph glyph-name="idieresis" unicode="&#xef;" horiz-adv-x="743" 
d="M271 -1v0q55 0 94 39t39 94v1177q0 55 -39 94t-94 39t-94 -39t-39 -94v-1177q0 -55 39 -94t94 -39zM271 1394v0q35 0 60 -25t25 -60v-1177q0 -35 -25 -59.5t-60 -24.5q-34 0 -59 24.5t-25 59.5v1177q0 35 25 60t59 25zM133 1458v0q55 0 93.5 39t38.5 94t-38.5 94
t-93.5 39t-94 -39t-39 -94t39 -94t94 -39zM133 1675v0q35 0 59.5 -24.5t24.5 -59.5t-24.5 -59.5t-59.5 -24.5t-59.5 24.5t-24.5 59.5t24.5 59.5t59.5 24.5zM410 1458v0q55 0 94 39t39 94t-39 94t-94 39t-94 -39t-39 -94t39 -94t94 -39zM410 1675v0q35 0 59.5 -24.5
t24.5 -59.5t-24.5 -59.5t-59.5 -24.5t-59.5 24.5t-24.5 59.5t24.5 59.5t59.5 24.5z" />
    <glyph glyph-name="eth" unicode="&#xf0;" horiz-adv-x="1532" 
d="M614 0v0q17 0 35 1h9q13 0 26 3q272 29 460 230q188 214 188 484q0 198 -97 361t-260 260t-361 97h-199.5h-111.5h-3q-2 0 -5 -1l-13 1q-55 0 -93.5 -39t-38.5 -94q0 -54 38.5 -93t93.5 -39h332q124 0 226.5 -61t163.5 -164t61 -228q0 -124 -61 -226.5t-163.5 -163.5
t-226.5 -61h-95t-103 -1v320h125q56 0 95 39t39 95q0 55 -39 94t-95 39h-408q-55 0 -94 -39t-39 -94q0 -56 39 -95t94 -39h17v-450v-1v-2q0 -54 38.5 -93t93.5 -39h18h1q17 0 111 -0.5t202 -0.5zM133 805v0h408q36 0 61 -25t25 -60q0 -36 -25 -61t-61 -25h-150q-10 0 -17 -7
t-7 -17v-368q0 -10 7 -17q8 -7 18 -7q52 0 114 0.5t108 0.5q138 0 251 67.5t180.5 180.5t67.5 251t-67.5 252t-180.5 182t-251 68h-332q-35 0 -59.5 24.5t-24.5 58.5q0 35 24 59t60 25h18h6h115h193q184 0 336 -90.5t242.5 -242.5t90.5 -336q0 -173 -79.5 -318.5
t-215.5 -237.5t-310 -110h-2q-9 -2 -18 -2h-10h-1q-17 -1 -33 -1q-110 0 -205 0.5t-108 0.5h-1h-18q-35 0 -59.5 24.5t-24.5 58.5v477q0 10 -7 17t-17 7h-41q-35 0 -60 25t-25 61q0 35 25 60t60 25z" />
    <glyph glyph-name="ntilde" unicode="&#xf1;" horiz-adv-x="1298" 
d="M965 -1v0q55 0 94 39t39 94v1178q0 55 -39 94t-94 39t-94 -39t-39 -94v-1178q0 -55 39 -94t94 -39zM965 1394v0q35 0 60 -24.5t25 -59.5v-1178q0 -35 -25 -59.5t-60 -24.5t-59.5 24.5t-24.5 59.5v1178q0 35 24.5 59.5t59.5 24.5zM133 -1v0q55 0 94 39t39 94v857l186 -186
q39 -38 93 -39v0q54 0 94 39q39 39 39 94t-38 94l-413 413v0v0h-1v0v0v1q-5 4 -9 8q-1 0 -2 1v0q-5 4 -8 6q-2 1 -3 2h-1q-3 3 -7 5l-4 2q-4 2 -8 3l-4 2q-4 2 -8 3q-2 0 -4 1v0q-5 1 -9 2q-1 0 -2 1v0h-1q-5 1 -10 1h-2v0q-6 1 -11 1q-55 0 -94 -39t-39 -94v-1178
q0 -55 39 -94t94 -39zM133 1394v0h7h1q3 0 6 -1h2q3 -1 7 -2v0h1l6 -2q1 -1 2 -1q3 -1 5 -3q1 0 3 -1t4 -3h1v0q1 -1 2 -1q2 -2 5 -4l1 -1q3 -2 6 -5v-1v0l413 -413q25 -24 25 -59q-1 -35 -25 -60q-26 -25 -60 -25v0q-33 0 -59 25l-228 228q-11 10 -26 5q-15 -8 -15 -23
v-915q0 -35 -25 -59.5t-59 -24.5q-35 0 -60 24.5t-25 59.5v1178q0 35 24.5 59t60.5 25zM388 1463v0q61 0 104 50l57 71l56 -71q37 -44 95 -50h2h1h1h6h1v0q62 0 105 50l161 202q34 43 28 98q-7 55 -49 90q-39 29 -84 29q-61 0 -104 -50l-57 -72l-57 72q-27 33 -69 45h-1
q-6 2 -11 3h-2h-1q-5 1 -9 2h-5h-14h-5q-5 -1 -9 -2h-1h-2q-6 -1 -11 -3h-1q-42 -12 -69 -45l-161 -202q-34 -43 -28 -98q7 -55 49 -90q39 -29 84 -29zM549 1884v0q2 0 4 -1h1v0h3t5 -1h2q4 0 7 -1l0.5 -0.5l0.5 -0.5v0q27 -7 44 -28l76 -96q8 -9 19 -9t19 9l76 95
q27 33 66 33q29 0 53 -19q28 -22 32 -57q3 -35 -18 -63l-161 -201q-27 -32 -67 -32h-1h-4v0h-2q-37 3 -61 32l-75 94q-8 9 -19 9t-19 -9l-75 -94q-28 -33 -67 -33q-29 0 -53 19q-27 22 -32 57q-3 35 18 63l161 202q17 21 44 28v0v0.5v0.5q4 1 7 1h2q3 1 6 1h3v0h1q1 1 4 1z
" />
    <glyph glyph-name="ograve" unicode="&#xf2;" horiz-adv-x="1635" 
d="M717 -2v0q198 0 361 97t260 260t97 361t-97 361t-260 260t-361 97q-197 0 -360 -97t-260 -260t-97 -361t97 -361t260 -260t360 -97zM717 1385v0q185 0 337 -90.5t242 -242.5t90 -336t-90 -336t-242 -242.5t-337 -90.5q-184 0 -336 90.5t-242.5 242.5t-90.5 336t90.5 336
t242.5 242.5t336 90.5zM717 216v0q138 0 251.5 67.5t181 181t67.5 251.5t-67.5 251.5t-181 181t-251.5 67.5q-137 0 -250.5 -67.5t-181 -181t-67.5 -251.5t67.5 -251.5t181 -181t250.5 -67.5zM717 1167v0q125 0 227.5 -61t163.5 -163.5t61 -226.5t-61 -226.5t-163.5 -163.5
t-227.5 -61q-124 0 -226.5 61t-163.5 163.5t-61 226.5t61 226.5t163.5 163.5t226.5 61zM798 1460v0q45 0 83 29q43 35 50 90q5 55 -29 98l-160 202q-44 50 -105 50q-45 0 -83 -29q-43 -35 -50 -90q-5 -54 28 -98l161 -202q41 -49 105 -50v0zM637 1881v0q39 0 67 -32
l160 -202q22 -28 18 -63t-31 -57q-24 -19 -53 -19v0q-41 1 -67 33l-161 201q-21 28 -18 63q5 35 32 57q24 19 53 19z" />
    <glyph glyph-name="oacute" unicode="&#xf3;" horiz-adv-x="1636" 
d="M718 0v0q198 0 361 97t260 259.5t97 360.5t-97 361t-260 260t-361 97t-361 -97t-260 -260t-97 -361t97 -360.5t260 -259.5t361 -97zM718 1386v0q184 0 336 -90.5t242.5 -242t90.5 -336.5q0 -184 -90.5 -336t-242.5 -242.5t-336 -90.5t-336 90.5t-242.5 242.5t-90.5 336
q0 185 90.5 336.5t242.5 242t336 90.5zM718 217v0q138 0 251.5 67.5t181 181t67.5 251.5t-67.5 251.5t-181 181t-251.5 67.5t-251.5 -67.5t-181 -181t-67.5 -251.5t67.5 -251.5t181 -181t251.5 -67.5zM718 1169v0q124 0 226.5 -61t163.5 -163.5t61 -227.5q0 -124 -61 -226.5
t-163.5 -163.5t-226.5 -61t-226.5 61t-163.5 163.5t-61 226.5q0 125 61 227.5t163.5 163.5t226.5 61zM638 1461v0q61 0 104 51l161 201q34 44 28 99q-7 54 -49 89q-38 29 -84 29q-61 0 -104 -50l-161 -202q-34 -43 -28 -98q7 -55 49 -90q38 -29 84 -29zM798 1882v0
q30 0 54 -19q27 -22 31 -57t-18 -63l-161 -201q-27 -32 -66 -32q-30 0 -53 18q-28 23 -32 57q-4 35 18 63l161 202q27 32 66 32z" />
    <glyph glyph-name="ocircumflex" unicode="&#xf4;" horiz-adv-x="1635" 
d="M718 0v0q197 0 360 97t260 259.5t97 360.5t-97 361t-260 260t-360 97q-198 0 -361 -97t-260 -260t-97 -361t97 -360.5t260 -259.5t361 -97zM718 1386v0q184 0 336 -90.5t242.5 -242t90.5 -336.5q0 -184 -90.5 -336t-242.5 -242.5t-336 -90.5q-185 0 -337 90.5t-242 242.5
t-90 336q0 185 90 336.5t242 242t337 90.5zM718 217v0q137 0 250.5 67.5t181 181t67.5 251.5t-67.5 251.5t-181 181t-250.5 67.5q-138 0 -251.5 -67.5t-181 -181t-67.5 -251.5t67.5 -251.5t181 -181t251.5 -67.5zM718 1169v0q124 0 226.5 -61t163.5 -163.5t61 -227.5
q0 -124 -61 -226.5t-163.5 -163.5t-226.5 -61q-125 0 -227.5 61t-163.5 163.5t-61 226.5q0 125 61 227.5t163.5 163.5t227.5 61zM879 1461v0q45 0 83 29q43 35 49 90t-28 98l-161 202q-27 34 -68 45l-1 1q-6 1 -11 2q-1 0 -3 1v0q-5 0 -9 1h-5h-15h-5q-4 -1 -8 -1h-1
q-1 -1 -3 -1l-10 -2l-2 -1q-41 -11 -68 -45l-161 -202q-34 -43 -28 -98q7 -55 49 -90q37 -28 84 -29v0q61 0 104 51l57 70l56 -70q43 -51 105 -51zM718 1645v0q-11 0 -19 -9l-76 -94q-27 -32 -66 -32q-30 0 -53 18q-28 23 -32 57q-4 35 18 63l161 202q17 21 43 29h1v0v0
q4 1 7 1l2 1h6q1 1 3 1v0h9h1q1 0 2 -1h6l2 -1q3 0 7 -1h1q26 -8 43 -29l161 -202q22 -28 18 -63q-4 -34 -31 -57q-24 -18 -53 -18q-40 0 -67 32l-75 94q-8 9 -19 9v0z" />
    <glyph glyph-name="otilde" unicode="&#xf5;" horiz-adv-x="1635" 
d="M718 0v0q197 0 360 97t260 260t97 361t-97 361t-260 259.5t-360 96.5q-198 0 -361 -96.5t-260 -259.5t-97 -361t97 -361t260 -260t361 -97zM718 1387v0q184 0 336 -90.5t242.5 -242.5t90.5 -336q0 -185 -90.5 -336.5t-242.5 -242t-336 -90.5q-185 0 -337 90.5t-242 242
t-90 336.5q0 184 90 336t242 242.5t337 90.5zM718 218v0q137 0 250.5 67.5t181 181t67.5 251.5t-67.5 251.5t-181 181t-250.5 67.5q-138 0 -251.5 -67.5t-181 -181t-67.5 -251.5t67.5 -251.5t181 -181t251.5 -67.5zM718 1169v0q124 0 226.5 -61t163.5 -163.5t61 -226.5
q0 -125 -61 -227t-163.5 -163t-226.5 -61q-125 0 -227.5 61t-163.5 163t-61 227q0 124 61 226.5t163.5 163.5t227.5 61zM553 1460v0q62 0 105 51l56 70l57 -70q37 -45 94 -50h3h1l1 -1h5h2q62 0 105 51l160 201q34 44 29 99q-7 54 -50 89q-38 29 -83 29q-62 0 -105 -50
l-57 -71l-57 71q-27 34 -68 45l-2 1l-10 2q-2 0 -3 1h-1q-4 0 -8 1h-6q-6 1 -14 0h-5q-4 -1 -9 -1v0q-2 -1 -3 -1q-5 -1 -11 -2l-1 -1q-41 -11 -68 -45l-161 -202q-34 -43 -29 -98q7 -55 50 -90q37 -28 83 -29v0zM715 1881v0h4v0q2 0 3 -1h6l2 -1q3 0 7 -1v0v0q27 -8 44 -29
l76 -96q8 -9 19 -9t19 9l76 96q28 32 67 32q29 0 53 -19q27 -22 31 -57t-18 -63l-160 -201q-28 -32 -67 -32h-2h-3h-1h-2q-37 3 -60 32l-76 94q-8 10 -19 10t-19 -10l-75 -94q-27 -32 -67 -32q-29 0 -53 18q-27 23 -31 57q-4 35 18 63l160 202q18 21 44 29h0.5h0.5v0
q4 1 7 1l2 1h6q1 1 2 1h1v0h5z" />
    <glyph glyph-name="odieresis" unicode="&#xf6;" horiz-adv-x="1635" 
d="M717 0v0q198 0 361 97t260 260t97 361t-97 361t-260 260t-361 97t-360.5 -97t-259.5 -260t-97 -361t97 -361t259.5 -260t360.5 -97zM717 1387v0q185 0 337 -90.5t242 -242.5t90 -336q0 -185 -90 -336.5t-242 -242t-337 -90.5q-184 0 -336 90.5t-242.5 242t-90.5 336.5
q0 184 90.5 336t242.5 242.5t336 90.5zM717 218v0q138 0 251.5 67.5t181 181t67.5 251.5t-67.5 251.5t-181 181t-251.5 67.5t-251.5 -67.5t-181 -181t-67.5 -251.5t67.5 -251.5t181 -181t251.5 -67.5zM717 1169v0q125 0 227.5 -61t163.5 -163.5t61 -226.5q0 -125 -61 -227
t-163.5 -163t-227.5 -61q-124 0 -226.5 61t-163.5 163t-61 227q0 124 61 226.5t163.5 163.5t226.5 61zM575 1460v0q55 0 94 39t39 94t-39 94t-94 39t-93.5 -39t-38.5 -94t38.5 -94t93.5 -39zM575 1677v0q35 0 59.5 -24.5t24.5 -59.5t-24.5 -59.5t-59.5 -24.5t-59.5 24.5
t-24.5 59.5t24.5 59.5t59.5 24.5zM853 1460v0q54 0 93 39t39 94t-39 94t-93 39q-55 0 -94 -39t-39 -94t39 -94t94 -39zM853 1677v0q34 0 59 -24.5t25 -59.5t-25 -59.5t-59 -24.5q-35 0 -60 24.5t-25 59.5t25 59.5t60 24.5z" />
    <glyph glyph-name="divide" unicode="&#xf7;" horiz-adv-x="1014" 
d="M87 647v140h839l1 -1v-139h-840zM398 408l82 84q15 14 29 14q13 0 31 -16l80 -86q12 -16 12 -29q0 -15 -14 -31l-80 -88q-20 -20 -29 -20q-16 0 -29 14l-88 101q-10 13 -10 26q0 15 16 31zM398 1101l82 84q15 14 29 14q13 0 31 -16l80 -86q12 -16 12 -29q0 -15 -14 -31
l-80 -88q-20 -20 -29 -20q-16 0 -29 14l-88 101q-10 13 -10 26q0 15 16 31z" />
    <glyph glyph-name="oslash" unicode="&#xf8;" horiz-adv-x="1636" 
d="M393 -129v0q39 0 71.5 21t49.5 57l33 72q84 -21 171 -21q198 0 361 97t260 260t97 361q0 175 -80 329t-225 257l2 5q2 2 3 5l28 62q22 52 3.5 102t-69.5 75q-26 12 -55 12q-39 0 -71.5 -21t-49.5 -57l-33 -72q-84 20 -171 20q-198 0 -361 -97t-260 -259.5t-97 -360.5
q0 -176 80 -330t225 -257l-2 -4q-1 -3 -3 -6l-28 -62q-22 -52 -3.5 -101.5t69.5 -74.5q27 -12 55 -12zM718 1387v0q91 0 178 -24q9 -2 17 1.5t12 11.5l41 91q27 49 77 49q18 0 35 -8q32 -15 44 -46.5t-2 -64.5l-29 -63v-1l-2 -4l-10 -23q-4 -8 -1.5 -16.5t9.5 -13.5
q142 -96 221 -243t79 -315q0 -185 -90.5 -336.5t-242 -242t-336.5 -90.5q-91 0 -178 24q-9 2 -17 -1.5t-12 -12.5l-41 -90q-27 -50 -77 -50q-18 0 -35 8q-32 16 -44 47.5t2 64.5l29 63v1l2 4l10 23q4 8 1.5 16.5t-9.5 13.5q-142 95 -221 242t-79 316q0 184 90.5 336
t242.5 242.5t336 90.5zM718 218v0q138 0 251.5 67.5t181 181t67.5 251.5q0 117 -50.5 219.5t-143.5 175.5q-10 7 -21 5q-11 -3 -16 -14l-384 -843q-4 -10 1 -21q5 -10 17 -13q48 -9 97 -9zM661 270v0l357 785q151 -142 151 -337q0 -125 -61 -227.5t-163.5 -163.5t-226.5 -61
q-29 0 -57 4zM427 317v0q3 0 6 1q11 3 16 13l384 843q5 11 -1 21q-5 11 -16 13q-49 10 -98 10q-138 0 -251.5 -67.5t-181 -181t-67.5 -251.5q0 -117 50.5 -220t143.5 -176q7 -5 15 -5zM718 1169v0q29 0 58 -4l-358 -785q-151 142 -151 338q0 124 61 226.5t163.5 163.5
t226.5 61z" />
    <glyph glyph-name="ugrave" unicode="&#xf9;" horiz-adv-x="1185" 
d="M852 -1v0q55 0 94 39t39 94v1177q0 55 -39 94t-94 39t-94 -39t-39 -94v-1044h-56q-55 0 -94 -39t-39 -94t39 -94t94 -39h189zM663 216v0h80q10 0 17.5 7.5t7.5 17.5v1068q0 35 24.5 60t59.5 25t60 -25t25 -60v-1177q0 -35 -25 -60t-60 -25h-189q-35 0 -60 25t-25 60
t25 59.5t60 24.5zM322 -1v0q55 0 94 39t39 94t-39 94t-94 39h-56v1044q0 55 -39 94t-94 39t-94 -39t-39 -94v-1177q0 -55 39 -94t94 -39h189zM133 1394v0q35 0 59.5 -25t24.5 -60v-1068q0 -10 7 -17.5t17 -7.5h81q35 0 59.5 -24.5t24.5 -59.5t-24.5 -60t-59.5 -25h-189
q-35 0 -60 25t-25 60v1177q0 35 25 60t60 25zM573 1467v0q45 0 83 29q43 35 50 90q5 55 -29 98l-160 202q-44 50 -105 50q-45 0 -83 -29q-43 -35 -50 -90q-5 -54 28 -98l161 -202q41 -49 105 -50v0zM412 1888v0q39 0 67 -32l160 -202q22 -28 18 -63t-31 -57q-24 -18 -53 -18
v0q-41 0 -67 32l-161 201q-21 28 -18 63q5 35 32 57q24 19 53 19z" />
    <glyph glyph-name="uacute" unicode="&#xfa;" horiz-adv-x="1186" 
d="M853 -1v0q55 0 94 39t39 94v1178q0 55 -39 94t-94 39t-94 -39t-39 -94v-1045h-57q-55 0 -94 -39t-39 -94t39 -94t94 -39h190zM663 217v0h81q10 0 17 7t7 17v1069q0 35 25 59.5t60 24.5t59.5 -24.5t24.5 -59.5v-1178q0 -35 -24.5 -59.5t-59.5 -24.5h-190q-34 0 -59 24.5
t-25 59.5t25 60t59 25zM322 -1v0q55 0 94 39t39 94t-39 94t-94 39h-56v1045q0 55 -39 94t-94 39t-94 -39t-39 -94v-1178q0 -55 39 -94t94 -39h189zM133 1394v0q35 0 60 -24.5t25 -59.5v-1069q0 -10 7 -17t17 -7h80q35 0 60 -25t25 -60t-25 -59.5t-60 -24.5h-189
q-35 0 -59.5 24.5t-24.5 59.5v1178q0 35 24.5 59.5t59.5 24.5zM413 1467v0q61 0 104 51l161 201q34 44 28 99q-7 54 -49 89q-38 29 -84 29q-61 0 -104 -50l-161 -202q-34 -43 -28 -98q7 -55 49 -90q38 -29 84 -29zM573 1888v0q30 0 53 -19q28 -22 32 -57t-18 -62l-161 -202
q-27 -32 -66 -32q-30 0 -54 18q-27 23 -31 58q-4 34 18 62l161 202q27 32 66 32z" />
    <glyph glyph-name="ucircumflex" unicode="&#xfb;" horiz-adv-x="1186" 
d="M853 -1v0q55 0 94 39t39 94v1178q0 55 -39 94t-94 39t-94 -39t-39 -94v-1045h-56q-55 0 -94 -39t-39 -94t39 -94t94 -39h189zM664 217v0h80q10 0 17 7t7 17v1069q0 35 25 59.5t60 24.5t59.5 -24.5t24.5 -59.5v-1178q0 -35 -24.5 -59.5t-59.5 -24.5h-189q-35 0 -60 24.5
t-25 59.5t25 60t60 25zM323 -1v0q55 0 94 39t39 94t-39 94t-94 39h-57v1045q0 55 -39 94t-94 39t-94 -39t-39 -94v-1178q0 -55 39 -94t94 -39h190zM133 1394v0q35 0 60 -24.5t25 -59.5v-1069q0 -10 7 -17t17 -7h81q34 0 59 -25t25 -60t-25 -59.5t-59 -24.5h-190
q-35 0 -59.5 24.5t-24.5 59.5v1178q0 35 24.5 59.5t59.5 24.5zM659 1467v0q46 0 84 30q42 34 49 89q6 55 -28 98l-161 202q-27 34 -68 45l-2 1l-10 2q-2 0 -3 1h-1q-4 0 -8 1h-6q-6 1 -14 0h-5q-4 -1 -9 -1v0q-2 -1 -3 -1q-5 -1 -11 -2h-1q-41 -12 -68 -46l-161 -202
q-34 -43 -28 -98t49 -89q37 -29 83 -30v0q62 0 105 51l56 70l57 -70q43 -51 104 -51zM498 1652v0q-11 0 -19 -10l-75 -94q-27 -32 -67 -32q-29 0 -53 18q-27 23 -31 58t18 62l161 202q17 21 43 29h0.5h0.5v0q4 1 7 2h2q3 0 6 1h3v0h9h3q3 -1 6 -1h2q3 -1 7 -2v0v0h1
q26 -8 43 -29l161 -202q22 -27 18 -62t-31 -58q-24 -18 -54 -18q-39 0 -66 32l-76 94q-7 10 -19 10z" />
    <glyph glyph-name="udieresis" unicode="&#xfc;" horiz-adv-x="1185" 
d="M852 0v0q55 0 94 39t39 94v1177q0 55 -39 94t-94 39t-94 -39t-39 -94v-1044h-56q-55 0 -94 -39t-39 -94t39 -94t94 -39h189zM663 217v0h81q10 0 17 7t7 17v1069q0 35 24.5 59.5t59.5 24.5t60 -24.5t25 -59.5v-1177q0 -35 -25 -60t-60 -25h-189q-35 0 -59.5 25t-24.5 60
t24.5 59.5t59.5 24.5zM322 0v0q55 0 94 39t39 94t-39 94t-94 39h-56v1044q0 55 -39 94t-94 39t-94 -39t-39 -94v-1177q0 -55 39 -94t94 -39h189zM133 1394v0q35 0 59.5 -24.5t24.5 -59.5v-1069q0 -10 7 -17t18 -7h80q35 0 60 -24.5t25 -59.5t-25 -60t-60 -25h-189
q-35 0 -60 25t-25 60v1177q0 35 25 59.5t60 24.5zM348 1459v0q55 0 94 39t39 94t-39 94t-94 39t-93.5 -39t-38.5 -94t38.5 -94t93.5 -39zM348 1676v0q35 0 59.5 -24.5t24.5 -59.5t-24.5 -59.5t-59.5 -24.5q-34 0 -59 24.5t-25 59.5t25 59.5t59 24.5zM626 1459v0
q55 0 93.5 39t38.5 94t-38.5 94t-93.5 39t-94 -39t-39 -94t39 -94t94 -39zM626 1676v0q35 0 59.5 -24.5t24.5 -59.5t-24.5 -59.5t-59.5 -24.5t-59.5 24.5t-24.5 59.5t24.5 59.5t59.5 24.5z" />
    <glyph glyph-name="yacute" unicode="&#xfd;" horiz-adv-x="1402" 
d="M601 592v0q69 0 111 56l457 578v0q33 45 27 98q-6 52 -49 88q0 1 -1 1q-44 33 -97 27t-89 -49v0v0l-359 -454l-358 454v0h-1q-35 43 -88 49t-97 -27q-1 0 -1 -1q-43 -36 -50 -88q-6 -53 28 -98v0v0l456 -578q43 -56 111 -56zM72 1255v0q-22 30 -17 63q3 33 31 56
q29 22 62 18q34 -4 57 -32l377 -478q8 -9 19 -9t19 9l378 478q23 28 56 32q34 4 62 -18q28 -23 32 -56t-18 -63l-456 -577v-1v0q-28 -37 -73 -37t-72 37v1h-1zM601 0v0q55 0 95 40q39 39 39 94v258q0 55 -39 95q-40 39 -95 39t-94 -39q-39 -40 -39 -95v-258q0 -55 39 -94
q39 -40 94 -40zM601 477v0q36 0 61 -25q25 -24 25 -60v-258q0 -35 -25 -60t-61 -25q-35 0 -60 25t-25 60v258q0 36 25 60q25 25 60 25zM498 1459v0q61 0 104 50l161 202q34 43 28 98q-7 55 -49 90q-38 29 -84 29q-61 0 -104 -50l-161 -202q-34 -43 -28 -98t49 -90
q38 -29 84 -29v0zM658 1880v0q30 0 53 -19q28 -22 32 -57t-18 -63l-161 -201q-27 -33 -66 -33q-30 1 -54 19q-27 22 -31 57t18 63l161 201q27 33 66 33z" />
    <glyph glyph-name="thorn" unicode="&#xfe;" horiz-adv-x="1178" 
d="M134 3v0q55 0 95 39q39 39 39 95v158h161h108q201 0 325 124q115 124 113 300q3 118 -54 220l-2 4l-7 8q-33 54 -81 94q-96 100 -262 97q-16 1 -32 1q-3 0 -6 -1l-91 1q-7 0 -14 -1l-158 1v157q0 55 -39 95q-40 39 -95 39t-95 -39q-39 -40 -39 -95v-290q0 -7 1 -12
q6 -54 44 -89t90 -35l122 1h29h140.5h110.5q66 0 111.5 -45.5t45.5 -112.5q0 -3 1 -6q-4 -65 -48.5 -107.5t-108.5 -42.5h-99.5h-132.5h-17h-30l-123 2q-56 0 -99 -45q-32 -35 -35 -83q-2 -8 -2 -17v-281q0 -56 40 -95q39 -39 94 -39zM135 514v0l123 -1h31h12h135h102
q86 0 144.5 58t61.5 146q0 4 -1 7q-5 86 -63 143t-143 57h-110.5h-140.5h-29l-122 -1q-33 0 -57.5 23t-28.5 56v1v0v7v290q0 36 25 60q24 25 60 25t60 -25q25 -24 25 -60v-181q0 -10 7 -17t17 -7l184 -2h3q5 1 10 1h97v0q3 0 6 1q12 0 24 -1h1q89 -1 141 -23t89 -62
q1 0 2 -1q42 -35 72 -83q0 -2 1 -3l7 -8q49 -91 47 -194v-1q2 -156 -100 -266q-106 -109 -290 -109l-109 -1h-184q-10 0 -17.5 -7t-7.5 -17v-182q0 -36 -25 -61q-24 -25 -60 -25q-35 0 -60 25t-25 61v281q0 6 1 10v3q2 31 23 54v0v0q28 29 62 29z" />
    <glyph glyph-name="ydieresis" unicode="&#xff;" horiz-adv-x="1402" 
d="M601 592v0q68 0 111 56l456 578v0v0q34 45 28 98q-7 52 -49 88l-1 1q-45 33 -98 27t-88 -49h-1l-358 -454l-359 454v0q-36 43 -89 49q-52 6 -97 -27q-1 0 -1 -1v0q-43 -36 -49 -88q-6 -53 27 -98v0v0l456 -578q43 -56 112 -56zM72 1255v0q-22 30 -18 63t32 56
q29 22 62 18t56 -32l378 -478q8 -9 19 -9t19 9l377 478q23 28 57 32q33 4 62 -18q28 -23 32 -56t-18 -63l-456 -577l-1 -1q-27 -37 -72 -37t-73 37v1v0zM601 0v0q55 0 94 40q40 39 40 94v258q0 55 -40 95q-39 39 -94 39t-95 -39q-39 -40 -39 -95v-258q0 -55 39 -94
q40 -40 95 -40zM601 477v0q35 0 60 -25q25 -24 25 -60v-258q0 -35 -25 -60t-60 -25q-36 0 -61 25t-25 60v258q0 36 25 60q25 25 61 25zM462 1452v0q55 0 94 39t39 94t-39 94t-94 39t-94 -39t-39 -94t39 -94t94 -39zM462 1669v0q35 0 59.5 -24.5t24.5 -59.5t-24.5 -59.5
t-59.5 -24.5t-59.5 24.5t-24.5 59.5t24.5 59.5t59.5 24.5zM739 1452v0q55 0 94 39t39 94t-39 94t-94 39q-54 0 -93 -39t-39 -94t39 -94t93 -39zM739 1669v0q35 0 60 -24.5t25 -59.5t-25 -59.5t-60 -24.5q-34 0 -59 24.5t-25 59.5t25 59.5t59 24.5z" />
    <glyph glyph-name="dotlessi" unicode="&#x131;" horiz-adv-x="514" 
d="M328 223q0 -173 100 -173h46v-50h-442v50h46q100 0 100 173v432q0 77 -111 77h-48v44q222 69 261 182h48v-735z" />
    <glyph glyph-name="circumflex" unicode="&#x2c6;" horiz-adv-x="1024" 
d="M221 1079l232 355h118l232 -355h-58l-233 216l-233 -216h-58z" />
    <glyph glyph-name="caron" unicode="&#x2c7;" horiz-adv-x="1024" 
d="M221 1434h58l233 -214l233 214h58l-232 -356h-118z" />
    <glyph glyph-name="uni02C9" unicode="&#x2c9;" horiz-adv-x="1024" 
d="M254 1195v125h516v-125h-516z" />
    <glyph glyph-name="breve" unicode="&#x2d8;" horiz-adv-x="1024" 
d="M219 1349h51q17 -73 75 -107t167 -34t166 33.5t74 107.5h51q-20 -133 -94 -201.5t-197 -68.5q-122 0 -197 69t-96 201z" />
    <glyph glyph-name="dotaccent" unicode="&#x2d9;" horiz-adv-x="1024" 
d="M422 1289l69 72q6 6 13 9t14 3q6 0 12.5 -3t12.5 -9l71 -76q5 -4 7 -10t2 -14q-1 -9 -3 -15t-8 -12l-71 -76q-12 -11 -16 -13.5t-7 -2.5q-10 0 -16.5 2.5t-10.5 8.5l-75 87q-4 4 -6 9.5t-2 13.5q0 6 3 12.5t11 13.5z" />
    <glyph glyph-name="ring" unicode="&#x2da;" horiz-adv-x="1024" 
d="M411 1257q0 -42 29 -71t71 -29t71 29t29 71q0 40 -29.5 69.5t-70.5 29.5t-70.5 -29.5t-29.5 -69.5zM335 1257q0 75 51 126t125 51q76 0 127.5 -51.5t51.5 -125.5q0 -75 -51.5 -126.5t-127.5 -51.5q-74 0 -125 51.5t-51 126.5z" />
    <glyph glyph-name="ogonek" unicode="&#x2db;" horiz-adv-x="1024" 
d="M640 0q-71 -62 -110.5 -119.5t-39.5 -112.5q0 -47 27 -75t73 -28q40 0 69.5 15.5t49.5 48.5l28 -16q-36 -63 -90.5 -97t-119.5 -34q-70 0 -114 35.5t-44 90.5q0 76 60.5 156.5t161.5 135.5h49z" />
    <glyph glyph-name="tilde" unicode="&#x2dc;" horiz-adv-x="1024" 
d="M808 1382q-20 -103 -68.5 -154t-126.5 -51h-4q-50 0 -113 23q-66 24 -114 24q-39 0 -60.5 -20.5t-33.5 -71.5h-54q19 106 68 158.5t129 52.5q46 -1 113 -24q64 -23 112 -23h4q36 0 58 20t36 66h54z" />
    <glyph glyph-name="hungarumlaut" unicode="&#x2dd;" horiz-adv-x="1024" 
d="M217 1079l144 273q24 44 45.5 63t46.5 19q28 0 48 -20t20 -47q0 -16 -10.5 -35t-30.5 -41l-205 -212h-58zM502 1079l144 273q24 44 45.5 63t46.5 19q28 0 48 -20t20 -47q0 -16 -10.5 -35t-30.5 -41l-205 -212h-58z" />
    <glyph glyph-name="endash" unicode="&#x2013;" horiz-adv-x="1108" 
d="M56 419v120h996v-120h-996z" />
    <glyph glyph-name="emdash" unicode="&#x2014;" horiz-adv-x="2048" 
d="M0 419v120h2048v-120h-2048z" />
    <glyph glyph-name="quoteleft" unicode="&#x2018;" horiz-adv-x="467" 
d="M134 1189v0q53 0 94 39q39 40 39 95v258q0 53 -36 91t-91 42q-6 1 -13 0q-55 -4 -91 -42t-36 -91v-258q0 -56 39 -95t95 -39zM134 1666v0h4q35 -3 58 -27t23 -58v-258q-1 -35 -25 -60q-26 -25 -60 -25q-36 0 -61 25t-25 60v258q0 34 23 58t58 27h5z" />
    <glyph glyph-name="quoteright" unicode="&#x2019;" horiz-adv-x="467" 
d="M134 1189v0q53 0 94 39q39 40 39 95v258q0 53 -36 91t-91 42q-6 1 -13 0q-55 -4 -91 -42t-36 -91v-258q0 -56 39 -95t95 -39zM134 1666v0h4q35 -3 58 -27t23 -58v-258q-1 -35 -25 -60q-26 -25 -60 -25q-36 0 -61 25t-25 60v258q0 34 23 58t58 27h5z" />
    <glyph glyph-name="quotesinglbase" unicode="&#x201a;" horiz-adv-x="557" 
d="M238 281q44 0 88.5 -65.5t44.5 -151.5q0 -109 -71 -226.5t-139 -117.5v43q73 43 87 190q0 119 -129 161v42z" />
    <glyph glyph-name="quotedblleft" unicode="&#x201c;" horiz-adv-x="741" 
d="M134 1189v0q53 0 94 39q39 40 39 95v258q0 53 -36 91t-91 42q-6 1 -13 0q-55 -4 -91 -42t-36 -91v-258q0 -56 39 -95t95 -39zM134 1666v0h4q35 -3 58 -27t23 -58v-258q-1 -35 -25 -60q-26 -25 -60 -25q-36 0 -61 25t-25 60v258q0 34 23 58t58 27h5zM407 1189v0
q54 0 95 39q38 40 39 95v258q0 53 -36.5 91t-90.5 42q-7 1 -14 0q-54 -4 -90.5 -42t-36.5 -91v-258q0 -56 39.5 -95t94.5 -39zM407 1666v0h4q35 -3 58 -27t23 -58v-258q0 -35 -25 -60q-26 -25 -60 -25q-35 0 -60 25t-25 60v258q0 34 23 58t58 27h4z" />
    <glyph glyph-name="quotedblright" unicode="&#x201d;" horiz-adv-x="741" 
d="M134 1189v0q53 0 94 39q39 40 39 95v258q0 53 -36 91t-91 42q-6 1 -13 0q-55 -4 -91 -42t-36 -91v-258q0 -56 39 -95t95 -39zM134 1666v0h4q35 -3 58 -27t23 -58v-258q-1 -35 -25 -60q-26 -25 -60 -25q-36 0 -61 25t-25 60v258q0 34 23 58t58 27h5zM407 1189v0
q54 0 95 39q38 40 39 95v258q0 53 -36.5 91t-90.5 42q-7 1 -14 0q-54 -4 -90.5 -42t-36.5 -91v-258q0 -56 39.5 -95t94.5 -39zM407 1666v0h4q35 -3 58 -27t23 -58v-258q0 -35 -25 -60q-26 -25 -60 -25q-35 0 -60 25t-25 60v258q0 34 23 58t58 27h4z" />
    <glyph glyph-name="quotedblbase" unicode="&#x201e;" horiz-adv-x="741" 
d="M134 -264v0q53 0 94 39q39 40 39 95v258q0 53 -36 91t-91 42q-6 1 -13 0q-55 -4 -91 -42t-36 -91v-258q0 -55 39 -94.5t95 -39.5zM134 213v0h4q35 -3 58 -27t23 -58v-258q-1 -35 -25 -60q-26 -25 -60 -25q-36 0 -61 25t-25 60v258q0 34 23 58t58 27h5zM407 -264v0
q54 0 95 39q38 40 39 95v258q0 53 -36.5 91t-90.5 42q-7 1 -14 0q-54 -4 -90.5 -42t-36.5 -91v-258q0 -55 39.5 -94.5t94.5 -39.5zM407 213v0h4q35 -3 58 -27t23 -58v-258q0 -35 -25 -60q-26 -25 -60 -25q-35 0 -60 25t-25 60v258q0 34 23 58t58 27h4z" />
    <glyph glyph-name="dagger" unicode="&#x2020;" horiz-adv-x="1014" 
d="M486 1022q-8 97 -54 178q-57 101 -57 129q0 49 36 78.5t96 29.5q57 0 94.5 -27.5t37.5 -71.5q0 -32 -55 -137q-46 -85 -55 -179q96 8 177 54q101 57 129 57q49 0 79 -36t30 -96q0 -57 -27.5 -94.5t-72.5 -37.5q-32 0 -136 55q-85 46 -179 57q8 -176 110 -277
q-106 -460 -112 -974h-38q-6 514 -114 974q102 101 111 277q-96 -10 -178 -55q-101 -57 -129 -57q-49 0 -78.5 36t-29.5 96q0 57 27.5 94.5t71.5 37.5q32 0 137 -56q85 -46 179 -55z" />
    <glyph glyph-name="daggerdbl" unicode="&#x2021;" horiz-adv-x="1014" 
d="M528 186q94 11 179 57q104 55 136 55q45 0 72.5 -37.5t27.5 -94.5q0 -60 -30 -96t-79 -36q-28 0 -129 57q-81 46 -177 54q9 -94 55 -179q55 -105 55 -137q0 -44 -37.5 -71.5t-94.5 -27.5q-60 0 -96 29.5t-36 78.5q0 28 57 129q46 81 54 178q-94 -9 -179 -55
q-105 -56 -137 -56q-44 0 -71.5 37.5t-27.5 94.5q0 60 29.5 96t78.5 36q28 0 129 -57q82 -45 178 -55q-9 226 -111 398q102 171 111 397q-96 -10 -178 -55q-101 -57 -129 -57q-49 0 -78.5 36t-29.5 96q0 57 27.5 94.5t71.5 37.5q32 0 137 -56q85 -46 179 -55q-8 97 -54 178
q-57 101 -57 129q0 49 36 78.5t96 29.5q57 0 94.5 -27.5t37.5 -71.5q0 -32 -55 -137q-46 -85 -55 -179q96 8 177 54q101 57 129 57q49 0 79 -36t30 -96q0 -57 -27.5 -94.5t-72.5 -37.5q-32 0 -136 55q-85 46 -179 57q8 -226 110 -397q-102 -172 -110 -398z" />
    <glyph glyph-name="bullet" unicode="&#x2022;" horiz-adv-x="1024" 
d="M216 718q0 123 87 209t210 86q122 0 208.5 -86.5t86.5 -208.5t-87.5 -209.5t-209.5 -87.5q-123 0 -209 87t-86 210z" />
    <glyph glyph-name="ellipsis" unicode="&#x2026;" horiz-adv-x="2048" 
d="M145 167l82 84q15 14 29 14q13 0 31 -16l80 -86q12 -16 12 -29q0 -15 -14 -31l-80 -88q-20 -20 -29 -20q-16 0 -29 14l-88 101q-10 13 -10 26q0 15 16 31zM828 167l82 84q15 14 29 14q13 0 31 -16l80 -86q12 -16 12 -29q0 -15 -14 -31l-80 -88q-20 -20 -29 -20
q-16 0 -29 14l-88 101q-10 13 -10 26q0 15 16 31zM1511 167l82 84q15 14 29 14q13 0 31 -16l80 -86q12 -16 12 -29q0 -15 -14 -31l-80 -88q-20 -20 -29 -20q-16 0 -29 14l-88 101q-10 13 -10 26q0 15 16 31z" />
    <glyph glyph-name="guilsinglleft" unicode="&#x2039;" horiz-adv-x="631" 
d="M174 479l342 303h14v-37l-205 -266l205 -266v-37h-14z" />
    <glyph glyph-name="guilsinglright" unicode="&#x203a;" horiz-adv-x="631" 
d="M115 176h-14v37l205 266l-205 266v37h14l342 -303z" />
    <glyph glyph-name="fraction" unicode="&#x2044;" horiz-adv-x="342" 
d="M-342 -29l940 1461h84l-938 -1461h-86z" />
    <glyph glyph-name="fraction" unicode="&#x2215;" horiz-adv-x="342" 
d="M-342 -29l940 1461h84l-938 -1461h-86z" />
    <glyph glyph-name="franc" unicode="&#x20a3;" horiz-adv-x="1014" 
d="M247 357h-194v60h194v732q0 235 -103 235h-96v50h915l103 -231h-49q-59 182 -190 182l-316 -1q-102 0 -102 -235v-352h361q100 0 100 63v58h50v-342h-50v60q0 62 -100 62h-361v-281h194v-60h-194v-72q0 -235 102 -235h97v-50h-560v50h96q103 0 103 235v72z" />
    <glyph glyph-name="lira" unicode="&#x20a4;" horiz-adv-x="1014" 
d="M748 1347q-72 31 -160 31h-2q-100 0 -190 -101q-84 -93 -84 -241q0 -15 1 -30q0 -106 33 -213h380v-60h-360q12 -30 26 -60h352v-60h-321q35 -63 35 -138q0 -161 -162 -375h402q130 0 189 132l49 -1l-103 -231h-719l1 50q187 238 187 418q0 77 -34 143l-2 2h-172v60h143
q-14 31 -26 60h-135v60h113q-36 107 -36 193q0 226 123.5 347t310.5 121q75 0 185.5 -14t110.5 -34v-161h-58q-5 61 -77 102z" />
    <glyph glyph-name="peseta" unicode="&#x20a7;" horiz-adv-x="2028" 
d="M409 1384v-662q3 -9 7 -17q41 -102 108 -153q57 -44 116 -44q10 0 19 1q68 8 127 75t87 177q22 87 22 179q0 24 -1 47q-7 116 -49.5 218.5t-108.5 144.5q-56 35 -112 35q-10 0 -21 -1h-194zM1496 908h-179v-685q0 -81 34 -119q28 -31 81 -37l-71 192l49 1
q55 -130 114 -174q57 -44 127 -44h7q92 0 151 52q59 53 59 136q0 102 -259 226q-101 52 -144 112t-43 145q0 121 73 194zM1039 910q-7 -101 -48 -194q-50 -114 -141 -177.5t-190 -63.5q-100 0 -191 64q-33 22 -60 51v-305q0 -235 102 -235h97v-50h-560v50h96q103 0 103 235
v864q0 235 -103 235h-96v50h618q92 -2 181 -62q91 -62 143 -177q50 -113 51 -237h10q216 0 216 355h50v-355h259q42 19 110 20h2q54 0 133.5 -13.5t79.5 -33.5v-159h-42q-4 66 -65.5 108t-133.5 42q-64 0 -102.5 -36.5t-38.5 -96.5q0 -108 235 -220q122 -55 167.5 -117.5
t45.5 -153.5q0 -140 -83 -231q-102 -84 -228 -86q-58 0 -105 11q-28 6 -56 6q-18 0 -36 -3q-28 -5 -59 -5q-124 0 -173.5 57t-57.5 176h-1v687h-129z" />
    <glyph glyph-name="Euro" unicode="&#x20ac;" horiz-adv-x="1014" 
d="M140 372q-62 135 -76 281h-108l17 60h87v29q0 16 1 31h-71l17 60h58q14 145 76 281q81 178 226 274t298 96q43 0 87 -8q40 -10 82 -29q8 -6 16 -6q20 0 34 45h41l84 -281l-40 -1q-49 134 -138 178q-43 22 -81 32v3q-50 16 -101 16q-17 0 -34 -2q-120 -12 -226 -113.5
t-157 -273.5q-32 -104 -39 -211h706l-17 -60h-692q0 -30 2 -60h674l-17 -60h-652q17 -158 83 -298q74 -157 193 -236q102 -68 216 -69q186 3 256 91q74 91 74 185h48v-143q0 -70 -111 -127q-105 -54 -267 -56q-181 0 -325.5 98t-223.5 274z" />
    <glyph glyph-name="uni2116" unicode="&#x2116;" horiz-adv-x="2271" 
 />
    <glyph glyph-name="trademark" unicode="&#x2122;" horiz-adv-x="1497" 
 />
    <glyph glyph-name="partialdiff" unicode="&#x2202;" horiz-adv-x="1014" 
d="M232 537q0 -41 5 -79q14 -122 61.5 -230t118.5 -165q64 -53 128 -53q6 0 13 1q70 5 127.5 70.5t80.5 179.5q16 73 16 149q0 42 -5 85q-14 122 -62.5 231.5t-119.5 165.5q-65 50 -128 50h-11q-68 -5 -126 -69.5t-82 -178.5q-16 -84 -16 -157zM937 477q0 -132 -56.5 -251
t-159 -185t-214.5 -66t-214.5 66t-159 185t-56.5 251q0 131 58 251t161 185t211 65q109 0 212 -65q29 -18 54 -41q-84 235 -233.5 377t-326.5 155v55q306 0 515 -285t209 -697z" />
    <glyph glyph-name="Delta" unicode="&#x2206;" horiz-adv-x="1081" 
d="M514 1195l-406 -1072h801zM547 1434l526 -1434h-1067z" />
    <glyph glyph-name="product" unicode="&#x220f;" horiz-adv-x="1515" 
d="M511 1384q-102 0 -102 -235v-1281q0 -235 102 -235h97v-51h-560v51h96q103 0 103 235v1281q0 235 -103 235h-96v50h1419v-50h-97q-102 0 -102 -235v-1281q0 -235 102 -235h97v-50h-560v50h96q103 0 103 235v1281q0 235 -103 235h-492z" />
    <glyph glyph-name="summation" unicode="&#x2211;" horiz-adv-x="1206" 
d="M1059 548l-788 -914h635q130 0 189 182h49l-103 -232h-921v50q62 0 106 53l663 781l-663 859q-44 57 -106 57v50h921l103 -232h-49q-59 182 -189 182h-485z" />
    <glyph glyph-name="minus" unicode="&#x2212;" horiz-adv-x="1014" 
d="M87 647v140h839l1 -1v-139h-840z" />
    <glyph glyph-name="radical" unicode="&#x221a;" horiz-adv-x="1014" 
d="M181 0l-164 359l74 35l85 -185l728 1470h150v-60h-72z" />
    <glyph glyph-name="infinity" unicode="&#x221e;" horiz-adv-x="1014" 
d="M439 755q-15 103 -74 133q-46 22 -84 22q-12 0 -23 -2q-49 -10 -92.5 -44.5t-65.5 -84.5q-20 -46 -20 -90v-8q2 -48 27.5 -89t71.5 -58q29 -11 61 -11q16 0 33 3q47 10 90.5 43.5t75.5 185.5zM466 687q12 -96 94 -153q69 -48 123 -48q11 0 21 2q62 12 117.5 52t84.5 101
q26 54 26 108v11q-2 60 -35.5 108.5t-91.5 68.5q-37 13 -76 13q-22 0 -44 -4q-67 -9 -127 -62t-92 -197zM450 827q9 35 21 69q34 88 95 137t128 49t128 -48t95 -135t34 -182t-34 -182t-95 -135t-128 -48t-128 49t-95 136q-12 35 -21 70q-5 -21 -12 -41q-27 -73 -74 -113
t-99 -40t-100 41t-73.5 113.5t-25.5 149.5q0 76 25.5 149t73.5 114t100 41t99 -40t74 -112q7 -21 12 -42z" />
    <glyph glyph-name="integral" unicode="&#x222b;" horiz-adv-x="665" 
d="M-12 -281q-60 0 -60 29v159h36q1 -43 34.5 -64.5t63.5 -21.5h1q82 0 115 162q32 162 40 316l70 734l8 62q27 238 135 429.5t234 191.5q60 0 60 -29v-159h-36q-1 43 -35 64.5t-63 21.5q-71 0 -116 -155.5t-49 -363.5l-73 -767q-20 -231 -130.5 -420t-234.5 -189z" />
    <glyph glyph-name="approxequal" unicode="&#x2248;" horiz-adv-x="1014" 
d="M923 1053v-156q-63 -72 -122 -97.5t-116 -25.5q-60 0 -177.5 48.5t-176.5 48.5q-51 0 -107.5 -28t-129.5 -112v156q64 73 123 99t114 26q64 0 181.5 -49.5t172.5 -49.5q52 0 108.5 28t129.5 112zM923 705v-156q-63 -72 -122 -97.5t-116 -25.5q-60 0 -177.5 48.5
t-176.5 48.5q-51 0 -107.5 -28t-129.5 -112v156q64 73 123 99t114 26q64 0 181.5 -49.5t172.5 -49.5q52 0 108.5 28t129.5 112z" />
    <glyph glyph-name="lessequal" unicode="&#x2264;" horiz-adv-x="1014" 
d="M927 1074l-625 -359l625 -355v-167l-840 481v83l840 484v-167zM87 1v140h839l1 -1v-139h-840z" />
    <glyph glyph-name="greaterequal" unicode="&#x2265;" horiz-adv-x="1014" 
d="M87 1241l840 -484v-83l-840 -481v167l625 355l-625 359v167zM87 2v140h839l1 -1v-139h-840z" />
    <glyph glyph-name="uniF001" unicode="&#xf001;" horiz-adv-x="1073" 
 />
    <glyph glyph-name="uniF001" unicode="&#xfb01;" horiz-adv-x="1073" 
 />
    <glyph glyph-name="uniF002" unicode="&#xf002;" horiz-adv-x="1081" 
 />
    <glyph glyph-name="uniF002" unicode="&#xfb02;" horiz-adv-x="1081" 
 />
    </font>
</defs>
</svg>
